<svg width="15" height="15" viewBox="0 0 40 28" fill="none" xmlns="http://www.w3.org/2000/svg">
<path fill-rule="evenodd" clip-rule="evenodd" d="M39.4719 18.2726H30.9632C30.9107 18.273 30.859 18.2855 30.8121 18.3091C30.7652 18.3327 30.7244 18.3669 30.6928 18.4089C30.6613 18.4509 30.6399 18.4996 30.6302 18.5512C30.6205 18.6028 30.6229 18.656 30.6371 18.7065L33.2531 27.4907H28.8582L26.4471 18.5253C26.4278 18.4528 26.3851 18.3888 26.3256 18.3431C26.2661 18.2973 26.1932 18.2726 26.1182 18.2726H21.5212L23.4403 20.1935L22.1056 21.5287L20.1035 19.5258L19.1216 20.5082C18.5877 21.0423 18.1301 21.481 18.1015 21.481C18.0729 21.481 17.7583 21.1949 17.4055 20.8325L16.7668 20.1935L18.6897 18.2774H14.0821C14.0071 18.2773 13.9342 18.3021 13.8748 18.3478C13.8153 18.3935 13.7726 18.4576 13.7532 18.5301L11.3412 27.4954H6.94723L9.56228 18.7113C9.57742 18.6604 9.58046 18.6066 9.57116 18.5543C9.56187 18.502 9.54049 18.4525 9.50874 18.4099C9.47699 18.3673 9.43573 18.3327 9.38826 18.3089C9.34079 18.285 9.2884 18.2726 9.23528 18.2726H0.527344V14.8047C0.527344 14.3838 0.69448 13.9801 0.991984 13.6825C1.28949 13.3849 1.69299 13.2177 2.11373 13.2177H10.9389C11.0122 13.2176 11.0835 13.194 11.1423 13.1501C11.201 13.1063 11.244 13.0447 11.265 12.9745L13.3347 6.02537C13.3496 5.97472 13.3525 5.92131 13.3433 5.86932C13.3341 5.81734 13.3129 5.76821 13.2815 5.72579C13.2501 5.68336 13.2093 5.6488 13.1623 5.62483C13.1153 5.60085 13.0633 5.5881 13.0106 5.58759H5.67546V2.58039C5.67546 2.00973 5.90206 1.46244 6.3054 1.05892C6.70875 0.655405 7.25581 0.428711 7.82623 0.428711H32.2636C32.834 0.428711 33.381 0.655405 33.7844 1.05892C34.1877 1.46244 34.4143 2.00973 34.4143 2.58039V5.58759H27.186C27.133 5.58766 27.0807 5.60008 27.0333 5.62387C26.986 5.64766 26.9448 5.68217 26.913 5.72465C26.8813 5.76713 26.8599 5.81643 26.8505 5.86862C26.8411 5.92082 26.844 5.97449 26.859 6.02537L28.9297 12.9745C28.9506 13.0447 28.9937 13.1063 29.0524 13.1501C29.1111 13.194 29.1825 13.2176 29.2557 13.2177H37.8845C38.3054 13.2177 38.709 13.3848 39.0066 13.6824C39.3043 13.98 39.4716 14.3837 39.4719 14.8047V18.2726ZM15.6228 13.2177H24.5757C24.6282 13.218 24.68 13.2062 24.7271 13.1832C24.7742 13.1602 24.8154 13.1266 24.8475 13.0851C24.8795 13.0436 24.9015 12.9952 24.9117 12.9437C24.922 12.8923 24.9202 12.8391 24.9065 12.7885L23.038 5.84034C23.0186 5.76784 22.9759 5.70376 22.9164 5.65806C22.8569 5.61235 22.784 5.58758 22.709 5.58759H17.4913C17.4163 5.58758 17.3434 5.61235 17.284 5.65806C17.2245 5.70376 17.1818 5.76784 17.1624 5.84034L15.2939 12.7885C15.2802 12.839 15.2784 12.8919 15.2886 12.9432C15.2987 12.9945 15.3205 13.0428 15.3523 13.0843C15.3842 13.1258 15.4251 13.1595 15.472 13.1826C15.5189 13.2057 15.5705 13.2177 15.6228 13.2177ZM14.8892 22.2394L15.5279 21.5912C15.8806 21.2289 16.1953 20.9429 16.2239 20.9429C16.2525 20.9429 16.5575 21.2193 16.8912 21.5626L17.5014 22.1822L16.1857 23.5169L14.8892 22.2394ZM19.4068 21.5912L18.7681 22.2394L19.4354 22.8972L20.1028 23.5551L20.7701 22.8972L21.4375 22.2394L20.7987 21.5912C20.446 21.2289 20.1314 20.9429 20.1028 20.9429C20.0742 20.9429 19.7596 21.2289 19.4068 21.5912ZM23.4107 21.5912L22.772 22.2394L24.0685 23.5169L25.3842 22.1822L24.774 21.5626C24.4403 21.2193 24.1353 20.9429 24.1067 20.9429C24.0781 20.9429 23.7635 21.2289 23.4107 21.5912ZM17.4059 23.5949L16.7671 24.234L20.1039 27.5721L23.4406 24.234L22.1059 22.8987L20.1039 24.9016L19.1219 23.9192C18.588 23.3851 18.1209 22.9464 18.1018 22.9464C18.0828 22.9464 17.7586 23.2325 17.4059 23.5949Z" fill="#FCE38F"/>
</svg>
