<svg width="77" height="38" viewBox="0 0 77 38" fill="none" xmlns="http://www.w3.org/2000/svg">
<path d="M11.6201 15.9679L19 8.588L26.3834 15.9711L30.6774 11.6771L19 0L7.3264 11.6736L11.6202 15.9676L11.6201 15.9679ZM0 19L4.29415 14.7052L8.588 18.9991L4.29385 23.2932L0 19ZM11.6201 22.0326L19 29.412L26.3832 22.0291L30.6795 26.3208L30.6774 26.3231L19 38L7.3264 26.3264L7.32032 26.3203L11.6206 22.0321L11.6201 22.0326ZM29.412 19.0018L33.7062 14.7077L38 19.0015L33.706 23.2957L29.412 19.0018Z" fill="#F3BA2F"/>
<path d="M23.9951 19.4976H23.9972L19.0001 15L15.3065 18.3233L14.8821 18.7053L14.007 19.4931L14 19.4992L14.007 19.5056L19.0001 24L23.9976 19.5024L24 19.4998L23.9955 19.4976" fill="#F3BA2F"/>
<path d="M46.3655 24.7825V13.2173H50.4384C51.8492 13.2173 52.9194 13.4874 53.6487 14.0275C54.3781 14.5623 54.7428 15.3487 54.7428 16.3866C54.7428 16.9532 54.5964 17.4536 54.3036 17.8879C54.0108 18.3168 53.6035 18.6319 53.0817 18.8331C53.678 18.9814 54.1465 19.2806 54.4873 19.7307C54.8333 20.1808 55.0064 20.7315 55.0064 21.3828C55.0064 22.4949 54.6497 23.3369 53.9362 23.9088C53.2228 24.4807 52.2059 24.7719 50.8856 24.7825H46.3655ZM48.7613 19.7465V22.8682H50.8137C51.378 22.8682 51.8173 22.7358 52.1314 22.471C52.4508 22.201 52.6106 21.8303 52.6106 21.359C52.6106 20.2999 52.0595 19.7624 50.9574 19.7465H48.7613ZM48.7613 18.0626H50.5342C51.7427 18.0414 52.347 17.5622 52.347 16.6249C52.347 16.1006 52.1926 15.7247 51.8838 15.497C51.5804 15.264 51.0985 15.1475 50.4384 15.1475H48.7613V18.0626Z" fill="#F3BA2F"/>
<path d="M66.2667 24.7825H63.8709L59.207 17.173V24.7825H56.8112V13.2173H59.207L63.8789 20.8427V13.2173H66.2667V24.7825Z" fill="#F3BA2F"/>
<path d="M68.359 24.7825V13.2173H72.4319C73.8428 13.2173 74.9129 13.4874 75.6423 14.0275C76.3717 14.5623 76.7364 15.3487 76.7364 16.3866C76.7364 16.9532 76.59 17.4536 76.2971 17.8879C76.0043 18.3168 75.597 18.6319 75.0753 18.8331C75.6716 18.9814 76.1401 19.2806 76.4808 19.7307C76.8269 20.1808 76.9999 20.7315 76.9999 21.3828C76.9999 22.4949 76.6432 23.3369 75.9298 23.9088C75.2164 24.4807 74.1995 24.7719 72.8791 24.7825H68.359ZM70.7548 19.7465V22.8682H72.8072C73.3716 22.8682 73.8108 22.7358 74.1249 22.471C74.4444 22.201 74.6041 21.8303 74.6041 21.359C74.6041 20.2999 74.0531 19.7624 72.951 19.7465H70.7548ZM70.7548 18.0626H72.5277C73.7363 18.0414 74.3406 17.5622 74.3406 16.6249C74.3406 16.1006 74.1862 15.7247 73.8774 15.497C73.5739 15.264 73.0921 15.1475 72.4319 15.1475H70.7548V18.0626Z" fill="#F3BA2F"/>
</svg>
