<svg width="150" height="38" viewBox="0 0 150 38" fill="none" xmlns="http://www.w3.org/2000/svg">
<path d="M42.0323 18.91C42.0301 19.0415 41.976 19.1668 41.8819 19.2585C41.7877 19.3502 41.6612 19.4009 41.53 19.3994H32.2792C32.5164 21.6925 34.2326 23.7899 36.6604 23.7899C38.3208 23.7899 39.5486 23.1607 40.4695 21.8324C40.5124 21.7626 40.5717 21.7044 40.6423 21.663C40.7128 21.6215 40.7925 21.5981 40.8742 21.5947C40.9351 21.5929 40.9958 21.6037 41.0524 21.6262C41.1091 21.6488 41.1605 21.6827 41.2036 21.7259C41.2467 21.7691 41.2806 21.8207 41.3031 21.8775C41.3256 21.9342 41.3364 21.995 41.3346 22.0561C41.3349 22.1404 41.3107 22.223 41.2649 22.2938C40.33 23.9158 38.4743 24.7128 36.6604 24.7128C33.5489 24.7128 31.3164 21.9163 31.3164 18.9379C31.3164 15.9596 33.5349 13.1631 36.6604 13.1631C39.7858 13.1631 42.0183 15.9317 42.0323 18.91ZM41.0416 18.4765C40.8463 16.1834 39.0882 14.0859 36.6604 14.0859C34.2326 14.0859 32.5164 16.1834 32.2792 18.4765H41.0416Z" fill="#3B3B3B"/>
<path d="M53.2782 13.3866C53.3992 13.3901 53.5143 13.4399 53.5999 13.5256C53.6855 13.6114 53.7351 13.7268 53.7386 13.848C53.7404 13.9091 53.7297 13.9699 53.7071 14.0266C53.6846 14.0834 53.6507 14.135 53.6076 14.1782C53.5645 14.2214 53.5131 14.2553 53.4564 14.2779C53.3998 14.3004 53.3391 14.3112 53.2782 14.3095H50.7946V24.0834C50.7935 24.2054 50.7446 24.3221 50.6585 24.4084C50.5724 24.4947 50.4559 24.5437 50.3341 24.5448C50.2131 24.5413 50.098 24.4915 50.0124 24.4058C49.9268 24.32 49.8772 24.2046 49.8737 24.0834V14.3095H47.4877C47.4268 14.3112 47.3661 14.3004 47.3095 14.2779C47.2528 14.2553 47.2014 14.2214 47.1583 14.1782C47.1152 14.135 47.0813 14.0834 47.0588 14.0266C47.0363 13.9699 47.0255 13.9091 47.0273 13.848C47.0284 13.726 47.0772 13.6093 47.1633 13.523C47.2495 13.4367 47.3659 13.3877 47.4877 13.3866H49.8737V9.82101C49.8739 9.70286 49.9162 9.58867 49.9929 9.49897C50.0697 9.40926 50.1758 9.34992 50.2923 9.33162C50.3574 9.32295 50.4236 9.32847 50.4864 9.34781C50.5491 9.36714 50.607 9.39983 50.656 9.44364C50.705 9.48745 50.7441 9.54135 50.7704 9.60165C50.7967 9.66195 50.8097 9.72724 50.8085 9.79305V13.3866H53.2782Z" fill="#3B3B3B"/>
<path d="M68.4172 18.1131V24.0278C68.4137 24.149 68.364 24.2644 68.2784 24.3501C68.1928 24.4359 68.0777 24.4857 67.9567 24.4892C67.8958 24.4909 67.8351 24.4802 67.7785 24.4576C67.7218 24.435 67.6704 24.4011 67.6273 24.3579C67.5842 24.3147 67.5503 24.2631 67.5278 24.2064C67.5053 24.1496 67.4946 24.0888 67.4963 24.0278V18.1131C67.4963 16.1135 66.3661 14.128 64.1476 14.128C61.3012 14.128 60.0733 16.6169 60.2408 19.1758C60.2408 19.2457 60.2687 19.5393 60.2687 19.5813V24.0138C60.2684 24.1319 60.2261 24.2461 60.1494 24.3358C60.0727 24.4255 59.9665 24.4849 59.8501 24.5032C59.785 24.5118 59.7188 24.5063 59.656 24.487C59.5932 24.4676 59.5353 24.435 59.4863 24.3911C59.4373 24.3473 59.3983 24.2934 59.372 24.2331C59.3457 24.1728 59.3326 24.1075 59.3338 24.0417V4.5918C59.3349 4.46976 59.3838 4.35303 59.4699 4.26673C59.556 4.18043 59.6725 4.13147 59.7943 4.13037C59.9153 4.13389 60.0304 4.18363 60.116 4.26942C60.2016 4.3552 60.2512 4.47053 60.2547 4.5918V15.5822C61.05 14.156 62.4732 13.1912 64.1336 13.1912C66.8684 13.1912 68.4172 15.5822 68.4172 18.1131Z" fill="#3B3B3B"/>
<path d="M85.0352 18.91C85.033 19.0415 84.9789 19.1668 84.8848 19.2585C84.7907 19.3502 84.6642 19.4009 84.5329 19.3994H75.2821C75.5193 21.6925 77.2355 23.7899 79.6633 23.7899C81.3237 23.7899 82.5516 23.1607 83.4725 21.8324C83.5153 21.7626 83.5747 21.7044 83.6452 21.663C83.7158 21.6215 83.7954 21.5981 83.8771 21.5947C83.938 21.5929 83.9987 21.6037 84.0553 21.6262C84.112 21.6488 84.1634 21.6827 84.2066 21.7259C84.2497 21.7691 84.2835 21.8207 84.306 21.8775C84.3286 21.9342 84.3393 21.995 84.3376 22.0561C84.3379 22.1404 84.3136 22.223 84.2678 22.2938C83.3329 23.9158 81.4772 24.7128 79.6633 24.7128C76.5518 24.7128 74.3193 21.9163 74.3193 18.9379C74.3193 15.9596 76.5379 13.1631 79.6633 13.1631C82.7609 13.1631 85.0213 15.9317 85.0352 18.91ZM84.0306 18.4765C83.8352 16.1834 82.0772 14.0859 79.6494 14.0859C77.2215 14.0859 75.5053 16.1834 75.2681 18.4765H84.0306Z" fill="#3B3B3B"/>
<path d="M96.4067 13.8202C96.4156 13.9443 96.3751 14.0669 96.294 14.1612C96.213 14.2556 96.098 14.3139 95.9742 14.3236C93.2534 14.7291 92.0255 16.9523 92.0255 19.5391V23.9716C92.0253 24.0898 91.983 24.204 91.9063 24.2937C91.8295 24.3834 91.7234 24.4427 91.6069 24.461C91.5418 24.4697 91.4756 24.4642 91.4128 24.4448C91.35 24.4255 91.2922 24.3928 91.2431 24.349C91.1941 24.3052 91.1551 24.2513 91.1288 24.191C91.1025 24.1307 91.0895 24.0654 91.0906 23.9996V13.8901C91.0909 13.7719 91.1332 13.6578 91.2099 13.5681C91.2866 13.4783 91.3928 13.419 91.5092 13.4007C91.5743 13.392 91.6405 13.3976 91.7033 13.4169C91.7661 13.4362 91.824 13.4689 91.873 13.5127C91.922 13.5565 91.961 13.6104 91.9873 13.6707C92.0137 13.731 92.0267 13.7963 92.0255 13.8621V15.9176C92.7929 14.6172 94.3138 13.3867 95.9044 13.3867C96.1416 13.3867 96.4067 13.5545 96.4067 13.8202Z" fill="#3B3B3B"/>
<path d="M111.616 18.91C111.613 19.0415 111.559 19.1668 111.465 19.2585C111.371 19.3502 111.244 19.4009 111.113 19.3994H101.862C102.1 21.6925 103.816 23.7899 106.244 23.7899C107.904 23.7899 109.132 23.1607 110.053 21.8324C110.096 21.7626 110.155 21.7044 110.226 21.663C110.296 21.6215 110.376 21.5981 110.457 21.5947C110.518 21.5929 110.579 21.6037 110.636 21.6262C110.692 21.6488 110.744 21.6827 110.787 21.7259C110.83 21.7691 110.864 21.8207 110.886 21.8775C110.909 21.9342 110.92 21.995 110.918 22.0561C110.918 22.1404 110.894 22.223 110.848 22.2938C109.913 23.9158 108.058 24.7128 106.244 24.7128C103.132 24.7128 100.9 21.9163 100.9 18.9379C100.9 15.9596 103.118 13.1631 106.244 13.1631C109.369 13.1631 111.602 15.9317 111.616 18.91ZM110.625 18.4765C110.43 16.1834 108.671 14.0859 106.244 14.0859C103.816 14.0859 102.1 16.1834 101.862 18.4765H110.625Z" fill="#3B3B3B"/>
<path d="M126.573 13.9318V24.0832C126.569 24.2045 126.52 24.3198 126.434 24.4056C126.349 24.4914 126.234 24.5412 126.113 24.5447C126.052 24.5464 125.991 24.5357 125.934 24.5131C125.878 24.4905 125.826 24.4566 125.783 24.4134C125.74 24.3702 125.706 24.3186 125.684 24.2619C125.661 24.2051 125.65 24.1443 125.652 24.0832V22.1536C124.885 23.6777 123.531 24.7824 121.801 24.7824C119.052 24.7824 117.531 22.3913 117.531 19.8605V13.9178C117.533 13.7958 117.581 13.6791 117.668 13.5928C117.754 13.5065 117.87 13.4575 117.992 13.4564C118.113 13.4599 118.228 13.5097 118.314 13.5954C118.399 13.6812 118.449 13.7966 118.452 13.9178V19.8605C118.452 21.86 119.583 23.8455 121.801 23.8455C124.913 23.8455 125.652 20.9232 125.652 17.6932V13.9038C125.653 13.829 125.672 13.7556 125.707 13.6896C125.742 13.6236 125.793 13.567 125.854 13.5246C125.916 13.4821 125.987 13.4551 126.061 13.4456C126.135 13.4362 126.21 13.4447 126.28 13.4704C126.368 13.5112 126.442 13.5764 126.494 13.6582C126.546 13.7399 126.573 13.8349 126.573 13.9318Z" fill="#3B3B3B"/>
<path d="M150 18.0709V24.0135C149.997 24.1348 149.947 24.2501 149.861 24.3359C149.776 24.4217 149.661 24.4714 149.54 24.475C149.479 24.4767 149.418 24.4659 149.362 24.4434C149.305 24.4208 149.253 24.3869 149.21 24.3437C149.167 24.3005 149.133 24.2489 149.111 24.1921C149.088 24.1354 149.078 24.0746 149.079 24.0135V18.0709C149.079 16.0714 147.949 14.1138 145.731 14.1138C142.94 14.1138 141.88 17.1061 141.88 19.4272V24.0135C141.876 24.1348 141.826 24.2501 141.741 24.3359C141.655 24.4217 141.54 24.4714 141.419 24.475C141.358 24.4767 141.298 24.4659 141.241 24.4434C141.184 24.4208 141.133 24.3869 141.09 24.3437C141.047 24.3005 141.013 24.2489 140.99 24.1921C140.968 24.1354 140.957 24.0746 140.959 24.0135V18.0709C140.959 16.0714 139.828 14.1138 137.61 14.1138C134.791 14.1138 133.633 16.337 133.731 19.3014C133.731 19.3713 133.759 19.4971 133.731 19.5391V23.9995C133.731 24.1177 133.689 24.2319 133.612 24.3216C133.535 24.4113 133.429 24.4706 133.312 24.4889C133.247 24.4976 133.181 24.4921 133.118 24.4727C133.056 24.4534 132.998 24.4207 132.949 24.3769C132.9 24.3331 132.861 24.2792 132.834 24.2189C132.808 24.1586 132.795 24.0933 132.796 24.0275V13.8901C132.796 13.7719 132.839 13.6577 132.915 13.568C132.992 13.4783 133.098 13.419 133.215 13.4007C133.28 13.392 133.346 13.3975 133.409 13.4168C133.472 13.4362 133.53 13.4689 133.579 13.5127C133.628 13.5565 133.667 13.6104 133.693 13.6707C133.719 13.731 133.732 13.7963 133.731 13.8621V15.554C134.526 14.1278 135.95 13.1909 137.61 13.1909C139.494 13.1909 140.959 14.3934 141.559 16.1413C142.326 14.4074 143.819 13.1909 145.731 13.1909C148.451 13.1909 150 15.554 150 18.0709Z" fill="#3B3B3B"/>
<path opacity="0.6" d="M11.4931 14.0571L0 19.3513L11.4931 26.2463L23 19.3513L11.4931 14.0571Z" fill="black"/>
<path opacity="0.45" d="M0 19.3511L11.4931 26.2461V0L0 19.3511Z" fill="black"/>
<path opacity="0.8" d="M11.4932 0V26.2461L23.0001 19.3511L11.4932 0Z" fill="black"/>
<path opacity="0.45" d="M0 21.5696L11.4931 37.9997V28.4506L0 21.5696Z" fill="black"/>
<path opacity="0.8" d="M11.4932 28.4506V37.9997L23.0001 21.5696L11.4932 28.4506Z" fill="black"/>
</svg>
