<svg width="125" height="27" viewBox="0 0 125 27" fill="none" xmlns="http://www.w3.org/2000/svg">
<path fill-rule="evenodd" clip-rule="evenodd" d="M8.48257 0H9.66718C9.97657 0 10.1321 0.197621 10.1321 0.592864V3.06148H17.0925C17.4019 3.06148 17.5558 3.28216 17.5558 3.72022V6.45398C17.5558 6.89369 17.4019 7.11272 17.0925 7.11272H10.1321V11.4587H14.179C15.5539 11.4587 16.5631 11.882 17.2083 12.7252C17.8519 13.5716 18.1746 14.8496 18.1746 16.5623V18.6027C18.1746 22.0496 16.8344 23.7722 14.1525 23.7722H10.1321V26.4071C10.1321 26.8024 9.97657 27 9.66718 27H8.48257C8.17318 27 8.01766 26.8024 8.01766 26.4071V23.7722H0.489729C0.163795 23.7722 0 23.5532 0 23.1134V20.3813C0 19.9416 0.163795 19.7226 0.489729 19.7226H8.01766V14.8496H4.02206C1.34179 14.8496 0 13.1698 0 9.81189V8.19799C0 4.7742 1.34179 3.06148 4.02206 3.06148H8.01766V0.592864C8.01766 0.197621 8.17318 0 8.48257 0ZM3.68786 9.77896C3.68786 10.8988 4.14284 11.4587 5.05281 11.4587H8.01766V7.11272H5.05281C4.14284 7.11272 3.68786 7.70393 3.68786 8.88966V9.77896ZM13.1482 14.8496H10.1321V19.7226H13.1482C14.0582 19.7226 14.5148 19.1199 14.5148 17.9111V16.6282C14.5148 15.4425 14.0582 14.8496 13.1482 14.8496ZM44.4693 1.97593H47.2522C47.6311 1.97593 47.8197 2.21637 47.8197 2.6989V24.2989C47.8197 24.7814 47.6311 25.0235 47.2522 25.0235H44.4693C44.0739 25.0235 43.8754 24.7814 43.8754 24.2989V2.6989C43.8754 2.21637 44.0739 1.97593 44.4693 1.97593ZM69.8857 1.97593H58.2596C55.6472 1.97593 53.7925 2.63302 52.6923 3.9505C51.592 5.26797 51.0427 7.50768 51.0427 10.668V16.3315C51.0427 19.4918 51.592 21.7315 52.6923 23.0473C53.7925 24.3648 55.6472 25.0235 58.2596 25.0235H69.8857C70.2646 25.0235 70.4532 24.7814 70.4532 24.2989V21.0727C70.4532 20.5902 70.2646 20.3481 69.8857 20.3481H58.4151C57.0915 20.3481 56.1898 20.0352 55.7084 19.4094C55.2269 18.7836 54.987 17.593 54.987 15.8374V11.162C54.987 9.4279 55.2269 8.24711 55.7084 7.62131C56.1898 6.99716 57.0915 6.68426 58.4151 6.68426H69.8857C70.2646 6.68426 70.4532 6.43229 70.4532 5.92671V2.6989C70.4532 2.21637 70.2646 1.97593 69.8857 1.97593ZM75.5324 1.97593H77.8007C78.6247 1.97593 79.2054 2.08462 79.5413 2.3053C79.8755 2.52433 80.2924 3.0612 80.7904 3.91756L90.3798 19.9858C90.4493 20.139 90.5602 20.2164 90.7157 20.2164H90.9473C91.0846 20.2164 91.1541 20.106 91.1541 19.887V2.6989C91.1541 2.21637 91.3427 1.97593 91.7216 1.97593H94.4284C94.8056 1.97593 94.9942 2.21637 94.9942 2.6989V21.5997C94.9942 22.8941 94.8139 23.7884 94.4532 24.2824C94.0925 24.7765 93.5002 25.0235 92.6746 25.0235H90.4576C89.6667 25.0235 89.0992 24.9132 88.7568 24.6941C88.4126 24.4751 87.9825 23.9366 87.4679 23.0802L77.852 7.01363C77.7494 6.86047 77.6369 6.78307 77.5162 6.78307H77.2845C77.1472 6.78307 77.0794 6.89341 77.0794 7.11244V24.2989C77.0794 24.7814 76.8891 25.0235 76.5119 25.0235H73.8051C73.4097 25.0235 73.2112 24.7814 73.2112 24.2989V5.39972C73.2112 4.1053 73.3915 3.20942 73.7539 2.71537C74.1145 2.22296 74.7068 1.97593 75.5324 1.97593ZM101.799 1.97593H99.0162C98.6208 1.97593 98.4222 2.21637 98.4222 2.6989V24.2989C98.4222 24.7814 98.6208 25.0235 99.0162 25.0235H101.799C102.178 25.0235 102.367 24.7814 102.367 24.2989V2.6989C102.367 2.21637 102.178 1.97593 101.799 1.97593ZM112.806 1.97593H124.433C124.811 1.97593 125 2.21637 125 2.6989V5.92671C125 6.43229 124.811 6.68426 124.433 6.68426H112.962C111.638 6.68426 110.737 6.99716 110.255 7.62131C109.774 8.24711 109.534 9.4279 109.534 11.162V15.8374C109.534 17.593 109.774 18.7836 110.255 19.4094C110.737 20.0352 111.638 20.3481 112.962 20.3481H124.433C124.811 20.3481 125 20.5902 125 21.0727V24.2989C125 24.7814 124.811 25.0235 124.433 25.0235H112.806C110.194 25.0235 108.339 24.3648 107.239 23.0473C106.139 21.7315 105.59 19.4918 105.59 16.3315V10.668C105.59 7.50768 106.139 5.26797 107.239 3.9505C108.339 2.63302 110.194 1.97593 112.806 1.97593ZM35.7816 1.97593C37.724 1.97593 39.1319 2.53586 40.0088 3.65407C40.8857 4.77392 41.3241 6.47511 41.3241 8.75764V11.195C41.3241 13.4775 40.8857 15.1787 40.0088 16.2985C39.1319 17.4184 37.724 17.9767 35.7816 17.9767H25.1085V24.2989C25.1085 24.7814 24.9199 25.0235 24.541 25.0235H21.7581C21.3627 25.0235 21.1642 24.7814 21.1642 24.2989V13.6245H25.1085V13.6306H34.9825C35.8412 13.6306 36.455 13.3951 36.8256 12.9225C37.1945 12.4515 37.3798 11.7104 37.3798 10.7009V9.44931C37.3798 8.43979 37.1945 7.69871 36.8256 7.22772C36.455 6.75507 35.8412 6.51957 34.9825 6.51957H25.4443C25.4417 6.51957 25.4408 6.52204 25.4381 6.52204H21.1642V2.96239C21.1642 2.3053 21.4223 1.97593 21.9385 1.97593H35.7816Z" fill="black"/>
</svg>
