<svg width="125" height="38" viewBox="0 0 125 38" fill="none" xmlns="http://www.w3.org/2000/svg">
<path fill-rule="evenodd" clip-rule="evenodd" d="M67.8988 12.3914H68.4794C68.631 12.3914 68.7072 12.4881 68.7072 12.6816V13.8901H72.1183C72.2699 13.8901 72.3453 13.9981 72.3453 14.2125V15.5508C72.3453 15.766 72.2699 15.8733 72.1183 15.8733H68.7072V18.0008H70.6905C71.3642 18.0008 71.8588 18.208 72.175 18.6207C72.4905 19.0351 72.6486 19.6607 72.6486 20.4992V21.498C72.6486 23.1854 71.9918 24.0286 70.6775 24.0286H68.7072V25.3185C68.7072 25.512 68.631 25.6087 68.4794 25.6087H67.8988C67.7472 25.6087 67.671 25.512 67.671 25.3185V24.0286H63.9818C63.8221 24.0286 63.7418 23.9214 63.7418 23.7062V22.3687C63.7418 22.1534 63.8221 22.0462 63.9818 22.0462H67.671V19.6607H65.7129C64.3994 19.6607 63.7418 18.8384 63.7418 17.1946V16.4045C63.7418 14.7285 64.3994 13.8901 65.7129 13.8901H67.671V12.6816C67.671 12.4881 67.7472 12.3914 67.8988 12.3914ZM65.5491 17.1785C65.5491 17.7267 65.7721 18.0008 66.218 18.0008H67.671V15.8733H66.218C65.7721 15.8733 65.5491 16.1627 65.5491 16.7431V17.1785ZM70.1853 19.6607H68.7072V22.0462H70.1853C70.6313 22.0462 70.8551 21.7512 70.8551 21.1594V20.5314C70.8551 19.9509 70.6313 19.6607 70.1853 19.6607ZM85.5346 13.3586H86.8984C87.0841 13.3586 87.1765 13.4763 87.1765 13.7126V24.2865C87.1765 24.5227 87.0841 24.6412 86.8984 24.6412H85.5346C85.3408 24.6412 85.2435 24.5227 85.2435 24.2865V13.7126C85.2435 13.4763 85.3408 13.3586 85.5346 13.3586ZM97.9903 13.3586H92.2927C91.0125 13.3586 90.1035 13.6803 89.5644 14.3253C89.0252 14.9702 88.756 16.0666 88.756 17.6137V20.3862C88.756 21.9332 89.0252 23.0296 89.5644 23.6738C90.1035 24.3187 91.0125 24.6412 92.2927 24.6412H97.9903C98.176 24.6412 98.2684 24.5227 98.2684 24.2865V22.7072C98.2684 22.4709 98.176 22.3524 97.9903 22.3524H92.3689C91.7203 22.3524 91.2784 22.1993 91.0425 21.8929C90.8065 21.5866 90.6889 21.0037 90.6889 20.1443V17.8555C90.6889 17.0066 90.8065 16.4286 91.0425 16.1222C91.2784 15.8167 91.7203 15.6635 92.3689 15.6635H97.9903C98.176 15.6635 98.2684 15.5402 98.2684 15.2927V13.7126C98.2684 13.4763 98.176 13.3586 97.9903 13.3586ZM100.758 13.3586H101.869C102.273 13.3586 102.558 13.4119 102.722 13.5199C102.886 13.6271 103.09 13.8899 103.334 14.3091L108.034 22.1751C108.068 22.25 108.122 22.2879 108.198 22.2879H108.312C108.379 22.2879 108.413 22.2339 108.413 22.1267V13.7126C108.413 13.4763 108.506 13.3586 108.691 13.3586H110.018C110.203 13.3586 110.295 13.4763 110.295 13.7126V22.9651C110.295 23.5988 110.207 24.0366 110.03 24.2784C109.853 24.5203 109.563 24.6412 109.158 24.6412H108.072C107.684 24.6412 107.406 24.5872 107.238 24.48C107.07 24.3727 106.859 24.1091 106.607 23.6899L101.894 15.8248C101.844 15.7498 101.789 15.7119 101.73 15.7119H101.616C101.549 15.7119 101.516 15.7659 101.516 15.8731V24.2865C101.516 24.5227 101.423 24.6412 101.238 24.6412H99.9112C99.7174 24.6412 99.6201 24.5227 99.6201 24.2865V15.0347C99.6201 14.401 99.7085 13.9625 99.8861 13.7206C100.063 13.4796 100.353 13.3586 100.758 13.3586ZM113.63 13.3586H112.266C112.072 13.3586 111.975 13.4763 111.975 13.7126V24.2865C111.975 24.5227 112.072 24.6412 112.266 24.6412H113.63C113.816 24.6412 113.908 24.5227 113.908 24.2865V13.7126C113.908 13.4763 113.816 13.3586 113.63 13.3586ZM119.024 13.3586H124.722C124.908 13.3586 125 13.4763 125 13.7126V15.2927C125 15.5402 124.908 15.6635 124.722 15.6635H119.101C118.452 15.6635 118.01 15.8167 117.774 16.1222C117.538 16.4286 117.421 17.0066 117.421 17.8555V20.1443C117.421 21.0037 117.538 21.5866 117.774 21.8929C118.01 22.1993 118.452 22.3524 119.101 22.3524H124.722C124.908 22.3524 125 22.4709 125 22.7072V24.2865C125 24.5227 124.908 24.6412 124.722 24.6412H119.024C117.744 24.6412 116.835 24.3187 116.296 23.6738C115.757 23.0296 115.488 21.9332 115.488 20.3862V17.6137C115.488 16.0666 115.757 14.9702 116.296 14.3253C116.835 13.6803 117.744 13.3586 119.024 13.3586ZM81.2769 13.3586C82.2288 13.3586 82.9188 13.6327 83.3485 14.1801C83.7783 14.7283 83.9931 15.5611 83.9931 16.6785V17.8717C83.9931 18.989 83.7783 19.8218 83.3485 20.37C82.9188 20.9182 82.2288 21.1915 81.2769 21.1915H76.0464V24.2865C76.0464 24.5227 75.9539 24.6412 75.7683 24.6412H74.4045C74.2107 24.6412 74.1134 24.5227 74.1134 24.2865V19.061H76.0464V19.064H80.8853C81.3061 19.064 81.6069 18.9487 81.7885 18.7174C81.9693 18.4868 82.0601 18.124 82.0601 17.6298V17.0171C82.0601 16.5229 81.9693 16.1601 81.7885 15.9296C81.6069 15.6982 81.3061 15.5829 80.8853 15.5829H76.211C76.2103 15.5829 76.2099 15.5832 76.2094 15.5835C76.209 15.5838 76.2086 15.5841 76.2079 15.5841H74.1134V13.8415C74.1134 13.5199 74.2399 13.3586 74.4929 13.3586H81.2769Z" fill="#FCE38F"/>
<path fill-rule="evenodd" clip-rule="evenodd" d="M54.5451 24.9813H42.628C42.5544 24.9818 42.482 24.9993 42.4163 25.0324C42.3507 25.0655 42.2935 25.1133 42.2493 25.1721C42.2052 25.2308 42.1751 25.299 42.1616 25.3713C42.1481 25.4436 42.1514 25.518 42.1713 25.5888L45.8353 37.8865H39.6797L36.3029 25.3351C36.2758 25.2336 36.216 25.1439 36.1327 25.0799C36.0494 25.0159 35.9473 24.9812 35.8422 24.9813H29.4036L32.0915 27.6705L30.2221 29.5398L27.4181 26.7358L26.0428 28.1111C25.295 28.8588 24.6541 29.4731 24.6141 29.4731C24.574 29.4731 24.1334 29.0725 23.6393 28.5651L22.7447 27.6705L25.4379 24.9879H18.9846C18.8796 24.9879 18.7775 25.0226 18.6942 25.0866C18.6109 25.1506 18.551 25.2403 18.524 25.3418L15.1458 37.8932H8.9916L12.6542 25.5955C12.6754 25.5242 12.6797 25.4489 12.6666 25.3756C12.6536 25.3024 12.6237 25.2332 12.5792 25.1735C12.5347 25.1139 12.477 25.0655 12.4105 25.0321C12.344 24.9987 12.2706 24.9813 12.1962 24.9813H0V20.1263C0 19.537 0.234088 18.9719 0.650768 18.5552C1.06745 18.1385 1.63259 17.9044 2.22186 17.9044H14.5823C14.6849 17.9044 14.7848 17.8712 14.8671 17.8099C14.9494 17.7485 15.0096 17.6623 15.039 17.5639L17.9378 7.83527C17.9587 7.76436 17.9628 7.68958 17.9499 7.61681C17.9369 7.54403 17.9073 7.47525 17.8633 7.41586C17.8193 7.35646 17.7622 7.30808 17.6963 7.27451C17.6305 7.24094 17.5577 7.2231 17.4838 7.22239H7.21037V3.01233C7.21037 2.21341 7.52774 1.44721 8.09266 0.882292C8.65758 0.31737 9.42378 0 10.2227 0H44.4493C45.2482 0 46.0144 0.31737 46.5793 0.882292C47.1442 1.44721 47.4616 2.21341 47.4616 3.01233V7.22239H37.3377C37.2635 7.22248 37.1902 7.23987 37.1239 7.27318C37.0575 7.30648 36.9998 7.35479 36.9554 7.41426C36.9109 7.47374 36.881 7.54275 36.8678 7.61583C36.8547 7.68891 36.8588 7.76404 36.8797 7.83527L39.7799 17.5639C39.8092 17.6623 39.8695 17.7485 39.9518 17.8099C40.034 17.8712 40.1339 17.9044 40.2365 17.9044H52.3219C52.9113 17.9044 53.4766 18.1385 53.8935 18.5551C54.3104 18.9717 54.5448 19.5369 54.5451 20.1263V24.9813ZM21.1424 17.9044H33.6818C33.7552 17.9049 33.8278 17.8884 33.8938 17.8562C33.9598 17.824 34.0175 17.777 34.0624 17.7188C34.1072 17.6607 34.138 17.5929 34.1524 17.5209C34.1667 17.4488 34.1642 17.3745 34.1451 17.3036L31.528 7.57623C31.5009 7.47474 31.4411 7.38503 31.3578 7.32104C31.2745 7.25705 31.1724 7.22237 31.0673 7.22239H23.7595C23.6545 7.22237 23.5524 7.25705 23.4691 7.32104C23.3857 7.38503 23.3259 7.47474 23.2988 7.57623L20.6817 17.3036C20.6627 17.3743 20.6601 17.4484 20.6743 17.5202C20.6886 17.5921 20.7191 17.6597 20.7637 17.7178C20.8082 17.7759 20.8656 17.8229 20.9312 17.8553C20.9969 17.8877 21.0692 17.9045 21.1424 17.9044ZM20.1143 30.5359L21.0089 29.6279C21.5029 29.1205 21.9436 28.72 21.9836 28.72C22.0237 28.72 22.451 29.1072 22.9183 29.5879L23.7729 30.4558L21.9302 32.3252L20.1143 30.5359ZM26.4433 29.6279L25.5487 30.5359L26.4834 31.4572L27.4181 32.3786L28.3527 31.4572L29.2874 30.5359L28.3928 29.6279C27.8988 29.1205 27.4581 28.72 27.4181 28.72C27.378 28.72 26.9374 29.1205 26.4433 29.6279ZM32.0514 29.6279L31.1567 30.5359L32.9727 32.3252L34.8153 30.4558L33.9608 29.5879C33.4934 29.1072 33.0662 28.72 33.0261 28.72C32.986 28.72 32.5454 29.1205 32.0514 29.6279ZM23.6394 32.432L22.7448 33.3266L27.4181 38L32.0915 33.3266L30.2222 31.4573L27.4181 34.2613L26.0428 32.886C25.2951 32.1383 24.6408 31.524 24.6141 31.524C24.5874 31.524 24.1334 31.9246 23.6394 32.432Z" fill="#FCE38F"/>
</svg>
