<svg width="1110" height="464" viewBox="0 0 1110 464" fill="none" xmlns="http://www.w3.org/2000/svg">
<path d="M418.013 34.9395V47H409.443V11.4531H423.628C426.346 11.4531 428.747 11.9577 430.83 12.9668C432.93 13.9596 434.549 15.3838 435.688 17.2393C436.844 19.0785 437.422 21.1699 437.422 23.5137C437.422 26.9805 436.177 29.7555 433.687 31.8389C431.213 33.9059 427.811 34.9395 423.481 34.9395H418.013ZM418.013 28.3232H423.628C425.288 28.3232 426.549 27.9082 427.412 27.0781C428.291 26.248 428.73 25.0762 428.73 23.5625C428.73 21.9023 428.283 20.5758 427.388 19.583C426.493 18.5902 425.272 18.0856 423.726 18.0693H418.013V28.3232ZM451.143 47H442.598V11.4531H451.143V47ZM485.859 34.9639C485.745 37.4378 485.078 39.627 483.857 41.5312C482.637 43.4193 480.92 44.8841 478.706 45.9258C476.509 46.9674 473.994 47.4883 471.162 47.4883C466.491 47.4883 462.812 45.9665 460.127 42.9229C457.441 39.8792 456.099 35.5824 456.099 30.0322V28.2744C456.099 24.7913 456.701 21.7477 457.905 19.1436C459.126 16.5231 460.876 14.5049 463.154 13.0889C465.433 11.6566 468.07 10.9404 471.064 10.9404C475.378 10.9404 478.844 12.0798 481.465 14.3584C484.085 16.6208 485.575 19.7458 485.933 23.7334H477.388C477.323 21.5687 476.777 20.0143 475.752 19.0703C474.727 18.1263 473.164 17.6543 471.064 17.6543C468.932 17.6543 467.37 18.4518 466.377 20.0469C465.384 21.6419 464.863 24.1891 464.814 27.6885V30.2031C464.814 33.9954 465.286 36.7054 466.23 38.333C467.191 39.9606 468.835 40.7744 471.162 40.7744C473.132 40.7744 474.637 40.3105 475.679 39.3828C476.72 38.4551 477.274 36.9821 477.339 34.9639H485.859ZM519.6 47H511.079L498.481 24.8809V47H489.912V11.4531H498.481L511.055 33.5723V11.4531H519.6V47ZM534.15 47H525.605V11.4531H534.15V47ZM568.867 34.9639C568.753 37.4378 568.086 39.627 566.865 41.5312C565.645 43.4193 563.927 44.8841 561.714 45.9258C559.517 46.9674 557.002 47.4883 554.17 47.4883C549.499 47.4883 545.82 45.9665 543.135 42.9229C540.449 39.8792 539.106 35.5824 539.106 30.0322V28.2744C539.106 24.7913 539.709 21.7477 540.913 19.1436C542.134 16.5231 543.883 14.5049 546.162 13.0889C548.441 11.6566 551.077 10.9404 554.072 10.9404C558.385 10.9404 561.852 12.0798 564.473 14.3584C567.093 16.6208 568.582 19.7458 568.94 23.7334H560.396C560.33 21.5687 559.785 20.0143 558.76 19.0703C557.734 18.1263 556.172 17.6543 554.072 17.6543C551.94 17.6543 550.378 18.4518 549.385 20.0469C548.392 21.6419 547.871 24.1891 547.822 27.6885V30.2031C547.822 33.9954 548.294 36.7054 549.238 38.333C550.199 39.9606 551.842 40.7744 554.17 40.7744C556.139 40.7744 557.645 40.3105 558.687 39.3828C559.728 38.4551 560.282 36.9821 560.347 34.9639H568.867ZM611.812 18.0693H601.143V47H592.573V18.0693H582.1V11.4531H611.812V18.0693ZM608.955 33.5479C608.955 30.9111 609.468 28.5674 610.493 26.5166C611.519 24.4495 612.992 22.8626 614.912 21.7559C616.833 20.6491 619.087 20.0957 621.675 20.0957C625.63 20.0957 628.747 21.3245 631.025 23.7822C633.304 26.2236 634.443 29.5521 634.443 33.7676V34.0605C634.443 38.1784 633.296 41.4499 631.001 43.875C628.722 46.2839 625.63 47.4883 621.724 47.4883C617.964 47.4883 614.945 46.3652 612.666 44.1191C610.387 41.8568 609.159 38.7969 608.979 34.9395L608.955 33.5479ZM617.183 34.0605C617.183 36.502 617.565 38.2923 618.33 39.4316C619.095 40.571 620.226 41.1406 621.724 41.1406C624.653 41.1406 626.151 38.8864 626.216 34.3779V33.5479C626.216 28.8115 624.702 26.4434 621.675 26.4434C618.924 26.4434 617.435 28.486 617.207 32.5713L617.183 34.0605ZM637.031 33.5479C637.031 30.9111 637.544 28.5674 638.569 26.5166C639.595 24.4495 641.068 22.8626 642.988 21.7559C644.909 20.6491 647.163 20.0957 649.751 20.0957C653.706 20.0957 656.823 21.3245 659.102 23.7822C661.38 26.2236 662.52 29.5521 662.52 33.7676V34.0605C662.52 38.1784 661.372 41.4499 659.077 43.875C656.799 46.2839 653.706 47.4883 649.8 47.4883C646.04 47.4883 643.021 46.3652 640.742 44.1191C638.464 41.8568 637.235 38.7969 637.056 34.9395L637.031 33.5479ZM645.259 34.0605C645.259 36.502 645.641 38.2923 646.406 39.4316C647.171 40.571 648.302 41.1406 649.8 41.1406C652.729 41.1406 654.227 38.8864 654.292 34.3779V33.5479C654.292 28.8115 652.778 26.4434 649.751 26.4434C647 26.4434 645.511 28.486 645.283 32.5713L645.259 34.0605ZM674.824 47H666.572V9.5H674.824V47ZM693.745 39.5781C693.745 38.8783 693.379 38.3167 692.646 37.8936C691.914 37.4704 690.522 37.0309 688.472 36.5752C686.421 36.1195 684.728 35.5254 683.394 34.793C682.059 34.0443 681.042 33.141 680.342 32.083C679.642 31.0251 679.292 29.8125 679.292 28.4453C679.292 26.0202 680.293 24.0264 682.295 22.4639C684.297 20.8851 686.917 20.0957 690.156 20.0957C693.639 20.0957 696.439 20.8851 698.555 22.4639C700.671 24.0426 701.729 26.1178 701.729 28.6895H693.477C693.477 26.5736 692.362 25.5156 690.132 25.5156C689.269 25.5156 688.545 25.7598 687.959 26.248C687.373 26.7201 687.08 27.3141 687.08 28.0303C687.08 28.7627 687.438 29.3568 688.154 29.8125C688.87 30.2682 690.01 30.6426 691.572 30.9355C693.151 31.2285 694.535 31.5785 695.723 31.9854C699.694 33.3525 701.68 35.8021 701.68 39.334C701.68 41.7428 700.605 43.7041 698.457 45.2178C696.325 46.7314 693.558 47.4883 690.156 47.4883C687.894 47.4883 685.876 47.0814 684.102 46.2676C682.327 45.4538 680.944 44.347 679.951 42.9473C678.958 41.5475 678.462 40.0745 678.462 38.5283H686.152C686.185 39.749 686.592 40.6442 687.373 41.2139C688.154 41.7673 689.155 42.0439 690.376 42.0439C691.499 42.0439 692.337 41.8161 692.891 41.3604C693.46 40.9046 693.745 40.3105 693.745 39.5781Z" fill="#53C48A"/>
<path d="M384.15 106V85.2969H380.317V79.584H384.15V77.4844C384.15 74.4733 385.037 72.1377 386.812 70.4775C388.586 68.8174 391.076 67.9873 394.282 67.9873C395.454 67.9873 396.74 68.1582 398.14 68.5L398.164 74.5547C397.66 74.4082 396.984 74.335 396.138 74.335C393.647 74.335 392.402 75.4092 392.402 77.5576V79.584H397.554V85.2969H392.402V106H384.15ZM399.409 92.5479C399.409 89.9111 399.922 87.5674 400.947 85.5166C401.973 83.4495 403.446 81.8626 405.366 80.7559C407.287 79.6491 409.541 79.0957 412.129 79.0957C416.084 79.0957 419.201 80.3245 421.479 82.7822C423.758 85.2236 424.897 88.5521 424.897 92.7676V93.0605C424.897 97.1784 423.75 100.45 421.455 102.875C419.176 105.284 416.084 106.488 412.178 106.488C408.418 106.488 405.399 105.365 403.12 103.119C400.841 100.857 399.613 97.7969 399.434 93.9395L399.409 92.5479ZM407.637 93.0605C407.637 95.502 408.019 97.2923 408.784 98.4316C409.549 99.571 410.68 100.141 412.178 100.141C415.107 100.141 416.605 97.8864 416.67 93.3779V92.5479C416.67 87.8115 415.156 85.4434 412.129 85.4434C409.378 85.4434 407.889 87.486 407.661 91.5713L407.637 93.0605ZM444.502 87.0303L441.792 86.835C439.204 86.835 437.544 87.6488 436.812 89.2764V106H428.584V79.584H436.299L436.567 82.9775C437.951 80.3896 439.88 79.0957 442.354 79.0957C443.232 79.0957 443.997 79.1934 444.648 79.3887L444.502 87.0303ZM486.738 77.0693H476.069V106H467.5V77.0693H457.026V70.4531H486.738V77.0693ZM483.882 92.5479C483.882 89.9111 484.395 87.5674 485.42 85.5166C486.445 83.4495 487.918 81.8626 489.839 80.7559C491.759 79.6491 494.014 79.0957 496.602 79.0957C500.557 79.0957 503.674 80.3245 505.952 82.7822C508.231 85.2236 509.37 88.5521 509.37 92.7676V93.0605C509.37 97.1784 508.223 100.45 505.928 102.875C503.649 105.284 500.557 106.488 496.65 106.488C492.891 106.488 489.871 105.365 487.593 103.119C485.314 100.857 484.085 97.7969 483.906 93.9395L483.882 92.5479ZM492.109 93.0605C492.109 95.502 492.492 97.2923 493.257 98.4316C494.022 99.571 495.153 100.141 496.65 100.141C499.58 100.141 501.077 97.8864 501.143 93.3779V92.5479C501.143 87.8115 499.629 85.4434 496.602 85.4434C493.851 85.4434 492.362 87.486 492.134 91.5713L492.109 93.0605ZM523.604 96.1611L521.284 98.4805V106H513.057V68.4756H521.284V88.3975L522.114 87.2988L528.315 79.584H538.179L528.926 90.4482L538.789 106H529.365L523.604 96.1611ZM552.632 106.488C548.579 106.488 545.299 105.284 542.793 102.875C540.286 100.45 539.033 97.3005 539.033 93.4268V92.7432C539.033 90.0413 539.53 87.6569 540.522 85.5898C541.532 83.5228 542.996 81.9277 544.917 80.8047C546.838 79.6654 549.116 79.0957 551.753 79.0957C555.464 79.0957 558.394 80.2513 560.542 82.5625C562.69 84.8574 563.765 88.0638 563.765 92.1816V95.3799H547.407C547.7 96.861 548.343 98.0247 549.336 98.8711C550.329 99.7174 551.615 100.141 553.193 100.141C555.798 100.141 557.832 99.2292 559.297 97.4062L563.057 101.85C562.031 103.266 560.575 104.397 558.687 105.243C556.815 106.073 554.797 106.488 552.632 106.488ZM551.704 85.4434C549.295 85.4434 547.863 87.0384 547.407 90.2285H555.708V89.5938C555.741 88.2754 555.407 87.2581 554.707 86.542C554.007 85.8096 553.006 85.4434 551.704 85.4434ZM574.653 79.584L574.922 82.6846C576.745 80.292 579.259 79.0957 582.466 79.0957C585.216 79.0957 587.267 79.9176 588.618 81.5615C589.985 83.2054 590.693 85.6794 590.742 88.9834V106H582.49V89.3252C582.49 87.9906 582.222 87.014 581.685 86.3955C581.147 85.7607 580.171 85.4434 578.755 85.4434C577.144 85.4434 575.947 86.0781 575.166 87.3477V106H566.938V79.584H574.653ZM626.484 96.5518C626.484 95.2985 626.037 94.3219 625.142 93.6221C624.263 92.9222 622.708 92.1979 620.479 91.4492C618.249 90.7005 616.426 89.9762 615.01 89.2764C610.404 87.014 608.101 83.9053 608.101 79.9502C608.101 77.9808 608.67 76.2474 609.81 74.75C610.965 73.2363 612.593 72.0645 614.692 71.2344C616.792 70.388 619.152 69.9648 621.772 69.9648C624.328 69.9648 626.615 70.4206 628.633 71.332C630.667 72.2435 632.246 73.5456 633.369 75.2383C634.492 76.9147 635.054 78.8353 635.054 81H626.509C626.509 79.5514 626.061 78.4284 625.166 77.6309C624.287 76.8333 623.091 76.4346 621.577 76.4346C620.047 76.4346 618.835 76.7764 617.939 77.46C617.061 78.1273 616.621 78.9818 616.621 80.0234C616.621 80.9349 617.109 81.765 618.086 82.5137C619.062 83.2461 620.78 84.0111 623.237 84.8086C625.695 85.5898 627.713 86.4362 629.292 87.3477C633.133 89.5612 635.054 92.613 635.054 96.5029C635.054 99.6117 633.882 102.053 631.538 103.827C629.194 105.601 625.98 106.488 621.895 106.488C619.014 106.488 616.401 105.976 614.058 104.95C611.73 103.909 609.972 102.493 608.784 100.702C607.612 98.8955 607.026 96.8203 607.026 94.4766H615.62C615.62 96.3809 616.108 97.7887 617.085 98.7002C618.078 99.5954 619.681 100.043 621.895 100.043C623.311 100.043 624.425 99.7419 625.239 99.1396C626.069 98.5212 626.484 97.6585 626.484 96.5518ZM653.95 106C653.657 105.463 653.397 104.674 653.169 103.632C651.655 105.536 649.539 106.488 646.821 106.488C644.331 106.488 642.215 105.74 640.474 104.242C638.732 102.729 637.861 100.832 637.861 98.5537C637.861 95.6891 638.919 93.5244 641.035 92.0596C643.151 90.5947 646.227 89.8623 650.264 89.8623H652.803V88.4707C652.803 86.0456 651.753 84.833 649.653 84.833C647.7 84.833 646.724 85.7933 646.724 87.7139H638.496C638.496 85.1585 639.578 83.0833 641.743 81.4883C643.924 79.8932 646.699 79.0957 650.068 79.0957C653.438 79.0957 656.099 79.9176 658.052 81.5615C660.005 83.2054 661.006 85.4596 661.055 88.3242V100.019C661.087 102.444 661.462 104.299 662.178 105.585V106H653.95ZM648.799 100.629C649.824 100.629 650.671 100.409 651.338 99.9697C652.021 99.5303 652.51 99.0339 652.803 98.4805V94.2568H650.41C647.546 94.2568 646.113 95.5426 646.113 98.1143C646.113 98.863 646.366 99.4733 646.87 99.9453C647.375 100.401 648.018 100.629 648.799 100.629ZM674.312 106H666.06V68.5H674.312V106ZM692.183 106.488C688.13 106.488 684.85 105.284 682.344 102.875C679.837 100.45 678.584 97.3005 678.584 93.4268V92.7432C678.584 90.0413 679.08 87.6569 680.073 85.5898C681.082 83.5228 682.547 81.9277 684.468 80.8047C686.388 79.6654 688.667 79.0957 691.304 79.0957C695.015 79.0957 697.944 80.2513 700.093 82.5625C702.241 84.8574 703.315 88.0638 703.315 92.1816V95.3799H686.958C687.251 96.861 687.894 98.0247 688.887 98.8711C689.88 99.7174 691.165 100.141 692.744 100.141C695.348 100.141 697.383 99.2292 698.848 97.4062L702.607 101.85C701.582 103.266 700.125 104.397 698.237 105.243C696.366 106.073 694.347 106.488 692.183 106.488ZM691.255 85.4434C688.846 85.4434 687.414 87.0384 686.958 90.2285H695.259V89.5938C695.291 88.2754 694.958 87.2581 694.258 86.542C693.558 85.8096 692.557 85.4434 691.255 85.4434ZM720.479 98.5781C720.479 97.8783 720.112 97.3167 719.38 96.8936C718.647 96.4704 717.256 96.0309 715.205 95.5752C713.154 95.1195 711.462 94.5254 710.127 93.793C708.792 93.0443 707.775 92.141 707.075 91.083C706.375 90.0251 706.025 88.8125 706.025 87.4453C706.025 85.0202 707.026 83.0264 709.028 81.4639C711.03 79.8851 713.651 79.0957 716.89 79.0957C720.373 79.0957 723.172 79.8851 725.288 81.4639C727.404 83.0426 728.462 85.1178 728.462 87.6895H720.21C720.21 85.5736 719.095 84.5156 716.865 84.5156C716.003 84.5156 715.278 84.7598 714.692 85.248C714.106 85.7201 713.813 86.3141 713.813 87.0303C713.813 87.7627 714.172 88.3568 714.888 88.8125C715.604 89.2682 716.743 89.6426 718.306 89.9355C719.884 90.2285 721.268 90.5785 722.456 90.9854C726.427 92.3525 728.413 94.8021 728.413 98.334C728.413 100.743 727.339 102.704 725.19 104.218C723.058 105.731 720.291 106.488 716.89 106.488C714.627 106.488 712.609 106.081 710.835 105.268C709.061 104.454 707.677 103.347 706.685 101.947C705.692 100.548 705.195 99.0745 705.195 97.5283H712.886C712.918 98.749 713.325 99.6442 714.106 100.214C714.888 100.767 715.889 101.044 717.109 101.044C718.232 101.044 719.071 100.816 719.624 100.36C720.194 99.9046 720.479 99.3105 720.479 98.5781Z" fill="#363636"/>
<path opacity="0.85" d="M377.698 151.836L379.667 142.203H381.873L378.92 155H376.793L374.358 145.657L371.871 155H369.735L366.782 142.203H368.988L370.975 151.818L373.418 142.203H375.281L377.698 151.836ZM387.199 155.176C385.846 155.176 384.747 154.751 383.903 153.901C383.065 153.046 382.646 151.909 382.646 150.491V150.228C382.646 149.278 382.828 148.432 383.191 147.688C383.561 146.938 384.076 146.354 384.738 145.938C385.4 145.522 386.139 145.314 386.953 145.314C388.248 145.314 389.247 145.728 389.95 146.554C390.659 147.38 391.014 148.549 391.014 150.061V150.922H384.8C384.864 151.707 385.125 152.328 385.582 152.785C386.045 153.242 386.625 153.471 387.322 153.471C388.301 153.471 389.098 153.075 389.713 152.284L390.864 153.383C390.483 153.951 389.974 154.394 389.335 154.71C388.702 155.021 387.99 155.176 387.199 155.176ZM386.944 147.028C386.358 147.028 385.884 147.233 385.521 147.644C385.163 148.054 384.935 148.625 384.835 149.357H388.904V149.199C388.857 148.484 388.667 147.945 388.333 147.582C387.999 147.213 387.536 147.028 386.944 147.028ZM405.516 152.056L407.027 145.49H409.11L406.518 155H404.76L402.721 148.47L400.717 155H398.959L396.357 145.49H398.44L399.979 151.985L401.93 145.49H403.538L405.516 152.056ZM412.811 155H410.675V145.49H412.811V155ZM410.543 143.021C410.543 142.692 410.646 142.42 410.851 142.203C411.062 141.986 411.36 141.878 411.747 141.878C412.134 141.878 412.433 141.986 412.644 142.203C412.854 142.42 412.96 142.692 412.96 143.021C412.96 143.343 412.854 143.612 412.644 143.829C412.433 144.04 412.134 144.146 411.747 144.146C411.36 144.146 411.062 144.04 410.851 143.829C410.646 143.612 410.543 143.343 410.543 143.021ZM417.416 155H415.28V141.5H417.416V155ZM422.021 155H419.886V141.5H422.021V155ZM430.942 146.527C431.64 145.719 432.521 145.314 433.588 145.314C435.615 145.314 436.644 146.472 436.673 148.786V155H434.537V148.865C434.537 148.209 434.394 147.746 434.106 147.477C433.825 147.201 433.409 147.063 432.858 147.063C432.003 147.063 431.364 147.444 430.942 148.206V155H428.807V141.5H430.942V146.527ZM443.027 155.176C441.674 155.176 440.575 154.751 439.731 153.901C438.894 153.046 438.475 151.909 438.475 150.491V150.228C438.475 149.278 438.656 148.432 439.02 147.688C439.389 146.938 439.904 146.354 440.566 145.938C441.229 145.522 441.967 145.314 442.781 145.314C444.076 145.314 445.075 145.728 445.778 146.554C446.487 147.38 446.842 148.549 446.842 150.061V150.922H440.628C440.692 151.707 440.953 152.328 441.41 152.785C441.873 153.242 442.453 153.471 443.15 153.471C444.129 153.471 444.926 153.075 445.541 152.284L446.692 153.383C446.312 153.951 445.802 154.394 445.163 154.71C444.53 155.021 443.818 155.176 443.027 155.176ZM442.772 147.028C442.187 147.028 441.712 147.233 441.349 147.644C440.991 148.054 440.763 148.625 440.663 149.357H444.732V149.199C444.686 148.484 444.495 147.945 444.161 147.582C443.827 147.213 443.364 147.028 442.772 147.028ZM450.779 155H448.644V141.5H450.779V155ZM461.44 150.342C461.44 151.812 461.106 152.987 460.438 153.866C459.771 154.739 458.874 155.176 457.749 155.176C456.706 155.176 455.871 154.833 455.244 154.147V158.656H453.108V145.49H455.077L455.165 146.457C455.792 145.695 456.645 145.314 457.723 145.314C458.883 145.314 459.791 145.748 460.447 146.615C461.109 147.477 461.44 148.675 461.44 150.21V150.342ZM459.313 150.157C459.313 149.208 459.123 148.455 458.742 147.898C458.367 147.342 457.828 147.063 457.125 147.063C456.252 147.063 455.625 147.424 455.244 148.145V152.363C455.631 153.102 456.264 153.471 457.143 153.471C457.822 153.471 458.353 153.198 458.733 152.653C459.12 152.103 459.313 151.271 459.313 150.157ZM471.064 151.941L472.998 145.49H475.274L471.495 156.441C470.915 158.041 469.931 158.841 468.542 158.841C468.231 158.841 467.889 158.788 467.514 158.683V157.03L467.918 157.057C468.457 157.057 468.861 156.957 469.131 156.758C469.406 156.564 469.623 156.236 469.781 155.773L470.089 154.956L466.749 145.49H469.052L471.064 151.941ZM475.969 150.157C475.969 149.226 476.153 148.388 476.522 147.644C476.892 146.894 477.41 146.319 478.078 145.921C478.746 145.517 479.514 145.314 480.381 145.314C481.664 145.314 482.704 145.728 483.501 146.554C484.304 147.38 484.737 148.476 484.802 149.841L484.811 150.342C484.811 151.279 484.629 152.117 484.266 152.855C483.908 153.594 483.393 154.165 482.719 154.569C482.051 154.974 481.277 155.176 480.398 155.176C479.057 155.176 477.981 154.73 477.173 153.84C476.37 152.943 475.969 151.751 475.969 150.263V150.157ZM478.104 150.342C478.104 151.32 478.307 152.088 478.711 152.645C479.115 153.195 479.678 153.471 480.398 153.471C481.119 153.471 481.679 153.189 482.077 152.627C482.481 152.064 482.684 151.241 482.684 150.157C482.684 149.196 482.476 148.435 482.06 147.872C481.649 147.31 481.09 147.028 480.381 147.028C479.684 147.028 479.13 147.307 478.72 147.863C478.31 148.414 478.104 149.24 478.104 150.342ZM492.378 154.068C491.751 154.807 490.86 155.176 489.706 155.176C488.675 155.176 487.893 154.874 487.359 154.271C486.832 153.667 486.568 152.794 486.568 151.651V145.49H488.704V151.625C488.704 152.832 489.205 153.436 490.207 153.436C491.244 153.436 491.944 153.063 492.308 152.319V145.49H494.443V155H492.431L492.378 154.068ZM505.008 153.471C505.541 153.471 505.983 153.315 506.335 153.005C506.687 152.694 506.874 152.311 506.897 151.854H508.91C508.887 152.445 508.702 152.999 508.356 153.515C508.011 154.024 507.542 154.429 506.95 154.728C506.358 155.026 505.72 155.176 505.034 155.176C503.704 155.176 502.649 154.745 501.87 153.884C501.091 153.022 500.701 151.833 500.701 150.315V150.096C500.701 148.648 501.088 147.491 501.861 146.624C502.635 145.751 503.689 145.314 505.025 145.314C506.156 145.314 507.076 145.646 507.785 146.308C508.5 146.964 508.875 147.828 508.91 148.9H506.897C506.874 148.355 506.687 147.907 506.335 147.556C505.989 147.204 505.547 147.028 505.008 147.028C504.316 147.028 503.783 147.28 503.408 147.784C503.033 148.282 502.843 149.041 502.837 150.061V150.403C502.837 151.435 503.021 152.205 503.391 152.715C503.766 153.219 504.305 153.471 505.008 153.471ZM515.502 147.441C515.221 147.395 514.931 147.371 514.632 147.371C513.653 147.371 512.994 147.746 512.654 148.496V155H510.519V145.49H512.558L512.61 146.554C513.126 145.728 513.841 145.314 514.755 145.314C515.06 145.314 515.312 145.355 515.511 145.438L515.502 147.441ZM520.863 155.176C519.51 155.176 518.411 154.751 517.567 153.901C516.729 153.046 516.311 151.909 516.311 150.491V150.228C516.311 149.278 516.492 148.432 516.855 147.688C517.225 146.938 517.74 146.354 518.402 145.938C519.064 145.522 519.803 145.314 520.617 145.314C521.912 145.314 522.911 145.728 523.614 146.554C524.323 147.38 524.678 148.549 524.678 150.061V150.922H518.464C518.528 151.707 518.789 152.328 519.246 152.785C519.709 153.242 520.289 153.471 520.986 153.471C521.965 153.471 522.762 153.075 523.377 152.284L524.528 153.383C524.147 153.951 523.638 154.394 522.999 154.71C522.366 155.021 521.654 155.176 520.863 155.176ZM520.608 147.028C520.022 147.028 519.548 147.233 519.185 147.644C518.827 148.054 518.599 148.625 518.499 149.357H522.568V149.199C522.521 148.484 522.331 147.945 521.997 147.582C521.663 147.213 521.2 147.028 520.608 147.028ZM532.025 155C531.932 154.818 531.85 154.522 531.779 154.112C531.1 154.821 530.268 155.176 529.283 155.176C528.328 155.176 527.549 154.903 526.945 154.358C526.342 153.813 526.04 153.14 526.04 152.337C526.04 151.323 526.415 150.547 527.165 150.008C527.921 149.463 528.999 149.19 530.399 149.19H531.709V148.566C531.709 148.074 531.571 147.682 531.296 147.389C531.021 147.09 530.602 146.94 530.039 146.94C529.553 146.94 529.154 147.063 528.844 147.31C528.533 147.55 528.378 147.857 528.378 148.232H526.242C526.242 147.711 526.415 147.225 526.761 146.773C527.106 146.316 527.575 145.959 528.167 145.701C528.765 145.443 529.43 145.314 530.162 145.314C531.275 145.314 532.163 145.596 532.825 146.158C533.487 146.715 533.827 147.5 533.845 148.514V152.803C533.845 153.658 533.965 154.341 534.205 154.851V155H532.025ZM529.679 153.462C530.101 153.462 530.496 153.359 530.865 153.154C531.24 152.949 531.521 152.674 531.709 152.328V150.535H530.558C529.767 150.535 529.172 150.673 528.773 150.948C528.375 151.224 528.176 151.613 528.176 152.117C528.176 152.527 528.311 152.855 528.58 153.102C528.855 153.342 529.222 153.462 529.679 153.462ZM538.758 143.179V145.49H540.437V147.072H538.758V152.381C538.758 152.744 538.828 153.008 538.969 153.172C539.115 153.33 539.373 153.409 539.742 153.409C539.988 153.409 540.237 153.38 540.489 153.321V154.974C540.003 155.108 539.534 155.176 539.083 155.176C537.442 155.176 536.622 154.271 536.622 152.46V147.072H535.058V145.49H536.622V143.179H538.758ZM546.264 155.176C544.91 155.176 543.812 154.751 542.968 153.901C542.13 153.046 541.711 151.909 541.711 150.491V150.228C541.711 149.278 541.893 148.432 542.256 147.688C542.625 146.938 543.141 146.354 543.803 145.938C544.465 145.522 545.203 145.314 546.018 145.314C547.312 145.314 548.312 145.728 549.015 146.554C549.724 147.38 550.078 148.549 550.078 150.061V150.922H543.864C543.929 151.707 544.189 152.328 544.646 152.785C545.109 153.242 545.689 153.471 546.387 153.471C547.365 153.471 548.162 153.075 548.777 152.284L549.929 153.383C549.548 153.951 549.038 154.394 548.399 154.71C547.767 155.021 547.055 155.176 546.264 155.176ZM546.009 147.028C545.423 147.028 544.948 147.233 544.585 147.644C544.228 148.054 543.999 148.625 543.899 149.357H547.969V149.199C547.922 148.484 547.731 147.945 547.397 147.582C547.063 147.213 546.601 147.028 546.009 147.028ZM561.908 155C561.814 154.818 561.732 154.522 561.662 154.112C560.982 154.821 560.15 155.176 559.166 155.176C558.211 155.176 557.432 154.903 556.828 154.358C556.225 153.813 555.923 153.14 555.923 152.337C555.923 151.323 556.298 150.547 557.048 150.008C557.804 149.463 558.882 149.19 560.282 149.19H561.592V148.566C561.592 148.074 561.454 147.682 561.179 147.389C560.903 147.09 560.484 146.94 559.922 146.94C559.436 146.94 559.037 147.063 558.727 147.31C558.416 147.55 558.261 147.857 558.261 148.232H556.125C556.125 147.711 556.298 147.225 556.644 146.773C556.989 146.316 557.458 145.959 558.05 145.701C558.647 145.443 559.312 145.314 560.045 145.314C561.158 145.314 562.046 145.596 562.708 146.158C563.37 146.715 563.71 147.5 563.728 148.514V152.803C563.728 153.658 563.848 154.341 564.088 154.851V155H561.908ZM559.562 153.462C559.983 153.462 560.379 153.359 560.748 153.154C561.123 152.949 561.404 152.674 561.592 152.328V150.535H560.44C559.649 150.535 559.055 150.673 558.656 150.948C558.258 151.224 558.059 151.613 558.059 152.117C558.059 152.527 558.193 152.855 558.463 153.102C558.738 153.342 559.104 153.462 559.562 153.462ZM567.946 145.49L568.008 146.589C568.711 145.739 569.634 145.314 570.776 145.314C572.757 145.314 573.765 146.448 573.8 148.716V155H571.664V148.839C571.664 148.235 571.532 147.79 571.269 147.503C571.011 147.21 570.586 147.063 569.994 147.063C569.133 147.063 568.491 147.453 568.069 148.232V155H565.934V145.49H567.946ZM575.584 150.175C575.584 148.71 575.924 147.535 576.604 146.65C577.283 145.76 578.194 145.314 579.337 145.314C580.345 145.314 581.159 145.666 581.78 146.369V141.5H583.916V155H581.982L581.877 154.016C581.238 154.789 580.386 155.176 579.319 155.176C578.206 155.176 577.304 154.728 576.612 153.831C575.927 152.935 575.584 151.716 575.584 150.175ZM577.72 150.359C577.72 151.326 577.904 152.082 578.273 152.627C578.648 153.166 579.179 153.436 579.864 153.436C580.737 153.436 581.376 153.046 581.78 152.267V148.206C581.388 147.444 580.755 147.063 579.882 147.063C579.19 147.063 578.657 147.339 578.282 147.89C577.907 148.435 577.72 149.258 577.72 150.359ZM592.635 145.49L592.696 146.483C593.364 145.704 594.278 145.314 595.438 145.314C596.71 145.314 597.58 145.801 598.049 146.773C598.74 145.801 599.713 145.314 600.967 145.314C602.016 145.314 602.795 145.604 603.305 146.185C603.82 146.765 604.084 147.62 604.096 148.751V155H601.96V148.812C601.96 148.209 601.828 147.767 601.564 147.485C601.301 147.204 600.864 147.063 600.255 147.063C599.769 147.063 599.37 147.195 599.06 147.459C598.755 147.717 598.541 148.057 598.418 148.479L598.427 155H596.291V148.742C596.262 147.623 595.69 147.063 594.577 147.063C593.722 147.063 593.115 147.412 592.758 148.109V155H590.622V145.49H592.635ZM611.971 155C611.877 154.818 611.795 154.522 611.725 154.112C611.045 154.821 610.213 155.176 609.229 155.176C608.273 155.176 607.494 154.903 606.891 154.358C606.287 153.813 605.985 153.14 605.985 152.337C605.985 151.323 606.36 150.547 607.11 150.008C607.866 149.463 608.944 149.19 610.345 149.19H611.654V148.566C611.654 148.074 611.517 147.682 611.241 147.389C610.966 147.09 610.547 146.94 609.984 146.94C609.498 146.94 609.1 147.063 608.789 147.31C608.479 147.55 608.323 147.857 608.323 148.232H606.188C606.188 147.711 606.36 147.225 606.706 146.773C607.052 146.316 607.521 145.959 608.112 145.701C608.71 145.443 609.375 145.314 610.107 145.314C611.221 145.314 612.108 145.596 612.771 146.158C613.433 146.715 613.772 147.5 613.79 148.514V152.803C613.79 153.658 613.91 154.341 614.15 154.851V155H611.971ZM609.624 153.462C610.046 153.462 610.441 153.359 610.811 153.154C611.186 152.949 611.467 152.674 611.654 152.328V150.535H610.503C609.712 150.535 609.117 150.673 608.719 150.948C608.32 151.224 608.121 151.613 608.121 152.117C608.121 152.527 608.256 152.855 608.525 153.102C608.801 153.342 609.167 153.462 609.624 153.462ZM618.009 145.49L618.07 146.589C618.773 145.739 619.696 145.314 620.839 145.314C622.819 145.314 623.827 146.448 623.862 148.716V155H621.727V148.839C621.727 148.235 621.595 147.79 621.331 147.503C621.073 147.21 620.648 147.063 620.057 147.063C619.195 147.063 618.554 147.453 618.132 148.232V155H615.996V145.49H618.009ZM631.729 155C631.635 154.818 631.553 154.522 631.482 154.112C630.803 154.821 629.971 155.176 628.986 155.176C628.031 155.176 627.252 154.903 626.648 154.358C626.045 153.813 625.743 153.14 625.743 152.337C625.743 151.323 626.118 150.547 626.868 150.008C627.624 149.463 628.702 149.19 630.103 149.19H631.412V148.566C631.412 148.074 631.274 147.682 630.999 147.389C630.724 147.09 630.305 146.94 629.742 146.94C629.256 146.94 628.857 147.063 628.547 147.31C628.236 147.55 628.081 147.857 628.081 148.232H625.945C625.945 147.711 626.118 147.225 626.464 146.773C626.81 146.316 627.278 145.959 627.87 145.701C628.468 145.443 629.133 145.314 629.865 145.314C630.979 145.314 631.866 145.596 632.528 146.158C633.19 146.715 633.53 147.5 633.548 148.514V152.803C633.548 153.658 633.668 154.341 633.908 154.851V155H631.729ZM629.382 153.462C629.804 153.462 630.199 153.359 630.568 153.154C630.943 152.949 631.225 152.674 631.412 152.328V150.535H630.261C629.47 150.535 628.875 150.673 628.477 150.948C628.078 151.224 627.879 151.613 627.879 152.117C627.879 152.527 628.014 152.855 628.283 153.102C628.559 153.342 628.925 153.462 629.382 153.462ZM635.411 150.175C635.411 148.698 635.757 147.521 636.448 146.642C637.146 145.757 638.068 145.314 639.217 145.314C640.301 145.314 641.153 145.692 641.774 146.448L641.871 145.49H643.796V154.71C643.796 155.958 643.406 156.942 642.627 157.663C641.854 158.384 640.808 158.744 639.489 158.744C638.792 158.744 638.109 158.598 637.441 158.305C636.779 158.018 636.275 157.64 635.93 157.171L636.94 155.888C637.597 156.667 638.405 157.057 639.366 157.057C640.075 157.057 640.635 156.863 641.045 156.477C641.455 156.096 641.66 155.533 641.66 154.789V154.147C641.045 154.833 640.225 155.176 639.199 155.176C638.086 155.176 637.175 154.733 636.466 153.849C635.763 152.964 635.411 151.739 635.411 150.175ZM637.538 150.359C637.538 151.314 637.731 152.067 638.118 152.618C638.511 153.163 639.053 153.436 639.744 153.436C640.605 153.436 641.244 153.066 641.66 152.328V148.145C641.256 147.424 640.623 147.063 639.762 147.063C639.059 147.063 638.511 147.342 638.118 147.898C637.731 148.455 637.538 149.275 637.538 150.359ZM650.186 155.176C648.832 155.176 647.733 154.751 646.89 153.901C646.052 153.046 645.633 151.909 645.633 150.491V150.228C645.633 149.278 645.814 148.432 646.178 147.688C646.547 146.938 647.062 146.354 647.725 145.938C648.387 145.522 649.125 145.314 649.939 145.314C651.234 145.314 652.233 145.728 652.937 146.554C653.646 147.38 654 148.549 654 150.061V150.922H647.786C647.851 151.707 648.111 152.328 648.568 152.785C649.031 153.242 649.611 153.471 650.309 153.471C651.287 153.471 652.084 153.075 652.699 152.284L653.851 153.383C653.47 153.951 652.96 154.394 652.321 154.71C651.688 155.021 650.977 155.176 650.186 155.176ZM649.931 147.028C649.345 147.028 648.87 147.233 648.507 147.644C648.149 148.054 647.921 148.625 647.821 149.357H651.891V149.199C651.844 148.484 651.653 147.945 651.319 147.582C650.985 147.213 650.522 147.028 649.931 147.028ZM663.475 151.941L665.408 145.49H667.685L663.905 156.441C663.325 158.041 662.341 158.841 660.952 158.841C660.642 158.841 660.299 158.788 659.924 158.683V157.03L660.328 157.057C660.867 157.057 661.271 156.957 661.541 156.758C661.816 156.564 662.033 156.236 662.191 155.773L662.499 154.956L659.159 145.49H661.462L663.475 151.941ZM668.379 150.157C668.379 149.226 668.563 148.388 668.933 147.644C669.302 146.894 669.82 146.319 670.488 145.921C671.156 145.517 671.924 145.314 672.791 145.314C674.074 145.314 675.114 145.728 675.911 146.554C676.714 147.38 677.147 148.476 677.212 149.841L677.221 150.342C677.221 151.279 677.039 152.117 676.676 152.855C676.318 153.594 675.803 154.165 675.129 154.569C674.461 154.974 673.688 155.176 672.809 155.176C671.467 155.176 670.392 154.73 669.583 153.84C668.78 152.943 668.379 151.751 668.379 150.263V150.157ZM670.515 150.342C670.515 151.32 670.717 152.088 671.121 152.645C671.525 153.195 672.088 153.471 672.809 153.471C673.529 153.471 674.089 153.189 674.487 152.627C674.892 152.064 675.094 151.241 675.094 150.157C675.094 149.196 674.886 148.435 674.47 147.872C674.06 147.31 673.5 147.028 672.791 147.028C672.094 147.028 671.54 147.307 671.13 147.863C670.72 148.414 670.515 149.24 670.515 150.342ZM684.788 154.068C684.161 154.807 683.271 155.176 682.116 155.176C681.085 155.176 680.303 154.874 679.77 154.271C679.242 153.667 678.979 152.794 678.979 151.651V145.49H681.114V151.625C681.114 152.832 681.615 153.436 682.617 153.436C683.654 153.436 684.354 153.063 684.718 152.319V145.49H686.854V155H684.841L684.788 154.068ZM694.008 147.441C693.727 147.395 693.437 147.371 693.138 147.371C692.159 147.371 691.5 147.746 691.16 148.496V155H689.024V145.49H691.063L691.116 146.554C691.632 145.728 692.347 145.314 693.261 145.314C693.565 145.314 693.817 145.355 694.017 145.438L694.008 147.441ZM702.516 143.179V145.49H704.194V147.072H702.516V152.381C702.516 152.744 702.586 153.008 702.727 153.172C702.873 153.33 703.131 153.409 703.5 153.409C703.746 153.409 703.995 153.38 704.247 153.321V154.974C703.761 155.108 703.292 155.176 702.841 155.176C701.2 155.176 700.38 154.271 700.38 152.46V147.072H698.815V145.49H700.38V143.179H702.516ZM705.17 150.157C705.17 149.226 705.354 148.388 705.724 147.644C706.093 146.894 706.611 146.319 707.279 145.921C707.947 145.517 708.715 145.314 709.582 145.314C710.865 145.314 711.905 145.728 712.702 146.554C713.505 147.38 713.938 148.476 714.003 149.841L714.012 150.342C714.012 151.279 713.83 152.117 713.467 152.855C713.109 153.594 712.594 154.165 711.92 154.569C711.252 154.974 710.479 155.176 709.6 155.176C708.258 155.176 707.183 154.73 706.374 153.84C705.571 152.943 705.17 151.751 705.17 150.263V150.157ZM707.306 150.342C707.306 151.32 707.508 152.088 707.912 152.645C708.316 153.195 708.879 153.471 709.6 153.471C710.32 153.471 710.88 153.189 711.278 152.627C711.683 152.064 711.885 151.241 711.885 150.157C711.885 149.196 711.677 148.435 711.261 147.872C710.851 147.31 710.291 147.028 709.582 147.028C708.885 147.028 708.331 147.307 707.921 147.863C707.511 148.414 707.306 149.24 707.306 150.342ZM718.907 150.922L717.958 151.897V155H715.822V141.5H717.958V149.287L718.626 148.452L721.254 145.49H723.82L720.287 149.454L724.198 155H721.729L718.907 150.922ZM729.234 155.176C727.881 155.176 726.782 154.751 725.938 153.901C725.101 153.046 724.682 151.909 724.682 150.491V150.228C724.682 149.278 724.863 148.432 725.227 147.688C725.596 146.938 726.111 146.354 726.773 145.938C727.436 145.522 728.174 145.314 728.988 145.314C730.283 145.314 731.282 145.728 731.985 146.554C732.694 147.38 733.049 148.549 733.049 150.061V150.922H726.835C726.899 151.707 727.16 152.328 727.617 152.785C728.08 153.242 728.66 153.471 729.357 153.471C730.336 153.471 731.133 153.075 731.748 152.284L732.899 153.383C732.519 153.951 732.009 154.394 731.37 154.71C730.737 155.021 730.025 155.176 729.234 155.176ZM728.979 147.028C728.394 147.028 727.919 147.233 727.556 147.644C727.198 148.054 726.97 148.625 726.87 149.357H730.939V149.199C730.893 148.484 730.702 147.945 730.368 147.582C730.034 147.213 729.571 147.028 728.979 147.028ZM736.696 145.49L736.758 146.589C737.461 145.739 738.384 145.314 739.526 145.314C741.507 145.314 742.515 146.448 742.55 148.716V155H740.414V148.839C740.414 148.235 740.282 147.79 740.019 147.503C739.761 147.21 739.336 147.063 738.744 147.063C737.883 147.063 737.241 147.453 736.819 148.232V155H734.684V145.49H736.696Z" fill="#7D7D7D"/>
<circle cx="1106" cy="264" r="4" fill="#CCCCCC"/>
<rect x="1031.5" y="263.5" width="70" height="1" stroke="#CCCCCC" stroke-dasharray="6 6"/>
<path d="M936.613 154.245V159H934.39V146.203H939.285C940.715 146.203 941.849 146.575 942.687 147.319C943.53 148.063 943.952 149.048 943.952 150.272C943.952 151.526 943.539 152.502 942.713 153.199C941.893 153.896 940.741 154.245 939.259 154.245H936.613ZM936.613 152.461H939.285C940.076 152.461 940.68 152.276 941.096 151.907C941.512 151.532 941.72 150.993 941.72 150.29C941.72 149.599 941.509 149.048 941.087 148.638C940.665 148.222 940.085 148.008 939.347 147.996H936.613V152.461ZM948.25 159H946.035V146.203H948.25V159ZM960.748 154.834C960.619 156.199 960.115 157.266 959.236 158.033C958.357 158.795 957.188 159.176 955.729 159.176C954.71 159.176 953.811 158.936 953.031 158.455C952.258 157.969 951.66 157.28 951.238 156.39C950.816 155.499 950.597 154.465 950.579 153.287V152.092C950.579 150.885 950.793 149.821 951.221 148.901C951.648 147.981 952.261 147.272 953.058 146.774C953.86 146.276 954.786 146.027 955.835 146.027C957.247 146.027 958.384 146.411 959.245 147.179C960.106 147.946 960.607 149.03 960.748 150.431H958.533C958.428 149.511 958.158 148.849 957.725 148.444C957.297 148.034 956.667 147.829 955.835 147.829C954.868 147.829 954.124 148.184 953.603 148.893C953.087 149.596 952.823 150.63 952.812 151.995V153.129C952.812 154.512 953.058 155.566 953.55 156.293C954.048 157.02 954.774 157.383 955.729 157.383C956.603 157.383 957.259 157.187 957.698 156.794C958.138 156.401 958.416 155.748 958.533 154.834H960.748ZM972.895 159H970.671L964.967 149.921V159H962.743V146.203H964.967L970.688 155.317V146.203H972.895V159ZM977.869 159H975.654V146.203H977.869V159ZM990.367 154.834C990.238 156.199 989.734 157.266 988.855 158.033C987.977 158.795 986.808 159.176 985.349 159.176C984.329 159.176 983.43 158.936 982.65 158.455C981.877 157.969 981.279 157.28 980.857 156.39C980.436 155.499 980.216 154.465 980.198 153.287V152.092C980.198 150.885 980.412 149.821 980.84 148.901C981.268 147.981 981.88 147.272 982.677 146.774C983.479 146.276 984.405 146.027 985.454 146.027C986.866 146.027 988.003 146.411 988.864 147.179C989.726 147.946 990.227 149.03 990.367 150.431H988.152C988.047 149.511 987.777 148.849 987.344 148.444C986.916 148.034 986.286 147.829 985.454 147.829C984.487 147.829 983.743 148.184 983.222 148.893C982.706 149.596 982.442 150.63 982.431 151.995V153.129C982.431 154.512 982.677 155.566 983.169 156.293C983.667 157.02 984.394 157.383 985.349 157.383C986.222 157.383 986.878 157.187 987.317 156.794C987.757 156.401 988.035 155.748 988.152 154.834H990.367Z" fill="#363636"/>
<path d="M999.068 157.225H1004.88V159H996.845V146.203H999.068V157.225ZM1008.81 154.245V159H1006.58V146.203H1011.48C1012.91 146.203 1014.04 146.575 1014.88 147.319C1015.72 148.063 1016.15 149.048 1016.15 150.272C1016.15 151.526 1015.73 152.502 1014.91 153.199C1014.09 153.896 1012.93 154.245 1011.45 154.245H1008.81ZM1008.81 152.461H1011.48C1012.27 152.461 1012.87 152.276 1013.29 151.907C1013.71 151.532 1013.91 150.993 1013.91 150.29C1013.91 149.599 1013.7 149.048 1013.28 148.638C1012.86 148.222 1012.28 148.008 1011.54 147.996H1008.81V152.461ZM1024.8 157.225H1030.61V159H1022.58V146.203H1024.8V157.225ZM1031.71 154.157C1031.71 153.226 1031.9 152.388 1032.26 151.644C1032.63 150.894 1033.15 150.319 1033.82 149.921C1034.49 149.517 1035.26 149.314 1036.12 149.314C1037.41 149.314 1038.45 149.728 1039.24 150.554C1040.05 151.38 1040.48 152.476 1040.54 153.841L1040.55 154.342C1040.55 155.279 1040.37 156.117 1040.01 156.855C1039.65 157.594 1039.13 158.165 1038.46 158.569C1037.79 158.974 1037.02 159.176 1036.14 159.176C1034.8 159.176 1033.72 158.73 1032.92 157.84C1032.11 156.943 1031.71 155.751 1031.71 154.263V154.157ZM1033.85 154.342C1033.85 155.32 1034.05 156.088 1034.45 156.645C1034.86 157.195 1035.42 157.471 1036.14 157.471C1036.86 157.471 1037.42 157.189 1037.82 156.627C1038.22 156.064 1038.43 155.241 1038.43 154.157C1038.43 153.196 1038.22 152.435 1037.8 151.872C1037.39 151.31 1036.83 151.028 1036.12 151.028C1035.43 151.028 1034.87 151.307 1034.46 151.863C1034.05 152.414 1033.85 153.24 1033.85 154.342ZM1046.27 157.471C1046.8 157.471 1047.24 157.315 1047.59 157.005C1047.94 156.694 1048.13 156.311 1048.16 155.854H1050.17C1050.14 156.445 1049.96 156.999 1049.61 157.515C1049.27 158.024 1048.8 158.429 1048.21 158.728C1047.62 159.026 1046.98 159.176 1046.29 159.176C1044.96 159.176 1043.91 158.745 1043.13 157.884C1042.35 157.022 1041.96 155.833 1041.96 154.315V154.096C1041.96 152.648 1042.35 151.491 1043.12 150.624C1043.89 149.751 1044.95 149.314 1046.28 149.314C1047.41 149.314 1048.33 149.646 1049.04 150.308C1049.76 150.964 1050.13 151.828 1050.17 152.9H1048.16C1048.13 152.355 1047.94 151.907 1047.59 151.556C1047.25 151.204 1046.8 151.028 1046.27 151.028C1045.57 151.028 1045.04 151.28 1044.67 151.784C1044.29 152.282 1044.1 153.041 1044.09 154.061V154.403C1044.09 155.435 1044.28 156.205 1044.65 156.715C1045.02 157.219 1045.56 157.471 1046.27 157.471ZM1054.87 154.922L1053.92 155.897V159H1051.79V145.5H1053.92V153.287L1054.59 152.452L1057.22 149.49H1059.78L1056.25 153.454L1060.16 159H1057.69L1054.87 154.922ZM1065.2 159.176C1063.84 159.176 1062.75 158.751 1061.9 157.901C1061.06 157.046 1060.64 155.909 1060.64 154.491V154.228C1060.64 153.278 1060.83 152.432 1061.19 151.688C1061.56 150.938 1062.07 150.354 1062.74 149.938C1063.4 149.522 1064.14 149.314 1064.95 149.314C1066.25 149.314 1067.25 149.728 1067.95 150.554C1068.66 151.38 1069.01 152.549 1069.01 154.061V154.922H1062.8C1062.86 155.707 1063.12 156.328 1063.58 156.785C1064.04 157.242 1064.62 157.471 1065.32 157.471C1066.3 157.471 1067.1 157.075 1067.71 156.284L1068.86 157.383C1068.48 157.951 1067.97 158.394 1067.33 158.71C1066.7 159.021 1065.99 159.176 1065.2 159.176ZM1064.94 151.028C1064.36 151.028 1063.88 151.233 1063.52 151.644C1063.16 152.054 1062.93 152.625 1062.83 153.357H1066.9V153.199C1066.86 152.484 1066.67 151.945 1066.33 151.582C1066 151.213 1065.53 151.028 1064.94 151.028ZM1075.66 151.441C1075.38 151.395 1075.08 151.371 1074.79 151.371C1073.81 151.371 1073.15 151.746 1072.81 152.496V159H1070.67V149.49H1072.71L1072.76 150.554C1073.28 149.728 1074 149.314 1074.91 149.314C1075.21 149.314 1075.47 149.355 1075.67 149.438L1075.66 151.441Z" fill="#1F88FE"/>
<g filter="url(#filter0_d_286_1819)">
<circle cx="1005" cy="264" r="25" fill="white"/>
<circle cx="1005" cy="264" r="24" stroke="#CCCCCC" stroke-width="2"/>
</g>
<path d="M1004.08 265.608C1004.08 267.721 1003.6 269.35 1002.65 270.496C1001.7 271.642 1000.37 272.215 998.641 272.215C996.9 272.215 995.554 271.638 994.602 270.485C993.649 269.332 993.173 267.707 993.173 265.608V262.751C993.173 260.638 993.646 259.009 994.591 257.863C995.543 256.717 996.886 256.145 998.619 256.145C1000.35 256.145 1001.69 256.721 1002.65 257.874C1003.6 259.027 1004.08 260.656 1004.08 262.762V265.608ZM1000.46 262.289C1000.46 261.165 1000.31 260.327 1000.02 259.775C999.722 259.217 999.257 258.938 998.619 258.938C997.996 258.938 997.541 259.195 997.255 259.711C996.976 260.227 996.825 261.007 996.804 262.053V266.049C996.804 267.216 996.951 268.072 997.244 268.616C997.538 269.153 998.003 269.422 998.641 269.422C999.257 269.422 999.711 269.16 1000 268.638C1000.3 268.108 1000.45 267.281 1000.46 266.156V262.289ZM1009.48 262.665H1011.19C1012.54 262.665 1013.22 262.003 1013.22 260.678C1013.22 260.162 1013.06 259.743 1012.73 259.421C1012.41 259.091 1011.96 258.927 1011.37 258.927C1010.89 258.927 1010.47 259.066 1010.11 259.346C1009.76 259.625 1009.59 259.972 1009.59 260.388H1005.97C1005.97 259.564 1006.2 258.83 1006.65 258.186C1007.11 257.541 1007.75 257.04 1008.56 256.682C1009.37 256.316 1010.27 256.134 1011.24 256.134C1012.98 256.134 1014.35 256.531 1015.34 257.326C1016.34 258.121 1016.84 259.213 1016.84 260.603C1016.84 261.276 1016.63 261.913 1016.21 262.515C1015.81 263.109 1015.21 263.592 1014.42 263.965C1015.25 264.266 1015.9 264.724 1016.38 265.34C1016.85 265.949 1017.08 266.704 1017.08 267.606C1017.08 269.003 1016.55 270.12 1015.47 270.958C1014.4 271.796 1012.99 272.215 1011.24 272.215C1010.22 272.215 1009.26 272.021 1008.38 271.635C1007.51 271.241 1006.85 270.7 1006.4 270.013C1005.95 269.318 1005.72 268.53 1005.72 267.649H1009.36C1009.36 268.129 1009.55 268.545 1009.94 268.896C1010.33 269.246 1010.8 269.422 1011.37 269.422C1012.01 269.422 1012.52 269.246 1012.9 268.896C1013.28 268.537 1013.46 268.083 1013.46 267.531C1013.46 266.743 1013.27 266.185 1012.87 265.855C1012.48 265.526 1011.94 265.361 1011.24 265.361H1009.48V262.665Z" fill="#363636"/>
<rect x="1004" y="176" width="2" height="63" fill="#CCCCCC"/>
<circle cx="1005" cy="176" r="2" fill="#CCCCCC"/>
<rect x="580.5" y="263.5" width="400" height="1" stroke="#CCCCCC" stroke-dasharray="6 6"/>
<path d="M472.604 376.245V381H470.381V368.203H475.276C476.706 368.203 477.84 368.575 478.678 369.319C479.521 370.063 479.943 371.048 479.943 372.272C479.943 373.526 479.53 374.502 478.704 375.199C477.884 375.896 476.732 376.245 475.25 376.245H472.604ZM472.604 374.461H475.276C476.067 374.461 476.671 374.276 477.087 373.907C477.503 373.532 477.711 372.993 477.711 372.29C477.711 371.599 477.5 371.048 477.078 370.638C476.656 370.222 476.076 370.008 475.338 369.996H472.604V374.461ZM484.241 381H482.026V368.203H484.241V381ZM496.739 376.834C496.61 378.199 496.106 379.266 495.228 380.033C494.349 380.795 493.18 381.176 491.721 381.176C490.701 381.176 489.802 380.936 489.022 380.455C488.249 379.969 487.651 379.28 487.229 378.39C486.808 377.499 486.588 376.465 486.57 375.287V374.092C486.57 372.885 486.784 371.821 487.212 370.901C487.64 369.981 488.252 369.272 489.049 368.774C489.852 368.276 490.777 368.027 491.826 368.027C493.238 368.027 494.375 368.411 495.236 369.179C496.098 369.946 496.599 371.03 496.739 372.431H494.524C494.419 371.511 494.149 370.849 493.716 370.444C493.288 370.034 492.658 369.829 491.826 369.829C490.859 369.829 490.115 370.184 489.594 370.893C489.078 371.596 488.814 372.63 488.803 373.995V375.129C488.803 376.512 489.049 377.566 489.541 378.293C490.039 379.02 490.766 379.383 491.721 379.383C492.594 379.383 493.25 379.187 493.689 378.794C494.129 378.401 494.407 377.748 494.524 376.834H496.739ZM508.886 381H506.662L500.958 371.921V381H498.734V368.203H500.958L506.68 377.317V368.203H508.886V381ZM513.86 381H511.646V368.203H513.86V381ZM526.358 376.834C526.229 378.199 525.726 379.266 524.847 380.033C523.968 380.795 522.799 381.176 521.34 381.176C520.32 381.176 519.421 380.936 518.642 380.455C517.868 379.969 517.271 379.28 516.849 378.39C516.427 377.499 516.207 376.465 516.189 375.287V374.092C516.189 372.885 516.403 371.821 516.831 370.901C517.259 369.981 517.871 369.272 518.668 368.774C519.471 368.276 520.396 368.027 521.445 368.027C522.857 368.027 523.994 368.411 524.855 369.179C525.717 369.946 526.218 371.03 526.358 372.431H524.144C524.038 371.511 523.769 370.849 523.335 370.444C522.907 370.034 522.277 369.829 521.445 369.829C520.479 369.829 519.734 370.184 519.213 370.893C518.697 371.596 518.434 372.63 518.422 373.995V375.129C518.422 376.512 518.668 377.566 519.16 378.293C519.658 379.02 520.385 379.383 521.34 379.383C522.213 379.383 522.869 379.187 523.309 378.794C523.748 378.401 524.026 377.748 524.144 376.834H526.358Z" fill="#363636"/>
<path d="M542.082 369.996H538.092V381H535.886V369.996H531.931V368.203H542.082V369.996ZM541.335 376.157C541.335 375.226 541.52 374.388 541.889 373.644C542.258 372.894 542.776 372.319 543.444 371.921C544.112 371.517 544.88 371.314 545.747 371.314C547.03 371.314 548.07 371.728 548.867 372.554C549.67 373.38 550.104 374.476 550.168 375.841L550.177 376.342C550.177 377.279 549.995 378.117 549.632 378.855C549.274 379.594 548.759 380.165 548.085 380.569C547.417 380.974 546.644 381.176 545.765 381.176C544.423 381.176 543.348 380.73 542.539 379.84C541.736 378.943 541.335 377.751 541.335 376.263V376.157ZM543.471 376.342C543.471 377.32 543.673 378.088 544.077 378.645C544.481 379.195 545.044 379.471 545.765 379.471C546.485 379.471 547.045 379.189 547.443 378.627C547.848 378.064 548.05 377.241 548.05 376.157C548.05 375.196 547.842 374.435 547.426 373.872C547.016 373.31 546.456 373.028 545.747 373.028C545.05 373.028 544.496 373.307 544.086 373.863C543.676 374.414 543.471 375.24 543.471 376.342ZM555.072 376.922L554.123 377.897V381H551.987V367.5H554.123V375.287L554.791 374.452L557.419 371.49H559.985L556.452 375.454L560.363 381H557.894L555.072 376.922ZM565.399 381.176C564.046 381.176 562.947 380.751 562.104 379.901C561.266 379.046 560.847 377.909 560.847 376.491V376.228C560.847 375.278 561.028 374.432 561.392 373.688C561.761 372.938 562.276 372.354 562.938 371.938C563.601 371.522 564.339 371.314 565.153 371.314C566.448 371.314 567.447 371.728 568.15 372.554C568.859 373.38 569.214 374.549 569.214 376.061V376.922H563C563.064 377.707 563.325 378.328 563.782 378.785C564.245 379.242 564.825 379.471 565.522 379.471C566.501 379.471 567.298 379.075 567.913 378.284L569.064 379.383C568.684 379.951 568.174 380.394 567.535 380.71C566.902 381.021 566.19 381.176 565.399 381.176ZM565.145 373.028C564.559 373.028 564.084 373.233 563.721 373.644C563.363 374.054 563.135 374.625 563.035 375.357H567.104V375.199C567.058 374.484 566.867 373.945 566.533 373.582C566.199 373.213 565.736 373.028 565.145 373.028ZM572.861 371.49L572.923 372.589C573.626 371.739 574.549 371.314 575.691 371.314C577.672 371.314 578.68 372.448 578.715 374.716V381H576.579V374.839C576.579 374.235 576.447 373.79 576.184 373.503C575.926 373.21 575.501 373.063 574.909 373.063C574.048 373.063 573.406 373.453 572.984 374.232V381H570.849V371.49H572.861ZM587.812 379.225H593.621V381H585.588V368.203H587.812V379.225ZM594.72 376.157C594.72 375.226 594.904 374.388 595.273 373.644C595.643 372.894 596.161 372.319 596.829 371.921C597.497 371.517 598.265 371.314 599.132 371.314C600.415 371.314 601.455 371.728 602.252 372.554C603.055 373.38 603.488 374.476 603.553 375.841L603.562 376.342C603.562 377.279 603.38 378.117 603.017 378.855C602.659 379.594 602.144 380.165 601.47 380.569C600.802 380.974 600.028 381.176 599.149 381.176C597.808 381.176 596.732 380.73 595.924 379.84C595.121 378.943 594.72 377.751 594.72 376.263V376.157ZM596.855 376.342C596.855 377.32 597.058 378.088 597.462 378.645C597.866 379.195 598.429 379.471 599.149 379.471C599.87 379.471 600.43 379.189 600.828 378.627C601.232 378.064 601.435 377.241 601.435 376.157C601.435 375.196 601.227 374.435 600.811 373.872C600.4 373.31 599.841 373.028 599.132 373.028C598.435 373.028 597.881 373.307 597.471 373.863C597.061 374.414 596.855 375.24 596.855 376.342ZM609.274 379.471C609.808 379.471 610.25 379.315 610.602 379.005C610.953 378.694 611.141 378.311 611.164 377.854H613.177C613.153 378.445 612.969 378.999 612.623 379.515C612.277 380.024 611.809 380.429 611.217 380.728C610.625 381.026 609.986 381.176 609.301 381.176C607.971 381.176 606.916 380.745 606.137 379.884C605.357 379.022 604.968 377.833 604.968 376.315V376.096C604.968 374.648 605.354 373.491 606.128 372.624C606.901 371.751 607.956 371.314 609.292 371.314C610.423 371.314 611.343 371.646 612.052 372.308C612.767 372.964 613.142 373.828 613.177 374.9H611.164C611.141 374.355 610.953 373.907 610.602 373.556C610.256 373.204 609.813 373.028 609.274 373.028C608.583 373.028 608.05 373.28 607.675 373.784C607.3 374.282 607.109 375.041 607.104 376.061V376.403C607.104 377.435 607.288 378.205 607.657 378.715C608.032 379.219 608.571 379.471 609.274 379.471ZM617.879 376.922L616.93 377.897V381H614.794V367.5H616.93V375.287L617.598 374.452L620.226 371.49H622.792L619.259 375.454L623.17 381H620.7L617.879 376.922ZM628.206 381.176C626.853 381.176 625.754 380.751 624.91 379.901C624.072 379.046 623.653 377.909 623.653 376.491V376.228C623.653 375.278 623.835 374.432 624.198 373.688C624.567 372.938 625.083 372.354 625.745 371.938C626.407 371.522 627.146 371.314 627.96 371.314C629.255 371.314 630.254 371.728 630.957 372.554C631.666 373.38 632.021 374.549 632.021 376.061V376.922H625.807C625.871 377.707 626.132 378.328 626.589 378.785C627.052 379.242 627.632 379.471 628.329 379.471C629.308 379.471 630.104 379.075 630.72 378.284L631.871 379.383C631.49 379.951 630.98 380.394 630.342 380.71C629.709 381.021 628.997 381.176 628.206 381.176ZM627.951 373.028C627.365 373.028 626.891 373.233 626.527 373.644C626.17 374.054 625.941 374.625 625.842 375.357H629.911V375.199C629.864 374.484 629.674 373.945 629.34 373.582C629.006 373.213 628.543 373.028 627.951 373.028ZM638.665 373.441C638.384 373.395 638.094 373.371 637.795 373.371C636.816 373.371 636.157 373.746 635.817 374.496V381H633.682V371.49H635.721L635.773 372.554C636.289 371.728 637.004 371.314 637.918 371.314C638.223 371.314 638.475 371.355 638.674 371.438L638.665 373.441Z" fill="#1F88FE"/>
<g filter="url(#filter1_d_286_1819)">
<circle cx="555" cy="264" r="25" fill="white"/>
<circle cx="555" cy="264" r="24" stroke="#CCCCCC" stroke-width="2"/>
</g>
<path d="M554.076 265.608C554.076 267.721 553.6 269.35 552.647 270.496C551.702 271.642 550.367 272.215 548.641 272.215C546.9 272.215 545.554 271.638 544.602 270.485C543.649 269.332 543.173 267.707 543.173 265.608V262.751C543.173 260.638 543.646 259.009 544.591 257.863C545.543 256.717 546.886 256.145 548.619 256.145C550.352 256.145 551.695 256.721 552.647 257.874C553.6 259.027 554.076 260.656 554.076 262.762V265.608ZM550.456 262.289C550.456 261.165 550.309 260.327 550.016 259.775C549.722 259.217 549.257 258.938 548.619 258.938C547.996 258.938 547.541 259.195 547.255 259.711C546.976 260.227 546.825 261.007 546.804 262.053V266.049C546.804 267.216 546.951 268.072 547.244 268.616C547.538 269.153 548.003 269.422 548.641 269.422C549.257 269.422 549.711 269.16 550.005 268.638C550.299 268.108 550.449 267.281 550.456 266.156V262.289ZM567.085 272H556.171V269.637L561.198 264.352C562.437 262.941 563.057 261.82 563.057 260.989C563.057 260.316 562.91 259.804 562.616 259.453C562.323 259.102 561.896 258.927 561.338 258.927C560.786 258.927 560.339 259.163 559.995 259.636C559.651 260.101 559.479 260.685 559.479 261.387H555.849C555.849 260.427 556.089 259.543 556.568 258.733C557.048 257.917 557.714 257.28 558.566 256.821C559.419 256.363 560.371 256.134 561.424 256.134C563.114 256.134 564.414 256.524 565.323 257.305C566.24 258.085 566.698 259.206 566.698 260.667C566.698 261.283 566.584 261.884 566.354 262.472C566.125 263.052 565.767 263.664 565.28 264.309C564.8 264.946 564.023 265.802 562.949 266.876L560.93 269.207H567.085V272Z" fill="#363636"/>
<rect x="554" y="289" width="2" height="63" fill="#CCCCCC"/>
<circle cx="555" cy="352" r="2" fill="#CCCCCC"/>
<rect x="130.5" y="263.5" width="399" height="1" stroke="#CCCCCC" stroke-dasharray="6 6"/>
<path d="M50.6016 155.773V160H48.625V148.625H52.9766C54.2474 148.625 55.2552 148.956 56 149.617C56.75 150.279 57.125 151.154 57.125 152.242C57.125 153.357 56.7578 154.224 56.0234 154.844C55.2943 155.464 54.2708 155.773 52.9531 155.773H50.6016ZM50.6016 154.188H52.9766C53.6797 154.188 54.2161 154.023 54.5859 153.695C54.9557 153.362 55.1406 152.883 55.1406 152.258C55.1406 151.643 54.9531 151.154 54.5781 150.789C54.2031 150.419 53.6875 150.229 53.0312 150.219H50.6016V154.188ZM60.9453 160H58.9766V148.625H60.9453V160ZM72.0547 156.297C71.9401 157.51 71.4922 158.458 70.7109 159.141C69.9297 159.818 68.8906 160.156 67.5938 160.156C66.6875 160.156 65.888 159.943 65.1953 159.516C64.5078 159.083 63.9766 158.471 63.6016 157.68C63.2266 156.888 63.0312 155.969 63.0156 154.922V153.859C63.0156 152.786 63.2057 151.841 63.5859 151.023C63.9661 150.206 64.5104 149.576 65.2188 149.133C65.9323 148.69 66.7552 148.469 67.6875 148.469C68.9427 148.469 69.9531 148.81 70.7188 149.492C71.4844 150.174 71.9297 151.138 72.0547 152.383H70.0859C69.9922 151.565 69.7526 150.977 69.3672 150.617C68.987 150.253 68.4271 150.07 67.6875 150.07C66.8281 150.07 66.1667 150.385 65.7031 151.016C65.2448 151.641 65.0104 152.56 65 153.773V154.781C65 156.01 65.2188 156.948 65.6562 157.594C66.099 158.24 66.7448 158.562 67.5938 158.562C68.3698 158.562 68.9531 158.388 69.3438 158.039C69.7344 157.69 69.9818 157.109 70.0859 156.297H72.0547ZM82.8516 160H80.875L75.8047 151.93V160H73.8281V148.625H75.8047L80.8906 156.727V148.625H82.8516V160ZM87.2734 160H85.3047V148.625H87.2734V160ZM98.3828 156.297C98.2682 157.51 97.8203 158.458 97.0391 159.141C96.2578 159.818 95.2188 160.156 93.9219 160.156C93.0156 160.156 92.2161 159.943 91.5234 159.516C90.8359 159.083 90.3047 158.471 89.9297 157.68C89.5547 156.888 89.3594 155.969 89.3438 154.922V153.859C89.3438 152.786 89.5339 151.841 89.9141 151.023C90.2943 150.206 90.8385 149.576 91.5469 149.133C92.2604 148.69 93.0833 148.469 94.0156 148.469C95.2708 148.469 96.2812 148.81 97.0469 149.492C97.8125 150.174 98.2578 151.138 98.3828 152.383H96.4141C96.3203 151.565 96.0807 150.977 95.6953 150.617C95.3151 150.253 94.7552 150.07 94.0156 150.07C93.1562 150.07 92.4948 150.385 92.0312 151.016C91.5729 151.641 91.3385 152.56 91.3281 153.773V154.781C91.3281 156.01 91.5469 156.948 91.9844 157.594C92.4271 158.24 93.0729 158.562 93.9219 158.562C94.6979 158.562 95.2812 158.388 95.6719 158.039C96.0625 157.69 96.3099 157.109 96.4141 156.297H98.3828Z" fill="#363636"/>
<path d="M106.117 155.773V160H104.141V148.625H108.492C109.763 148.625 110.771 148.956 111.516 149.617C112.266 150.279 112.641 151.154 112.641 152.242C112.641 153.357 112.273 154.224 111.539 154.844C110.81 155.464 109.786 155.773 108.469 155.773H106.117ZM106.117 154.188H108.492C109.195 154.188 109.732 154.023 110.102 153.695C110.471 153.362 110.656 152.883 110.656 152.258C110.656 151.643 110.469 151.154 110.094 150.789C109.719 150.419 109.203 150.229 108.547 150.219H106.117V154.188ZM118.617 153.281C118.367 153.24 118.109 153.219 117.844 153.219C116.974 153.219 116.388 153.552 116.086 154.219V160H114.188V151.547H116L116.047 152.492C116.505 151.758 117.141 151.391 117.953 151.391C118.224 151.391 118.448 151.427 118.625 151.5L118.617 153.281ZM123.383 160.156C122.18 160.156 121.203 159.779 120.453 159.023C119.708 158.263 119.336 157.253 119.336 155.992V155.758C119.336 154.914 119.497 154.161 119.82 153.5C120.148 152.833 120.607 152.315 121.195 151.945C121.784 151.576 122.44 151.391 123.164 151.391C124.315 151.391 125.203 151.758 125.828 152.492C126.458 153.227 126.773 154.266 126.773 155.609V156.375H121.25C121.307 157.073 121.539 157.625 121.945 158.031C122.357 158.438 122.872 158.641 123.492 158.641C124.362 158.641 125.07 158.289 125.617 157.586L126.641 158.562C126.302 159.068 125.849 159.461 125.281 159.742C124.719 160.018 124.086 160.156 123.383 160.156ZM123.156 152.914C122.635 152.914 122.214 153.096 121.891 153.461C121.573 153.826 121.37 154.333 121.281 154.984H124.898V154.844C124.857 154.208 124.688 153.729 124.391 153.406C124.094 153.078 123.682 152.914 123.156 152.914ZM131.938 155.93H127.836V154.398H131.938V155.93ZM139.633 157.07C139.633 156.57 139.456 156.185 139.102 155.914C138.753 155.643 138.12 155.37 137.203 155.094C136.286 154.818 135.557 154.51 135.016 154.172C133.979 153.521 133.461 152.672 133.461 151.625C133.461 150.708 133.833 149.953 134.578 149.359C135.328 148.766 136.299 148.469 137.492 148.469C138.284 148.469 138.99 148.615 139.609 148.906C140.229 149.198 140.716 149.615 141.07 150.156C141.424 150.693 141.602 151.289 141.602 151.945H139.633C139.633 151.352 139.445 150.888 139.07 150.555C138.701 150.216 138.169 150.047 137.477 150.047C136.831 150.047 136.328 150.185 135.969 150.461C135.615 150.737 135.438 151.122 135.438 151.617C135.438 152.034 135.63 152.383 136.016 152.664C136.401 152.94 137.036 153.211 137.922 153.477C138.807 153.737 139.518 154.036 140.055 154.375C140.591 154.708 140.984 155.094 141.234 155.531C141.484 155.964 141.609 156.471 141.609 157.055C141.609 158.003 141.245 158.758 140.516 159.32C139.792 159.878 138.807 160.156 137.562 160.156C136.74 160.156 135.982 160.005 135.289 159.703C134.602 159.396 134.065 158.974 133.68 158.438C133.299 157.901 133.109 157.276 133.109 156.562H135.086C135.086 157.208 135.299 157.708 135.727 158.062C136.154 158.417 136.766 158.594 137.562 158.594C138.25 158.594 138.766 158.456 139.109 158.18C139.458 157.898 139.633 157.529 139.633 157.07ZM148.211 160C148.128 159.839 148.055 159.576 147.992 159.211C147.388 159.841 146.648 160.156 145.773 160.156C144.924 160.156 144.232 159.914 143.695 159.43C143.159 158.945 142.891 158.346 142.891 157.633C142.891 156.732 143.224 156.042 143.891 155.562C144.562 155.078 145.521 154.836 146.766 154.836H147.93V154.281C147.93 153.844 147.807 153.495 147.562 153.234C147.318 152.969 146.945 152.836 146.445 152.836C146.013 152.836 145.659 152.945 145.383 153.164C145.107 153.378 144.969 153.651 144.969 153.984H143.07C143.07 153.521 143.224 153.089 143.531 152.688C143.839 152.281 144.255 151.964 144.781 151.734C145.312 151.505 145.904 151.391 146.555 151.391C147.544 151.391 148.333 151.641 148.922 152.141C149.51 152.635 149.812 153.333 149.828 154.234V158.047C149.828 158.807 149.935 159.414 150.148 159.867V160H148.211ZM146.125 158.633C146.5 158.633 146.852 158.542 147.18 158.359C147.513 158.177 147.763 157.932 147.93 157.625V156.031H146.906C146.203 156.031 145.674 156.154 145.32 156.398C144.966 156.643 144.789 156.99 144.789 157.438C144.789 157.802 144.909 158.094 145.148 158.312C145.393 158.526 145.719 158.633 146.125 158.633ZM153.836 160H151.938V148H153.836V160ZM159.633 160.156C158.43 160.156 157.453 159.779 156.703 159.023C155.958 158.263 155.586 157.253 155.586 155.992V155.758C155.586 154.914 155.747 154.161 156.07 153.5C156.398 152.833 156.857 152.315 157.445 151.945C158.034 151.576 158.69 151.391 159.414 151.391C160.565 151.391 161.453 151.758 162.078 152.492C162.708 153.227 163.023 154.266 163.023 155.609V156.375H157.5C157.557 157.073 157.789 157.625 158.195 158.031C158.607 158.438 159.122 158.641 159.742 158.641C160.612 158.641 161.32 158.289 161.867 157.586L162.891 158.562C162.552 159.068 162.099 159.461 161.531 159.742C160.969 160.018 160.336 160.156 159.633 160.156ZM159.406 152.914C158.885 152.914 158.464 153.096 158.141 153.461C157.823 153.826 157.62 154.333 157.531 154.984H161.148V154.844C161.107 154.208 160.938 153.729 160.641 153.406C160.344 153.078 159.932 152.914 159.406 152.914Z" fill="#1F88FE"/>
<g filter="url(#filter2_d_286_1819)">
<circle cx="105" cy="264" r="25" fill="white"/>
<circle cx="105" cy="264" r="24" stroke="#CCCCCC" stroke-width="2"/>
</g>
<path d="M105.403 265.608C105.403 267.721 104.927 269.35 103.975 270.496C103.029 271.642 101.694 272.215 99.9678 272.215C98.2275 272.215 96.8812 271.638 95.9287 270.485C94.9762 269.332 94.5 267.707 94.5 265.608V262.751C94.5 260.638 94.9727 259.009 95.918 257.863C96.8704 256.717 98.2132 256.145 99.9463 256.145C101.679 256.145 103.022 256.721 103.975 257.874C104.927 259.027 105.403 260.656 105.403 262.762V265.608ZM101.783 262.289C101.783 261.165 101.636 260.327 101.343 259.775C101.049 259.217 100.584 258.938 99.9463 258.938C99.3232 258.938 98.8685 259.195 98.582 259.711C98.3027 260.227 98.1523 261.007 98.1309 262.053V266.049C98.1309 267.216 98.2777 268.072 98.5713 268.616C98.8649 269.153 99.3304 269.422 99.9678 269.422C100.584 269.422 101.038 269.16 101.332 268.638C101.626 268.108 101.776 267.281 101.783 266.156V262.289ZM114.953 272H111.322V260.441L107.756 261.483V258.733L114.62 256.359H114.953V272Z" fill="#363636"/>
<rect x="104" y="176" width="2" height="63" fill="#CCCCCC"/>
<circle cx="105" cy="176" r="2" fill="#CCCCCC"/>
<rect x="8.5" y="263.5" width="71" height="1" stroke="#CCCCCC" stroke-dasharray="6 6"/>
<circle cx="4" cy="264" r="4" fill="#CCCCCC"/>
<path d="M88.8 119.8C85.17 119.8 82.233 122.77 82.233 126.4C82.233 130.03 85.17 133 88.8 133C92.43 133 95.4 130.03 95.4 126.4C95.4 122.77 92.43 119.8 88.8 119.8ZM69 67V73.6H75.6L87.48 98.647L83.025 106.732C82.497 107.656 82.2 108.745 82.2 109.9C82.2 113.53 85.17 116.5 88.8 116.5H128.4V109.9H90.186C89.724 109.9 89.361 109.537 89.361 109.075L89.46 108.679L92.43 103.3H117.015C119.49 103.3 121.668 101.947 122.79 99.901L134.604 78.484C134.868 78.022 135 77.461 135 76.9C135 75.085 133.515 73.6 131.7 73.6H82.893L79.791 67H69ZM121.8 119.8C118.17 119.8 115.233 122.77 115.233 126.4C115.233 130.03 118.17 133 121.8 133C125.43 133 128.4 130.03 128.4 126.4C128.4 122.77 125.43 119.8 121.8 119.8Z" fill="#363636"/>
<path d="M555 398C545.695 398 538.125 405.402 538.125 414.5V424.4H534.75C532.96 424.4 531.243 425.095 529.977 426.333C528.711 427.571 528 429.25 528 431V457.4C528 459.15 528.711 460.829 529.977 462.067C531.243 463.305 532.96 464 534.75 464H575.25C577.04 464 578.757 463.305 580.023 462.067C581.289 460.829 582 459.15 582 457.4V431C582 429.25 581.289 427.571 580.023 426.333C578.757 425.095 577.04 424.4 575.25 424.4H571.875V414.5C571.875 405.402 564.305 398 555 398ZM544.875 414.5C544.875 409.042 549.418 404.6 555 404.6C560.582 404.6 565.125 409.042 565.125 414.5V424.4H544.875V414.5ZM558.375 449.886V457.4H551.625V449.886C550.445 449.225 549.498 448.23 548.908 447.033C548.318 445.835 548.113 444.49 548.32 443.176C548.527 441.862 549.137 440.641 550.068 439.672C551 438.704 552.21 438.034 553.539 437.752C554.526 437.538 555.549 437.544 556.533 437.769C557.517 437.994 558.437 438.432 559.225 439.051C560.014 439.67 560.649 440.454 561.086 441.345C561.523 442.236 561.75 443.212 561.75 444.2C561.748 445.354 561.435 446.487 560.843 447.486C560.25 448.484 559.399 449.312 558.375 449.886Z" fill="#363636"/>
<path d="M1031 77.8947H1019V70.9474C1019 67.0916 1015.88 64 1012 64H998C994.115 64 991 67.0916 991 70.9474V77.8947H979C975.115 77.8947 972.035 80.9863 972.035 84.8421L972 123.053C972 126.908 975.115 130 979 130H1031C1034.88 130 1038 126.908 1038 123.053V84.8421C1038 80.9863 1034.88 77.8947 1031 77.8947ZM1012 77.8947H998V70.9474H1012V77.8947Z" fill="#323232"/>
<defs>
<filter id="filter0_d_286_1819" x="950" y="209" width="110" height="110" filterUnits="userSpaceOnUse" color-interpolation-filters="sRGB">
<feFlood flood-opacity="0" result="BackgroundImageFix"/>
<feColorMatrix in="SourceAlpha" type="matrix" values="0 0 0 0 0 0 0 0 0 0 0 0 0 0 0 0 0 0 127 0" result="hardAlpha"/>
<feOffset/>
<feGaussianBlur stdDeviation="15"/>
<feColorMatrix type="matrix" values="0 0 0 0 0 0 0 0 0 0 0 0 0 0 0 0 0 0 0.02 0"/>
<feBlend mode="normal" in2="BackgroundImageFix" result="effect1_dropShadow_286_1819"/>
<feBlend mode="normal" in="SourceGraphic" in2="effect1_dropShadow_286_1819" result="shape"/>
</filter>
<filter id="filter1_d_286_1819" x="500" y="209" width="110" height="110" filterUnits="userSpaceOnUse" color-interpolation-filters="sRGB">
<feFlood flood-opacity="0" result="BackgroundImageFix"/>
<feColorMatrix in="SourceAlpha" type="matrix" values="0 0 0 0 0 0 0 0 0 0 0 0 0 0 0 0 0 0 127 0" result="hardAlpha"/>
<feOffset/>
<feGaussianBlur stdDeviation="15"/>
<feColorMatrix type="matrix" values="0 0 0 0 0 0 0 0 0 0 0 0 0 0 0 0 0 0 0.02 0"/>
<feBlend mode="normal" in2="BackgroundImageFix" result="effect1_dropShadow_286_1819"/>
<feBlend mode="normal" in="SourceGraphic" in2="effect1_dropShadow_286_1819" result="shape"/>
</filter>
<filter id="filter2_d_286_1819" x="50" y="209" width="110" height="110" filterUnits="userSpaceOnUse" color-interpolation-filters="sRGB">
<feFlood flood-opacity="0" result="BackgroundImageFix"/>
<feColorMatrix in="SourceAlpha" type="matrix" values="0 0 0 0 0 0 0 0 0 0 0 0 0 0 0 0 0 0 127 0" result="hardAlpha"/>
<feOffset/>
<feGaussianBlur stdDeviation="15"/>
<feColorMatrix type="matrix" values="0 0 0 0 0 0 0 0 0 0 0 0 0 0 0 0 0 0 0.02 0"/>
<feBlend mode="normal" in2="BackgroundImageFix" result="effect1_dropShadow_286_1819"/>
<feBlend mode="normal" in="SourceGraphic" in2="effect1_dropShadow_286_1819" result="shape"/>
</filter>
</defs>
</svg>
