<svg width="1110" height="400" viewBox="0 0 1110 400" fill="none" xmlns="http://www.w3.org/2000/svg">
<circle cx="1106" cy="200" r="4" fill="#CCCCCC"/>
<rect x="1031.5" y="199.5" width="70" height="1" stroke="#CCCCCC" stroke-dasharray="6 6"/>
<path d="M936.613 90.2451V95H934.39V82.2031H939.285C940.715 82.2031 941.849 82.5752 942.687 83.3193C943.53 84.0635 943.952 85.0479 943.952 86.2725C943.952 87.5264 943.539 88.502 942.713 89.1992C941.893 89.8965 940.741 90.2451 939.259 90.2451H936.613ZM936.613 88.4609H939.285C940.076 88.4609 940.68 88.2764 941.096 87.9072C941.512 87.5322 941.72 86.9932 941.72 86.29C941.72 85.5986 941.509 85.0479 941.087 84.6377C940.665 84.2217 940.085 84.0078 939.347 83.9961H936.613V88.4609ZM948.25 95H946.035V82.2031H948.25V95ZM960.748 90.834C960.619 92.1992 960.115 93.2656 959.236 94.0332C958.357 94.7949 957.188 95.1758 955.729 95.1758C954.71 95.1758 953.811 94.9355 953.031 94.4551C952.258 93.9688 951.66 93.2803 951.238 92.3896C950.816 91.499 950.597 90.4648 950.579 89.2871V88.0918C950.579 86.8848 950.793 85.8213 951.221 84.9014C951.648 83.9814 952.261 83.2725 953.058 82.7744C953.86 82.2764 954.786 82.0273 955.835 82.0273C957.247 82.0273 958.384 82.4111 959.245 83.1787C960.106 83.9463 960.607 85.0303 960.748 86.4307H958.533C958.428 85.5107 958.158 84.8486 957.725 84.4443C957.297 84.0342 956.667 83.8291 955.835 83.8291C954.868 83.8291 954.124 84.1836 953.603 84.8926C953.087 85.5957 952.823 86.6299 952.812 87.9951V89.1289C952.812 90.5117 953.058 91.5664 953.55 92.293C954.048 93.0195 954.774 93.3828 955.729 93.3828C956.603 93.3828 957.259 93.1865 957.698 92.7939C958.138 92.4014 958.416 91.748 958.533 90.834H960.748ZM972.895 95H970.671L964.967 85.9209V95H962.743V82.2031H964.967L970.688 91.3174V82.2031H972.895V95ZM977.869 95H975.654V82.2031H977.869V95ZM990.367 90.834C990.238 92.1992 989.734 93.2656 988.855 94.0332C987.977 94.7949 986.808 95.1758 985.349 95.1758C984.329 95.1758 983.43 94.9355 982.65 94.4551C981.877 93.9688 981.279 93.2803 980.857 92.3896C980.436 91.499 980.216 90.4648 980.198 89.2871V88.0918C980.198 86.8848 980.412 85.8213 980.84 84.9014C981.268 83.9814 981.88 83.2725 982.677 82.7744C983.479 82.2764 984.405 82.0273 985.454 82.0273C986.866 82.0273 988.003 82.4111 988.864 83.1787C989.726 83.9463 990.227 85.0303 990.367 86.4307H988.152C988.047 85.5107 987.777 84.8486 987.344 84.4443C986.916 84.0342 986.286 83.8291 985.454 83.8291C984.487 83.8291 983.743 84.1836 983.222 84.8926C982.706 85.5957 982.442 86.6299 982.431 87.9951V89.1289C982.431 90.5117 982.677 91.5664 983.169 92.293C983.667 93.0195 984.394 93.3828 985.349 93.3828C986.222 93.3828 986.878 93.1865 987.317 92.7939C987.757 92.4014 988.035 91.748 988.152 90.834H990.367Z" fill="#363636"/>
<path d="M999.068 93.2246H1004.88V95H996.845V82.2031H999.068V93.2246ZM1008.81 90.2451V95H1006.58V82.2031H1011.48C1012.91 82.2031 1014.04 82.5752 1014.88 83.3193C1015.72 84.0635 1016.15 85.0479 1016.15 86.2725C1016.15 87.5264 1015.73 88.502 1014.91 89.1992C1014.09 89.8965 1012.93 90.2451 1011.45 90.2451H1008.81ZM1008.81 88.4609H1011.48C1012.27 88.4609 1012.87 88.2764 1013.29 87.9072C1013.71 87.5322 1013.91 86.9932 1013.91 86.29C1013.91 85.5986 1013.7 85.0479 1013.28 84.6377C1012.86 84.2217 1012.28 84.0078 1011.54 83.9961H1008.81V88.4609ZM1024.8 93.2246H1030.61V95H1022.58V82.2031H1024.8V93.2246ZM1031.71 90.1572C1031.71 89.2256 1031.9 88.3877 1032.26 87.6436C1032.63 86.8936 1033.15 86.3193 1033.82 85.9209C1034.49 85.5166 1035.26 85.3145 1036.12 85.3145C1037.41 85.3145 1038.45 85.7275 1039.24 86.5537C1040.05 87.3799 1040.48 88.4756 1040.54 89.8408L1040.55 90.3418C1040.55 91.2793 1040.37 92.1172 1040.01 92.8555C1039.65 93.5938 1039.13 94.165 1038.46 94.5693C1037.79 94.9736 1037.02 95.1758 1036.14 95.1758C1034.8 95.1758 1033.72 94.7305 1032.92 93.8398C1032.11 92.9434 1031.71 91.751 1031.71 90.2627V90.1572ZM1033.85 90.3418C1033.85 91.3203 1034.05 92.0879 1034.45 92.6445C1034.86 93.1953 1035.42 93.4707 1036.14 93.4707C1036.86 93.4707 1037.42 93.1895 1037.82 92.627C1038.22 92.0645 1038.43 91.2412 1038.43 90.1572C1038.43 89.1963 1038.22 88.4346 1037.8 87.8721C1037.39 87.3096 1036.83 87.0283 1036.12 87.0283C1035.43 87.0283 1034.87 87.3066 1034.46 87.8633C1034.05 88.4141 1033.85 89.2402 1033.85 90.3418ZM1046.27 93.4707C1046.8 93.4707 1047.24 93.3154 1047.59 93.0049C1047.94 92.6943 1048.13 92.3105 1048.16 91.8535H1050.17C1050.14 92.4453 1049.96 92.999 1049.61 93.5146C1049.27 94.0244 1048.8 94.4287 1048.21 94.7275C1047.62 95.0264 1046.98 95.1758 1046.29 95.1758C1044.96 95.1758 1043.91 94.7451 1043.13 93.8838C1042.35 93.0225 1041.96 91.833 1041.96 90.3154V90.0957C1041.96 88.6484 1042.35 87.4912 1043.12 86.624C1043.89 85.751 1044.95 85.3145 1046.28 85.3145C1047.41 85.3145 1048.33 85.6455 1049.04 86.3076C1049.76 86.9639 1050.13 87.8281 1050.17 88.9004H1048.16C1048.13 88.3555 1047.94 87.9072 1047.59 87.5557C1047.25 87.2041 1046.8 87.0283 1046.27 87.0283C1045.57 87.0283 1045.04 87.2803 1044.67 87.7842C1044.29 88.2822 1044.1 89.041 1044.09 90.0605V90.4033C1044.09 91.4346 1044.28 92.2051 1044.65 92.7148C1045.02 93.2188 1045.56 93.4707 1046.27 93.4707ZM1054.87 90.9219L1053.92 91.8975V95H1051.79V81.5H1053.92V89.2871L1054.59 88.4521L1057.22 85.4902H1059.78L1056.25 89.4541L1060.16 95H1057.69L1054.87 90.9219ZM1065.2 95.1758C1063.84 95.1758 1062.75 94.751 1061.9 93.9014C1061.06 93.0459 1060.64 91.9092 1060.64 90.4912V90.2275C1060.64 89.2783 1060.83 88.4316 1061.19 87.6875C1061.56 86.9375 1062.07 86.3545 1062.74 85.9385C1063.4 85.5225 1064.14 85.3145 1064.95 85.3145C1066.25 85.3145 1067.25 85.7275 1067.95 86.5537C1068.66 87.3799 1069.01 88.5488 1069.01 90.0605V90.9219H1062.8C1062.86 91.707 1063.12 92.3281 1063.58 92.7852C1064.04 93.2422 1064.62 93.4707 1065.32 93.4707C1066.3 93.4707 1067.1 93.0752 1067.71 92.2842L1068.86 93.3828C1068.48 93.9512 1067.97 94.3936 1067.33 94.71C1066.7 95.0205 1065.99 95.1758 1065.2 95.1758ZM1064.94 87.0283C1064.36 87.0283 1063.88 87.2334 1063.52 87.6436C1063.16 88.0537 1062.93 88.625 1062.83 89.3574H1066.9V89.1992C1066.86 88.4844 1066.67 87.9453 1066.33 87.582C1066 87.2129 1065.53 87.0283 1064.94 87.0283ZM1075.66 87.4414C1075.38 87.3945 1075.08 87.3711 1074.79 87.3711C1073.81 87.3711 1073.15 87.7461 1072.81 88.4961V95H1070.67V85.4902H1072.71L1072.76 86.5537C1073.28 85.7275 1074 85.3145 1074.91 85.3145C1075.21 85.3145 1075.47 85.3555 1075.67 85.4375L1075.66 87.4414Z" fill="#1F88FE"/>
<g filter="url(#filter0_d_379_1560)">
<circle cx="1005" cy="200" r="25" fill="white"/>
<circle cx="1005" cy="200" r="24" stroke="#CCCCCC" stroke-width="2"/>
</g>
<path d="M1004.08 201.608C1004.08 203.721 1003.6 205.35 1002.65 206.496C1001.7 207.642 1000.37 208.215 998.641 208.215C996.9 208.215 995.554 207.638 994.602 206.485C993.649 205.332 993.173 203.707 993.173 201.608V198.751C993.173 196.638 993.646 195.009 994.591 193.863C995.543 192.717 996.886 192.145 998.619 192.145C1000.35 192.145 1001.69 192.721 1002.65 193.874C1003.6 195.027 1004.08 196.656 1004.08 198.762V201.608ZM1000.46 198.289C1000.46 197.165 1000.31 196.327 1000.02 195.775C999.722 195.217 999.257 194.938 998.619 194.938C997.996 194.938 997.541 195.195 997.255 195.711C996.976 196.227 996.825 197.007 996.804 198.053V202.049C996.804 203.216 996.951 204.072 997.244 204.616C997.538 205.153 998.003 205.422 998.641 205.422C999.257 205.422 999.711 205.16 1000 204.638C1000.3 204.108 1000.45 203.281 1000.46 202.156V198.289ZM1009.48 198.665H1011.19C1012.54 198.665 1013.22 198.003 1013.22 196.678C1013.22 196.162 1013.06 195.743 1012.73 195.421C1012.41 195.091 1011.96 194.927 1011.37 194.927C1010.89 194.927 1010.47 195.066 1010.11 195.346C1009.76 195.625 1009.59 195.972 1009.59 196.388H1005.97C1005.97 195.564 1006.2 194.83 1006.65 194.186C1007.11 193.541 1007.75 193.04 1008.56 192.682C1009.37 192.316 1010.27 192.134 1011.24 192.134C1012.98 192.134 1014.35 192.531 1015.34 193.326C1016.34 194.121 1016.84 195.213 1016.84 196.603C1016.84 197.276 1016.63 197.913 1016.21 198.515C1015.81 199.109 1015.21 199.592 1014.42 199.965C1015.25 200.266 1015.9 200.724 1016.38 201.34C1016.85 201.949 1017.08 202.704 1017.08 203.606C1017.08 205.003 1016.55 206.12 1015.47 206.958C1014.4 207.796 1012.99 208.215 1011.24 208.215C1010.22 208.215 1009.26 208.021 1008.38 207.635C1007.51 207.241 1006.85 206.7 1006.4 206.013C1005.95 205.318 1005.72 204.53 1005.72 203.649H1009.36C1009.36 204.129 1009.55 204.545 1009.94 204.896C1010.33 205.246 1010.8 205.422 1011.37 205.422C1012.01 205.422 1012.52 205.246 1012.9 204.896C1013.28 204.537 1013.46 204.083 1013.46 203.531C1013.46 202.743 1013.27 202.185 1012.87 201.855C1012.48 201.526 1011.94 201.361 1011.24 201.361H1009.48V198.665Z" fill="#363636"/>
<rect x="1004" y="112" width="2" height="63" fill="#CCCCCC"/>
<circle cx="1005" cy="112" r="2" fill="#CCCCCC"/>
<rect x="580.5" y="199.5" width="400" height="1" stroke="#CCCCCC" stroke-dasharray="6 6"/>
<path d="M472.604 312.245V317H470.381V304.203H475.276C476.706 304.203 477.84 304.575 478.678 305.319C479.521 306.063 479.943 307.048 479.943 308.272C479.943 309.526 479.53 310.502 478.704 311.199C477.884 311.896 476.732 312.245 475.25 312.245H472.604ZM472.604 310.461H475.276C476.067 310.461 476.671 310.276 477.087 309.907C477.503 309.532 477.711 308.993 477.711 308.29C477.711 307.599 477.5 307.048 477.078 306.638C476.656 306.222 476.076 306.008 475.338 305.996H472.604V310.461ZM484.241 317H482.026V304.203H484.241V317ZM496.739 312.834C496.61 314.199 496.106 315.266 495.228 316.033C494.349 316.795 493.18 317.176 491.721 317.176C490.701 317.176 489.802 316.936 489.022 316.455C488.249 315.969 487.651 315.28 487.229 314.39C486.808 313.499 486.588 312.465 486.57 311.287V310.092C486.57 308.885 486.784 307.821 487.212 306.901C487.64 305.981 488.252 305.272 489.049 304.774C489.852 304.276 490.777 304.027 491.826 304.027C493.238 304.027 494.375 304.411 495.236 305.179C496.098 305.946 496.599 307.03 496.739 308.431H494.524C494.419 307.511 494.149 306.849 493.716 306.444C493.288 306.034 492.658 305.829 491.826 305.829C490.859 305.829 490.115 306.184 489.594 306.893C489.078 307.596 488.814 308.63 488.803 309.995V311.129C488.803 312.512 489.049 313.566 489.541 314.293C490.039 315.02 490.766 315.383 491.721 315.383C492.594 315.383 493.25 315.187 493.689 314.794C494.129 314.401 494.407 313.748 494.524 312.834H496.739ZM508.886 317H506.662L500.958 307.921V317H498.734V304.203H500.958L506.68 313.317V304.203H508.886V317ZM513.86 317H511.646V304.203H513.86V317ZM526.358 312.834C526.229 314.199 525.726 315.266 524.847 316.033C523.968 316.795 522.799 317.176 521.34 317.176C520.32 317.176 519.421 316.936 518.642 316.455C517.868 315.969 517.271 315.28 516.849 314.39C516.427 313.499 516.207 312.465 516.189 311.287V310.092C516.189 308.885 516.403 307.821 516.831 306.901C517.259 305.981 517.871 305.272 518.668 304.774C519.471 304.276 520.396 304.027 521.445 304.027C522.857 304.027 523.994 304.411 524.855 305.179C525.717 305.946 526.218 307.03 526.358 308.431H524.144C524.038 307.511 523.769 306.849 523.335 306.444C522.907 306.034 522.277 305.829 521.445 305.829C520.479 305.829 519.734 306.184 519.213 306.893C518.697 307.596 518.434 308.63 518.422 309.995V311.129C518.422 312.512 518.668 313.566 519.16 314.293C519.658 315.02 520.385 315.383 521.34 315.383C522.213 315.383 522.869 315.187 523.309 314.794C523.748 314.401 524.026 313.748 524.144 312.834H526.358Z" fill="#363636"/>
<path d="M542.082 305.996H538.092V317H535.886V305.996H531.931V304.203H542.082V305.996ZM541.335 312.157C541.335 311.226 541.52 310.388 541.889 309.644C542.258 308.894 542.776 308.319 543.444 307.921C544.112 307.517 544.88 307.314 545.747 307.314C547.03 307.314 548.07 307.728 548.867 308.554C549.67 309.38 550.104 310.476 550.168 311.841L550.177 312.342C550.177 313.279 549.995 314.117 549.632 314.855C549.274 315.594 548.759 316.165 548.085 316.569C547.417 316.974 546.644 317.176 545.765 317.176C544.423 317.176 543.348 316.73 542.539 315.84C541.736 314.943 541.335 313.751 541.335 312.263V312.157ZM543.471 312.342C543.471 313.32 543.673 314.088 544.077 314.645C544.481 315.195 545.044 315.471 545.765 315.471C546.485 315.471 547.045 315.189 547.443 314.627C547.848 314.064 548.05 313.241 548.05 312.157C548.05 311.196 547.842 310.435 547.426 309.872C547.016 309.31 546.456 309.028 545.747 309.028C545.05 309.028 544.496 309.307 544.086 309.863C543.676 310.414 543.471 311.24 543.471 312.342ZM555.072 312.922L554.123 313.897V317H551.987V303.5H554.123V311.287L554.791 310.452L557.419 307.49H559.985L556.452 311.454L560.363 317H557.894L555.072 312.922ZM565.399 317.176C564.046 317.176 562.947 316.751 562.104 315.901C561.266 315.046 560.847 313.909 560.847 312.491V312.228C560.847 311.278 561.028 310.432 561.392 309.688C561.761 308.938 562.276 308.354 562.938 307.938C563.601 307.522 564.339 307.314 565.153 307.314C566.448 307.314 567.447 307.728 568.15 308.554C568.859 309.38 569.214 310.549 569.214 312.061V312.922H563C563.064 313.707 563.325 314.328 563.782 314.785C564.245 315.242 564.825 315.471 565.522 315.471C566.501 315.471 567.298 315.075 567.913 314.284L569.064 315.383C568.684 315.951 568.174 316.394 567.535 316.71C566.902 317.021 566.19 317.176 565.399 317.176ZM565.145 309.028C564.559 309.028 564.084 309.233 563.721 309.644C563.363 310.054 563.135 310.625 563.035 311.357H567.104V311.199C567.058 310.484 566.867 309.945 566.533 309.582C566.199 309.213 565.736 309.028 565.145 309.028ZM572.861 307.49L572.923 308.589C573.626 307.739 574.549 307.314 575.691 307.314C577.672 307.314 578.68 308.448 578.715 310.716V317H576.579V310.839C576.579 310.235 576.447 309.79 576.184 309.503C575.926 309.21 575.501 309.063 574.909 309.063C574.048 309.063 573.406 309.453 572.984 310.232V317H570.849V307.49H572.861ZM587.812 315.225H593.621V317H585.588V304.203H587.812V315.225ZM594.72 312.157C594.72 311.226 594.904 310.388 595.273 309.644C595.643 308.894 596.161 308.319 596.829 307.921C597.497 307.517 598.265 307.314 599.132 307.314C600.415 307.314 601.455 307.728 602.252 308.554C603.055 309.38 603.488 310.476 603.553 311.841L603.562 312.342C603.562 313.279 603.38 314.117 603.017 314.855C602.659 315.594 602.144 316.165 601.47 316.569C600.802 316.974 600.028 317.176 599.149 317.176C597.808 317.176 596.732 316.73 595.924 315.84C595.121 314.943 594.72 313.751 594.72 312.263V312.157ZM596.855 312.342C596.855 313.32 597.058 314.088 597.462 314.645C597.866 315.195 598.429 315.471 599.149 315.471C599.87 315.471 600.43 315.189 600.828 314.627C601.232 314.064 601.435 313.241 601.435 312.157C601.435 311.196 601.227 310.435 600.811 309.872C600.4 309.31 599.841 309.028 599.132 309.028C598.435 309.028 597.881 309.307 597.471 309.863C597.061 310.414 596.855 311.24 596.855 312.342ZM609.274 315.471C609.808 315.471 610.25 315.315 610.602 315.005C610.953 314.694 611.141 314.311 611.164 313.854H613.177C613.153 314.445 612.969 314.999 612.623 315.515C612.277 316.024 611.809 316.429 611.217 316.728C610.625 317.026 609.986 317.176 609.301 317.176C607.971 317.176 606.916 316.745 606.137 315.884C605.357 315.022 604.968 313.833 604.968 312.315V312.096C604.968 310.648 605.354 309.491 606.128 308.624C606.901 307.751 607.956 307.314 609.292 307.314C610.423 307.314 611.343 307.646 612.052 308.308C612.767 308.964 613.142 309.828 613.177 310.9H611.164C611.141 310.355 610.953 309.907 610.602 309.556C610.256 309.204 609.813 309.028 609.274 309.028C608.583 309.028 608.05 309.28 607.675 309.784C607.3 310.282 607.109 311.041 607.104 312.061V312.403C607.104 313.435 607.288 314.205 607.657 314.715C608.032 315.219 608.571 315.471 609.274 315.471ZM617.879 312.922L616.93 313.897V317H614.794V303.5H616.93V311.287L617.598 310.452L620.226 307.49H622.792L619.259 311.454L623.17 317H620.7L617.879 312.922ZM628.206 317.176C626.853 317.176 625.754 316.751 624.91 315.901C624.072 315.046 623.653 313.909 623.653 312.491V312.228C623.653 311.278 623.835 310.432 624.198 309.688C624.567 308.938 625.083 308.354 625.745 307.938C626.407 307.522 627.146 307.314 627.96 307.314C629.255 307.314 630.254 307.728 630.957 308.554C631.666 309.38 632.021 310.549 632.021 312.061V312.922H625.807C625.871 313.707 626.132 314.328 626.589 314.785C627.052 315.242 627.632 315.471 628.329 315.471C629.308 315.471 630.104 315.075 630.72 314.284L631.871 315.383C631.49 315.951 630.98 316.394 630.342 316.71C629.709 317.021 628.997 317.176 628.206 317.176ZM627.951 309.028C627.365 309.028 626.891 309.233 626.527 309.644C626.17 310.054 625.941 310.625 625.842 311.357H629.911V311.199C629.864 310.484 629.674 309.945 629.34 309.582C629.006 309.213 628.543 309.028 627.951 309.028ZM638.665 309.441C638.384 309.395 638.094 309.371 637.795 309.371C636.816 309.371 636.157 309.746 635.817 310.496V317H633.682V307.49H635.721L635.773 308.554C636.289 307.728 637.004 307.314 637.918 307.314C638.223 307.314 638.475 307.355 638.674 307.438L638.665 309.441Z" fill="#1F88FE"/>
<g filter="url(#filter1_d_379_1560)">
<circle cx="555" cy="200" r="25" fill="white"/>
<circle cx="555" cy="200" r="24" stroke="#CCCCCC" stroke-width="2"/>
</g>
<path d="M554.076 201.608C554.076 203.721 553.6 205.35 552.647 206.496C551.702 207.642 550.367 208.215 548.641 208.215C546.9 208.215 545.554 207.638 544.602 206.485C543.649 205.332 543.173 203.707 543.173 201.608V198.751C543.173 196.638 543.646 195.009 544.591 193.863C545.543 192.717 546.886 192.145 548.619 192.145C550.352 192.145 551.695 192.721 552.647 193.874C553.6 195.027 554.076 196.656 554.076 198.762V201.608ZM550.456 198.289C550.456 197.165 550.309 196.327 550.016 195.775C549.722 195.217 549.257 194.938 548.619 194.938C547.996 194.938 547.541 195.195 547.255 195.711C546.976 196.227 546.825 197.007 546.804 198.053V202.049C546.804 203.216 546.951 204.072 547.244 204.616C547.538 205.153 548.003 205.422 548.641 205.422C549.257 205.422 549.711 205.16 550.005 204.638C550.299 204.108 550.449 203.281 550.456 202.156V198.289ZM567.085 208H556.171V205.637L561.198 200.352C562.437 198.941 563.057 197.82 563.057 196.989C563.057 196.316 562.91 195.804 562.616 195.453C562.323 195.102 561.896 194.927 561.338 194.927C560.786 194.927 560.339 195.163 559.995 195.636C559.651 196.101 559.479 196.685 559.479 197.387H555.849C555.849 196.427 556.089 195.543 556.568 194.733C557.048 193.917 557.714 193.28 558.566 192.821C559.419 192.363 560.371 192.134 561.424 192.134C563.114 192.134 564.414 192.524 565.323 193.305C566.24 194.085 566.698 195.206 566.698 196.667C566.698 197.283 566.584 197.884 566.354 198.472C566.125 199.052 565.767 199.664 565.28 200.309C564.8 200.946 564.023 201.802 562.949 202.876L560.93 205.207H567.085V208Z" fill="#363636"/>
<rect x="554" y="225" width="2" height="63" fill="#CCCCCC"/>
<circle cx="555" cy="288" r="2" fill="#CCCCCC"/>
<rect x="130.5" y="199.5" width="399" height="1" stroke="#CCCCCC" stroke-dasharray="6 6"/>
<path d="M50.6016 91.7734V96H48.625V84.625H52.9766C54.2474 84.625 55.2552 84.9557 56 85.6172C56.75 86.2786 57.125 87.1536 57.125 88.2422C57.125 89.3568 56.7578 90.224 56.0234 90.8438C55.2943 91.4635 54.2708 91.7734 52.9531 91.7734H50.6016ZM50.6016 90.1875H52.9766C53.6797 90.1875 54.2161 90.0234 54.5859 89.6953C54.9557 89.362 55.1406 88.8828 55.1406 88.2578C55.1406 87.6432 54.9531 87.1536 54.5781 86.7891C54.2031 86.4193 53.6875 86.2292 53.0312 86.2188H50.6016V90.1875ZM60.9453 96H58.9766V84.625H60.9453V96ZM72.0547 92.2969C71.9401 93.5104 71.4922 94.4583 70.7109 95.1406C69.9297 95.8177 68.8906 96.1562 67.5938 96.1562C66.6875 96.1562 65.888 95.9427 65.1953 95.5156C64.5078 95.0833 63.9766 94.4714 63.6016 93.6797C63.2266 92.888 63.0312 91.9688 63.0156 90.9219V89.8594C63.0156 88.7865 63.2057 87.8411 63.5859 87.0234C63.9661 86.2057 64.5104 85.5755 65.2188 85.1328C65.9323 84.6901 66.7552 84.4688 67.6875 84.4688C68.9427 84.4688 69.9531 84.8099 70.7188 85.4922C71.4844 86.1745 71.9297 87.138 72.0547 88.3828H70.0859C69.9922 87.5651 69.7526 86.9766 69.3672 86.6172C68.987 86.2526 68.4271 86.0703 67.6875 86.0703C66.8281 86.0703 66.1667 86.3854 65.7031 87.0156C65.2448 87.6406 65.0104 88.5599 65 89.7734V90.7812C65 92.0104 65.2188 92.9479 65.6562 93.5938C66.099 94.2396 66.7448 94.5625 67.5938 94.5625C68.3698 94.5625 68.9531 94.388 69.3438 94.0391C69.7344 93.6901 69.9818 93.1094 70.0859 92.2969H72.0547ZM82.8516 96H80.875L75.8047 87.9297V96H73.8281V84.625H75.8047L80.8906 92.7266V84.625H82.8516V96ZM87.2734 96H85.3047V84.625H87.2734V96ZM98.3828 92.2969C98.2682 93.5104 97.8203 94.4583 97.0391 95.1406C96.2578 95.8177 95.2188 96.1562 93.9219 96.1562C93.0156 96.1562 92.2161 95.9427 91.5234 95.5156C90.8359 95.0833 90.3047 94.4714 89.9297 93.6797C89.5547 92.888 89.3594 91.9688 89.3438 90.9219V89.8594C89.3438 88.7865 89.5339 87.8411 89.9141 87.0234C90.2943 86.2057 90.8385 85.5755 91.5469 85.1328C92.2604 84.6901 93.0833 84.4688 94.0156 84.4688C95.2708 84.4688 96.2812 84.8099 97.0469 85.4922C97.8125 86.1745 98.2578 87.138 98.3828 88.3828H96.4141C96.3203 87.5651 96.0807 86.9766 95.6953 86.6172C95.3151 86.2526 94.7552 86.0703 94.0156 86.0703C93.1562 86.0703 92.4948 86.3854 92.0312 87.0156C91.5729 87.6406 91.3385 88.5599 91.3281 89.7734V90.7812C91.3281 92.0104 91.5469 92.9479 91.9844 93.5938C92.4271 94.2396 93.0729 94.5625 93.9219 94.5625C94.6979 94.5625 95.2812 94.388 95.6719 94.0391C96.0625 93.6901 96.3099 93.1094 96.4141 92.2969H98.3828Z" fill="#363636"/>
<path d="M106.117 91.7734V96H104.141V84.625H108.492C109.763 84.625 110.771 84.9557 111.516 85.6172C112.266 86.2786 112.641 87.1536 112.641 88.2422C112.641 89.3568 112.273 90.224 111.539 90.8438C110.81 91.4635 109.786 91.7734 108.469 91.7734H106.117ZM106.117 90.1875H108.492C109.195 90.1875 109.732 90.0234 110.102 89.6953C110.471 89.362 110.656 88.8828 110.656 88.2578C110.656 87.6432 110.469 87.1536 110.094 86.7891C109.719 86.4193 109.203 86.2292 108.547 86.2188H106.117V90.1875ZM118.617 89.2812C118.367 89.2396 118.109 89.2188 117.844 89.2188C116.974 89.2188 116.388 89.5521 116.086 90.2188V96H114.188V87.5469H116L116.047 88.4922C116.505 87.7578 117.141 87.3906 117.953 87.3906C118.224 87.3906 118.448 87.4271 118.625 87.5L118.617 89.2812ZM123.383 96.1562C122.18 96.1562 121.203 95.7786 120.453 95.0234C119.708 94.263 119.336 93.2526 119.336 91.9922V91.7578C119.336 90.9141 119.497 90.1615 119.82 89.5C120.148 88.8333 120.607 88.3151 121.195 87.9453C121.784 87.5755 122.44 87.3906 123.164 87.3906C124.315 87.3906 125.203 87.7578 125.828 88.4922C126.458 89.2266 126.773 90.2656 126.773 91.6094V92.375H121.25C121.307 93.0729 121.539 93.625 121.945 94.0312C122.357 94.4375 122.872 94.6406 123.492 94.6406C124.362 94.6406 125.07 94.2891 125.617 93.5859L126.641 94.5625C126.302 95.0677 125.849 95.4609 125.281 95.7422C124.719 96.0182 124.086 96.1562 123.383 96.1562ZM123.156 88.9141C122.635 88.9141 122.214 89.0964 121.891 89.4609C121.573 89.8255 121.37 90.3333 121.281 90.9844H124.898V90.8438C124.857 90.2083 124.688 89.7292 124.391 89.4062C124.094 89.0781 123.682 88.9141 123.156 88.9141ZM131.938 91.9297H127.836V90.3984H131.938V91.9297ZM139.633 93.0703C139.633 92.5703 139.456 92.1849 139.102 91.9141C138.753 91.6432 138.12 91.3698 137.203 91.0938C136.286 90.8177 135.557 90.5104 135.016 90.1719C133.979 89.5208 133.461 88.6719 133.461 87.625C133.461 86.7083 133.833 85.9531 134.578 85.3594C135.328 84.7656 136.299 84.4688 137.492 84.4688C138.284 84.4688 138.99 84.6146 139.609 84.9062C140.229 85.1979 140.716 85.6146 141.07 86.1562C141.424 86.6927 141.602 87.2891 141.602 87.9453H139.633C139.633 87.3516 139.445 86.888 139.07 86.5547C138.701 86.2161 138.169 86.0469 137.477 86.0469C136.831 86.0469 136.328 86.1849 135.969 86.4609C135.615 86.737 135.438 87.1224 135.438 87.6172C135.438 88.0339 135.63 88.3828 136.016 88.6641C136.401 88.9401 137.036 89.2109 137.922 89.4766C138.807 89.737 139.518 90.0365 140.055 90.375C140.591 90.7083 140.984 91.0938 141.234 91.5312C141.484 91.9635 141.609 92.4714 141.609 93.0547C141.609 94.0026 141.245 94.7578 140.516 95.3203C139.792 95.8776 138.807 96.1562 137.562 96.1562C136.74 96.1562 135.982 96.0052 135.289 95.7031C134.602 95.3958 134.065 94.974 133.68 94.4375C133.299 93.901 133.109 93.276 133.109 92.5625H135.086C135.086 93.2083 135.299 93.7083 135.727 94.0625C136.154 94.4167 136.766 94.5938 137.562 94.5938C138.25 94.5938 138.766 94.4557 139.109 94.1797C139.458 93.8984 139.633 93.5286 139.633 93.0703ZM148.211 96C148.128 95.8385 148.055 95.5755 147.992 95.2109C147.388 95.8411 146.648 96.1562 145.773 96.1562C144.924 96.1562 144.232 95.9141 143.695 95.4297C143.159 94.9453 142.891 94.3464 142.891 93.6328C142.891 92.7318 143.224 92.0417 143.891 91.5625C144.562 91.0781 145.521 90.8359 146.766 90.8359H147.93V90.2812C147.93 89.8438 147.807 89.4948 147.562 89.2344C147.318 88.9688 146.945 88.8359 146.445 88.8359C146.013 88.8359 145.659 88.9453 145.383 89.1641C145.107 89.3776 144.969 89.651 144.969 89.9844H143.07C143.07 89.5208 143.224 89.0885 143.531 88.6875C143.839 88.2812 144.255 87.9635 144.781 87.7344C145.312 87.5052 145.904 87.3906 146.555 87.3906C147.544 87.3906 148.333 87.6406 148.922 88.1406C149.51 88.6354 149.812 89.3333 149.828 90.2344V94.0469C149.828 94.8073 149.935 95.4141 150.148 95.8672V96H148.211ZM146.125 94.6328C146.5 94.6328 146.852 94.5417 147.18 94.3594C147.513 94.1771 147.763 93.9323 147.93 93.625V92.0312H146.906C146.203 92.0312 145.674 92.1536 145.32 92.3984C144.966 92.6432 144.789 92.9896 144.789 93.4375C144.789 93.8021 144.909 94.0938 145.148 94.3125C145.393 94.526 145.719 94.6328 146.125 94.6328ZM153.836 96H151.938V84H153.836V96ZM159.633 96.1562C158.43 96.1562 157.453 95.7786 156.703 95.0234C155.958 94.263 155.586 93.2526 155.586 91.9922V91.7578C155.586 90.9141 155.747 90.1615 156.07 89.5C156.398 88.8333 156.857 88.3151 157.445 87.9453C158.034 87.5755 158.69 87.3906 159.414 87.3906C160.565 87.3906 161.453 87.7578 162.078 88.4922C162.708 89.2266 163.023 90.2656 163.023 91.6094V92.375H157.5C157.557 93.0729 157.789 93.625 158.195 94.0312C158.607 94.4375 159.122 94.6406 159.742 94.6406C160.612 94.6406 161.32 94.2891 161.867 93.5859L162.891 94.5625C162.552 95.0677 162.099 95.4609 161.531 95.7422C160.969 96.0182 160.336 96.1562 159.633 96.1562ZM159.406 88.9141C158.885 88.9141 158.464 89.0964 158.141 89.4609C157.823 89.8255 157.62 90.3333 157.531 90.9844H161.148V90.8438C161.107 90.2083 160.938 89.7292 160.641 89.4062C160.344 89.0781 159.932 88.9141 159.406 88.9141Z" fill="#1F88FE"/>
<g filter="url(#filter2_d_379_1560)">
<circle cx="105" cy="200" r="25" fill="white"/>
<circle cx="105" cy="200" r="24" stroke="#CCCCCC" stroke-width="2"/>
</g>
<path d="M105.403 201.608C105.403 203.721 104.927 205.35 103.975 206.496C103.029 207.642 101.694 208.215 99.9678 208.215C98.2275 208.215 96.8812 207.638 95.9287 206.485C94.9762 205.332 94.5 203.707 94.5 201.608V198.751C94.5 196.638 94.9727 195.009 95.918 193.863C96.8704 192.717 98.2132 192.145 99.9463 192.145C101.679 192.145 103.022 192.721 103.975 193.874C104.927 195.027 105.403 196.656 105.403 198.762V201.608ZM101.783 198.289C101.783 197.165 101.636 196.327 101.343 195.775C101.049 195.217 100.584 194.938 99.9463 194.938C99.3232 194.938 98.8685 195.195 98.582 195.711C98.3027 196.227 98.1523 197.007 98.1309 198.053V202.049C98.1309 203.216 98.2777 204.072 98.5713 204.616C98.8649 205.153 99.3304 205.422 99.9678 205.422C100.584 205.422 101.038 205.16 101.332 204.638C101.626 204.108 101.776 203.281 101.783 202.156V198.289ZM114.953 208H111.322V196.441L107.756 197.483V194.733L114.62 192.359H114.953V208Z" fill="#363636"/>
<rect x="104" y="112" width="2" height="63" fill="#CCCCCC"/>
<circle cx="105" cy="112" r="2" fill="#CCCCCC"/>
<rect x="8.5" y="199.5" width="71" height="1" stroke="#CCCCCC" stroke-dasharray="6 6"/>
<circle cx="4" cy="200" r="4" fill="#CCCCCC"/>
<path d="M88.8 55.8C85.17 55.8 82.233 58.77 82.233 62.4C82.233 66.03 85.17 69 88.8 69C92.43 69 95.4 66.03 95.4 62.4C95.4 58.77 92.43 55.8 88.8 55.8ZM69 3V9.6H75.6L87.48 34.647L83.025 42.732C82.497 43.656 82.2 44.745 82.2 45.9C82.2 49.53 85.17 52.5 88.8 52.5H128.4V45.9H90.186C89.724 45.9 89.361 45.537 89.361 45.075L89.46 44.679L92.43 39.3H117.015C119.49 39.3 121.668 37.947 122.79 35.901L134.604 14.484C134.868 14.022 135 13.461 135 12.9C135 11.085 133.515 9.6 131.7 9.6H82.893L79.791 3H69ZM121.8 55.8C118.17 55.8 115.233 58.77 115.233 62.4C115.233 66.03 118.17 69 121.8 69C125.43 69 128.4 66.03 128.4 62.4C128.4 58.77 125.43 55.8 121.8 55.8Z" fill="#363636"/>
<path d="M555 334C545.695 334 538.125 341.402 538.125 350.5V360.4H534.75C532.96 360.4 531.243 361.095 529.977 362.333C528.711 363.571 528 365.25 528 367V393.4C528 395.15 528.711 396.829 529.977 398.067C531.243 399.305 532.96 400 534.75 400H575.25C577.04 400 578.757 399.305 580.023 398.067C581.289 396.829 582 395.15 582 393.4V367C582 365.25 581.289 363.571 580.023 362.333C578.757 361.095 577.04 360.4 575.25 360.4H571.875V350.5C571.875 341.402 564.305 334 555 334ZM544.875 350.5C544.875 345.042 549.418 340.6 555 340.6C560.582 340.6 565.125 345.042 565.125 350.5V360.4H544.875V350.5ZM558.375 385.886V393.4H551.625V385.886C550.445 385.225 549.498 384.23 548.908 383.033C548.318 381.835 548.113 380.49 548.32 379.176C548.527 377.862 549.137 376.641 550.068 375.672C551 374.704 552.21 374.034 553.539 373.752C554.526 373.538 555.549 373.544 556.533 373.769C557.517 373.994 558.437 374.432 559.225 375.051C560.014 375.67 560.649 376.454 561.086 377.345C561.523 378.236 561.75 379.212 561.75 380.2C561.748 381.354 561.435 382.487 560.843 383.486C560.25 384.484 559.399 385.312 558.375 385.886V385.886Z" fill="#363636"/>
<path d="M1031 13.8947H1019V6.94737C1019 3.09158 1015.88 0 1012 0H998C994.115 0 991 3.09158 991 6.94737V13.8947H979C975.115 13.8947 972.035 16.9863 972.035 20.8421L972 59.0526C972 62.9084 975.115 66 979 66H1031C1034.88 66 1038 62.9084 1038 59.0526V20.8421C1038 16.9863 1034.88 13.8947 1031 13.8947ZM1012 13.8947H998V6.94737H1012V13.8947Z" fill="#323232"/>
<defs>
<filter id="filter0_d_379_1560" x="950" y="145" width="110" height="110" filterUnits="userSpaceOnUse" color-interpolation-filters="sRGB">
<feFlood flood-opacity="0" result="BackgroundImageFix"/>
<feColorMatrix in="SourceAlpha" type="matrix" values="0 0 0 0 0 0 0 0 0 0 0 0 0 0 0 0 0 0 127 0" result="hardAlpha"/>
<feOffset/>
<feGaussianBlur stdDeviation="15"/>
<feColorMatrix type="matrix" values="0 0 0 0 0 0 0 0 0 0 0 0 0 0 0 0 0 0 0.02 0"/>
<feBlend mode="normal" in2="BackgroundImageFix" result="effect1_dropShadow_379_1560"/>
<feBlend mode="normal" in="SourceGraphic" in2="effect1_dropShadow_379_1560" result="shape"/>
</filter>
<filter id="filter1_d_379_1560" x="500" y="145" width="110" height="110" filterUnits="userSpaceOnUse" color-interpolation-filters="sRGB">
<feFlood flood-opacity="0" result="BackgroundImageFix"/>
<feColorMatrix in="SourceAlpha" type="matrix" values="0 0 0 0 0 0 0 0 0 0 0 0 0 0 0 0 0 0 127 0" result="hardAlpha"/>
<feOffset/>
<feGaussianBlur stdDeviation="15"/>
<feColorMatrix type="matrix" values="0 0 0 0 0 0 0 0 0 0 0 0 0 0 0 0 0 0 0.02 0"/>
<feBlend mode="normal" in2="BackgroundImageFix" result="effect1_dropShadow_379_1560"/>
<feBlend mode="normal" in="SourceGraphic" in2="effect1_dropShadow_379_1560" result="shape"/>
</filter>
<filter id="filter2_d_379_1560" x="50" y="145" width="110" height="110" filterUnits="userSpaceOnUse" color-interpolation-filters="sRGB">
<feFlood flood-opacity="0" result="BackgroundImageFix"/>
<feColorMatrix in="SourceAlpha" type="matrix" values="0 0 0 0 0 0 0 0 0 0 0 0 0 0 0 0 0 0 127 0" result="hardAlpha"/>
<feOffset/>
<feGaussianBlur stdDeviation="15"/>
<feColorMatrix type="matrix" values="0 0 0 0 0 0 0 0 0 0 0 0 0 0 0 0 0 0 0.02 0"/>
<feBlend mode="normal" in2="BackgroundImageFix" result="effect1_dropShadow_379_1560"/>
<feBlend mode="normal" in="SourceGraphic" in2="effect1_dropShadow_379_1560" result="shape"/>
</filter>
</defs>
</svg>
