<svg width="1110" height="317" viewBox="0 0 1110 317" fill="none" xmlns="http://www.w3.org/2000/svg">
<circle cx="1106" cy="195" r="4" fill="#CCCCCC"/>
<rect x="1031.5" y="194.5" width="70" height="1" stroke="#CCCCCC" stroke-dasharray="6 6"/>
<path d="M936.613 85.2451V90H934.39V77.2031H939.285C940.715 77.2031 941.849 77.5752 942.687 78.3193C943.53 79.0635 943.952 80.0479 943.952 81.2725C943.952 82.5264 943.539 83.502 942.713 84.1992C941.893 84.8965 940.741 85.2451 939.259 85.2451H936.613ZM936.613 83.4609H939.285C940.076 83.4609 940.68 83.2764 941.096 82.9072C941.512 82.5322 941.72 81.9932 941.72 81.29C941.72 80.5986 941.509 80.0479 941.087 79.6377C940.665 79.2217 940.085 79.0078 939.347 78.9961H936.613V83.4609ZM948.25 90H946.035V77.2031H948.25V90ZM960.748 85.834C960.619 87.1992 960.115 88.2656 959.236 89.0332C958.357 89.7949 957.188 90.1758 955.729 90.1758C954.71 90.1758 953.811 89.9355 953.031 89.4551C952.258 88.9688 951.66 88.2803 951.238 87.3896C950.816 86.499 950.597 85.4648 950.579 84.2871V83.0918C950.579 81.8848 950.793 80.8213 951.221 79.9014C951.648 78.9814 952.261 78.2725 953.058 77.7744C953.86 77.2764 954.786 77.0273 955.835 77.0273C957.247 77.0273 958.384 77.4111 959.245 78.1787C960.106 78.9463 960.607 80.0303 960.748 81.4307H958.533C958.428 80.5107 958.158 79.8486 957.725 79.4443C957.297 79.0342 956.667 78.8291 955.835 78.8291C954.868 78.8291 954.124 79.1836 953.603 79.8926C953.087 80.5957 952.823 81.6299 952.812 82.9951V84.1289C952.812 85.5117 953.058 86.5664 953.55 87.293C954.048 88.0195 954.774 88.3828 955.729 88.3828C956.603 88.3828 957.259 88.1865 957.698 87.7939C958.138 87.4014 958.416 86.748 958.533 85.834H960.748ZM972.895 90H970.671L964.967 80.9209V90H962.743V77.2031H964.967L970.688 86.3174V77.2031H972.895V90ZM977.869 90H975.654V77.2031H977.869V90ZM990.367 85.834C990.238 87.1992 989.734 88.2656 988.855 89.0332C987.977 89.7949 986.808 90.1758 985.349 90.1758C984.329 90.1758 983.43 89.9355 982.65 89.4551C981.877 88.9688 981.279 88.2803 980.857 87.3896C980.436 86.499 980.216 85.4648 980.198 84.2871V83.0918C980.198 81.8848 980.412 80.8213 980.84 79.9014C981.268 78.9814 981.88 78.2725 982.677 77.7744C983.479 77.2764 984.405 77.0273 985.454 77.0273C986.866 77.0273 988.003 77.4111 988.864 78.1787C989.726 78.9463 990.227 80.0303 990.367 81.4307H988.152C988.047 80.5107 987.777 79.8486 987.344 79.4443C986.916 79.0342 986.286 78.8291 985.454 78.8291C984.487 78.8291 983.743 79.1836 983.222 79.8926C982.706 80.5957 982.442 81.6299 982.431 82.9951V84.1289C982.431 85.5117 982.677 86.5664 983.169 87.293C983.667 88.0195 984.394 88.3828 985.349 88.3828C986.222 88.3828 986.878 88.1865 987.317 87.7939C987.757 87.4014 988.035 86.748 988.152 85.834H990.367Z" fill="#363636"/>
<path d="M999.068 88.2246H1004.88V90H996.845V77.2031H999.068V88.2246ZM1008.81 85.2451V90H1006.58V77.2031H1011.48C1012.91 77.2031 1014.04 77.5752 1014.88 78.3193C1015.72 79.0635 1016.15 80.0479 1016.15 81.2725C1016.15 82.5264 1015.73 83.502 1014.91 84.1992C1014.09 84.8965 1012.93 85.2451 1011.45 85.2451H1008.81ZM1008.81 83.4609H1011.48C1012.27 83.4609 1012.87 83.2764 1013.29 82.9072C1013.71 82.5322 1013.91 81.9932 1013.91 81.29C1013.91 80.5986 1013.7 80.0479 1013.28 79.6377C1012.86 79.2217 1012.28 79.0078 1011.54 78.9961H1008.81V83.4609ZM1024.8 88.2246H1030.61V90H1022.58V77.2031H1024.8V88.2246ZM1031.71 85.1572C1031.71 84.2256 1031.9 83.3877 1032.26 82.6436C1032.63 81.8936 1033.15 81.3193 1033.82 80.9209C1034.49 80.5166 1035.26 80.3145 1036.12 80.3145C1037.41 80.3145 1038.45 80.7275 1039.24 81.5537C1040.05 82.3799 1040.48 83.4756 1040.54 84.8408L1040.55 85.3418C1040.55 86.2793 1040.37 87.1172 1040.01 87.8555C1039.65 88.5938 1039.13 89.165 1038.46 89.5693C1037.79 89.9736 1037.02 90.1758 1036.14 90.1758C1034.8 90.1758 1033.72 89.7305 1032.92 88.8398C1032.11 87.9434 1031.71 86.751 1031.71 85.2627V85.1572ZM1033.85 85.3418C1033.85 86.3203 1034.05 87.0879 1034.45 87.6445C1034.86 88.1953 1035.42 88.4707 1036.14 88.4707C1036.86 88.4707 1037.42 88.1895 1037.82 87.627C1038.22 87.0645 1038.43 86.2412 1038.43 85.1572C1038.43 84.1963 1038.22 83.4346 1037.8 82.8721C1037.39 82.3096 1036.83 82.0283 1036.12 82.0283C1035.43 82.0283 1034.87 82.3066 1034.46 82.8633C1034.05 83.4141 1033.85 84.2402 1033.85 85.3418ZM1046.27 88.4707C1046.8 88.4707 1047.24 88.3154 1047.59 88.0049C1047.94 87.6943 1048.13 87.3105 1048.16 86.8535H1050.17C1050.14 87.4453 1049.96 87.999 1049.61 88.5146C1049.27 89.0244 1048.8 89.4287 1048.21 89.7275C1047.62 90.0264 1046.98 90.1758 1046.29 90.1758C1044.96 90.1758 1043.91 89.7451 1043.13 88.8838C1042.35 88.0225 1041.96 86.833 1041.96 85.3154V85.0957C1041.96 83.6484 1042.35 82.4912 1043.12 81.624C1043.89 80.751 1044.95 80.3145 1046.28 80.3145C1047.41 80.3145 1048.33 80.6455 1049.04 81.3076C1049.76 81.9639 1050.13 82.8281 1050.17 83.9004H1048.16C1048.13 83.3555 1047.94 82.9072 1047.59 82.5557C1047.25 82.2041 1046.8 82.0283 1046.27 82.0283C1045.57 82.0283 1045.04 82.2803 1044.67 82.7842C1044.29 83.2822 1044.1 84.041 1044.09 85.0605V85.4033C1044.09 86.4346 1044.28 87.2051 1044.65 87.7148C1045.02 88.2188 1045.56 88.4707 1046.27 88.4707ZM1054.87 85.9219L1053.92 86.8975V90H1051.79V76.5H1053.92V84.2871L1054.59 83.4521L1057.22 80.4902H1059.78L1056.25 84.4541L1060.16 90H1057.69L1054.87 85.9219ZM1065.2 90.1758C1063.84 90.1758 1062.75 89.751 1061.9 88.9014C1061.06 88.0459 1060.64 86.9092 1060.64 85.4912V85.2275C1060.64 84.2783 1060.83 83.4316 1061.19 82.6875C1061.56 81.9375 1062.07 81.3545 1062.74 80.9385C1063.4 80.5225 1064.14 80.3145 1064.95 80.3145C1066.25 80.3145 1067.25 80.7275 1067.95 81.5537C1068.66 82.3799 1069.01 83.5488 1069.01 85.0605V85.9219H1062.8C1062.86 86.707 1063.12 87.3281 1063.58 87.7852C1064.04 88.2422 1064.62 88.4707 1065.32 88.4707C1066.3 88.4707 1067.1 88.0752 1067.71 87.2842L1068.86 88.3828C1068.48 88.9512 1067.97 89.3936 1067.33 89.71C1066.7 90.0205 1065.99 90.1758 1065.2 90.1758ZM1064.94 82.0283C1064.36 82.0283 1063.88 82.2334 1063.52 82.6436C1063.16 83.0537 1062.93 83.625 1062.83 84.3574H1066.9V84.1992C1066.86 83.4844 1066.67 82.9453 1066.33 82.582C1066 82.2129 1065.53 82.0283 1064.94 82.0283ZM1075.66 82.4414C1075.38 82.3945 1075.08 82.3711 1074.79 82.3711C1073.81 82.3711 1073.15 82.7461 1072.81 83.4961V90H1070.67V80.4902H1072.71L1072.76 81.5537C1073.28 80.7275 1074 80.3145 1074.91 80.3145C1075.21 80.3145 1075.47 80.3555 1075.67 80.4375L1075.66 82.4414Z" fill="#1F88FE"/>
<g filter="url(#filter0_d_286_1820)">
<circle cx="1005" cy="195" r="25" fill="white"/>
<circle cx="1005" cy="195" r="24" stroke="#CCCCCC" stroke-width="2"/>
</g>
<path d="M1004.08 196.608C1004.08 198.721 1003.6 200.35 1002.65 201.496C1001.7 202.642 1000.37 203.215 998.641 203.215C996.9 203.215 995.554 202.638 994.602 201.485C993.649 200.332 993.173 198.707 993.173 196.608V193.751C993.173 191.638 993.646 190.009 994.591 188.863C995.543 187.717 996.886 187.145 998.619 187.145C1000.35 187.145 1001.69 187.721 1002.65 188.874C1003.6 190.027 1004.08 191.656 1004.08 193.762V196.608ZM1000.46 193.289C1000.46 192.165 1000.31 191.327 1000.02 190.775C999.722 190.217 999.257 189.938 998.619 189.938C997.996 189.938 997.541 190.195 997.255 190.711C996.976 191.227 996.825 192.007 996.804 193.053V197.049C996.804 198.216 996.951 199.072 997.244 199.616C997.538 200.153 998.003 200.422 998.641 200.422C999.257 200.422 999.711 200.16 1000 199.638C1000.3 199.108 1000.45 198.281 1000.46 197.156V193.289ZM1009.48 193.665H1011.19C1012.54 193.665 1013.22 193.003 1013.22 191.678C1013.22 191.162 1013.06 190.743 1012.73 190.421C1012.41 190.091 1011.96 189.927 1011.37 189.927C1010.89 189.927 1010.47 190.066 1010.11 190.346C1009.76 190.625 1009.59 190.972 1009.59 191.388H1005.97C1005.97 190.564 1006.2 189.83 1006.65 189.186C1007.11 188.541 1007.75 188.04 1008.56 187.682C1009.37 187.316 1010.27 187.134 1011.24 187.134C1012.98 187.134 1014.35 187.531 1015.34 188.326C1016.34 189.121 1016.84 190.213 1016.84 191.603C1016.84 192.276 1016.63 192.913 1016.21 193.515C1015.81 194.109 1015.21 194.592 1014.42 194.965C1015.25 195.266 1015.9 195.724 1016.38 196.34C1016.85 196.949 1017.08 197.704 1017.08 198.606C1017.08 200.003 1016.55 201.12 1015.47 201.958C1014.4 202.796 1012.99 203.215 1011.24 203.215C1010.22 203.215 1009.26 203.021 1008.38 202.635C1007.51 202.241 1006.85 201.7 1006.4 201.013C1005.95 200.318 1005.72 199.53 1005.72 198.649H1009.36C1009.36 199.129 1009.55 199.545 1009.94 199.896C1010.33 200.246 1010.8 200.422 1011.37 200.422C1012.01 200.422 1012.52 200.246 1012.9 199.896C1013.28 199.537 1013.46 199.083 1013.46 198.531C1013.46 197.743 1013.27 197.185 1012.87 196.855C1012.48 196.526 1011.94 196.361 1011.24 196.361H1009.48V193.665Z" fill="#363636"/>
<rect x="1004" y="107" width="2" height="63" fill="#CCCCCC"/>
<circle cx="1005" cy="107" r="2" fill="#CCCCCC"/>
<rect x="580.5" y="194.5" width="400" height="1" stroke="#CCCCCC" stroke-dasharray="6 6"/>
<path d="M472.604 307.245V312H470.381V299.203H475.276C476.706 299.203 477.84 299.575 478.678 300.319C479.521 301.063 479.943 302.048 479.943 303.272C479.943 304.526 479.53 305.502 478.704 306.199C477.884 306.896 476.732 307.245 475.25 307.245H472.604ZM472.604 305.461H475.276C476.067 305.461 476.671 305.276 477.087 304.907C477.503 304.532 477.711 303.993 477.711 303.29C477.711 302.599 477.5 302.048 477.078 301.638C476.656 301.222 476.076 301.008 475.338 300.996H472.604V305.461ZM484.241 312H482.026V299.203H484.241V312ZM496.739 307.834C496.61 309.199 496.106 310.266 495.228 311.033C494.349 311.795 493.18 312.176 491.721 312.176C490.701 312.176 489.802 311.936 489.022 311.455C488.249 310.969 487.651 310.28 487.229 309.39C486.808 308.499 486.588 307.465 486.57 306.287V305.092C486.57 303.885 486.784 302.821 487.212 301.901C487.64 300.981 488.252 300.272 489.049 299.774C489.852 299.276 490.777 299.027 491.826 299.027C493.238 299.027 494.375 299.411 495.236 300.179C496.098 300.946 496.599 302.03 496.739 303.431H494.524C494.419 302.511 494.149 301.849 493.716 301.444C493.288 301.034 492.658 300.829 491.826 300.829C490.859 300.829 490.115 301.184 489.594 301.893C489.078 302.596 488.814 303.63 488.803 304.995V306.129C488.803 307.512 489.049 308.566 489.541 309.293C490.039 310.02 490.766 310.383 491.721 310.383C492.594 310.383 493.25 310.187 493.689 309.794C494.129 309.401 494.407 308.748 494.524 307.834H496.739ZM508.886 312H506.662L500.958 302.921V312H498.734V299.203H500.958L506.68 308.317V299.203H508.886V312ZM513.86 312H511.646V299.203H513.86V312ZM526.358 307.834C526.229 309.199 525.726 310.266 524.847 311.033C523.968 311.795 522.799 312.176 521.34 312.176C520.32 312.176 519.421 311.936 518.642 311.455C517.868 310.969 517.271 310.28 516.849 309.39C516.427 308.499 516.207 307.465 516.189 306.287V305.092C516.189 303.885 516.403 302.821 516.831 301.901C517.259 300.981 517.871 300.272 518.668 299.774C519.471 299.276 520.396 299.027 521.445 299.027C522.857 299.027 523.994 299.411 524.855 300.179C525.717 300.946 526.218 302.03 526.358 303.431H524.144C524.038 302.511 523.769 301.849 523.335 301.444C522.907 301.034 522.277 300.829 521.445 300.829C520.479 300.829 519.734 301.184 519.213 301.893C518.697 302.596 518.434 303.63 518.422 304.995V306.129C518.422 307.512 518.668 308.566 519.16 309.293C519.658 310.02 520.385 310.383 521.34 310.383C522.213 310.383 522.869 310.187 523.309 309.794C523.748 309.401 524.026 308.748 524.144 307.834H526.358Z" fill="#363636"/>
<path d="M542.082 300.996H538.092V312H535.886V300.996H531.931V299.203H542.082V300.996ZM541.335 307.157C541.335 306.226 541.52 305.388 541.889 304.644C542.258 303.894 542.776 303.319 543.444 302.921C544.112 302.517 544.88 302.314 545.747 302.314C547.03 302.314 548.07 302.728 548.867 303.554C549.67 304.38 550.104 305.476 550.168 306.841L550.177 307.342C550.177 308.279 549.995 309.117 549.632 309.855C549.274 310.594 548.759 311.165 548.085 311.569C547.417 311.974 546.644 312.176 545.765 312.176C544.423 312.176 543.348 311.73 542.539 310.84C541.736 309.943 541.335 308.751 541.335 307.263V307.157ZM543.471 307.342C543.471 308.32 543.673 309.088 544.077 309.645C544.481 310.195 545.044 310.471 545.765 310.471C546.485 310.471 547.045 310.189 547.443 309.627C547.848 309.064 548.05 308.241 548.05 307.157C548.05 306.196 547.842 305.435 547.426 304.872C547.016 304.31 546.456 304.028 545.747 304.028C545.05 304.028 544.496 304.307 544.086 304.863C543.676 305.414 543.471 306.24 543.471 307.342ZM555.072 307.922L554.123 308.897V312H551.987V298.5H554.123V306.287L554.791 305.452L557.419 302.49H559.985L556.452 306.454L560.363 312H557.894L555.072 307.922ZM565.399 312.176C564.046 312.176 562.947 311.751 562.104 310.901C561.266 310.046 560.847 308.909 560.847 307.491V307.228C560.847 306.278 561.028 305.432 561.392 304.688C561.761 303.938 562.276 303.354 562.938 302.938C563.601 302.522 564.339 302.314 565.153 302.314C566.448 302.314 567.447 302.728 568.15 303.554C568.859 304.38 569.214 305.549 569.214 307.061V307.922H563C563.064 308.707 563.325 309.328 563.782 309.785C564.245 310.242 564.825 310.471 565.522 310.471C566.501 310.471 567.298 310.075 567.913 309.284L569.064 310.383C568.684 310.951 568.174 311.394 567.535 311.71C566.902 312.021 566.19 312.176 565.399 312.176ZM565.145 304.028C564.559 304.028 564.084 304.233 563.721 304.644C563.363 305.054 563.135 305.625 563.035 306.357H567.104V306.199C567.058 305.484 566.867 304.945 566.533 304.582C566.199 304.213 565.736 304.028 565.145 304.028ZM572.861 302.49L572.923 303.589C573.626 302.739 574.549 302.314 575.691 302.314C577.672 302.314 578.68 303.448 578.715 305.716V312H576.579V305.839C576.579 305.235 576.447 304.79 576.184 304.503C575.926 304.21 575.501 304.063 574.909 304.063C574.048 304.063 573.406 304.453 572.984 305.232V312H570.849V302.49H572.861ZM587.812 310.225H593.621V312H585.588V299.203H587.812V310.225ZM594.72 307.157C594.72 306.226 594.904 305.388 595.273 304.644C595.643 303.894 596.161 303.319 596.829 302.921C597.497 302.517 598.265 302.314 599.132 302.314C600.415 302.314 601.455 302.728 602.252 303.554C603.055 304.38 603.488 305.476 603.553 306.841L603.562 307.342C603.562 308.279 603.38 309.117 603.017 309.855C602.659 310.594 602.144 311.165 601.47 311.569C600.802 311.974 600.028 312.176 599.149 312.176C597.808 312.176 596.732 311.73 595.924 310.84C595.121 309.943 594.72 308.751 594.72 307.263V307.157ZM596.855 307.342C596.855 308.32 597.058 309.088 597.462 309.645C597.866 310.195 598.429 310.471 599.149 310.471C599.87 310.471 600.43 310.189 600.828 309.627C601.232 309.064 601.435 308.241 601.435 307.157C601.435 306.196 601.227 305.435 600.811 304.872C600.4 304.31 599.841 304.028 599.132 304.028C598.435 304.028 597.881 304.307 597.471 304.863C597.061 305.414 596.855 306.24 596.855 307.342ZM609.274 310.471C609.808 310.471 610.25 310.315 610.602 310.005C610.953 309.694 611.141 309.311 611.164 308.854H613.177C613.153 309.445 612.969 309.999 612.623 310.515C612.277 311.024 611.809 311.429 611.217 311.728C610.625 312.026 609.986 312.176 609.301 312.176C607.971 312.176 606.916 311.745 606.137 310.884C605.357 310.022 604.968 308.833 604.968 307.315V307.096C604.968 305.648 605.354 304.491 606.128 303.624C606.901 302.751 607.956 302.314 609.292 302.314C610.423 302.314 611.343 302.646 612.052 303.308C612.767 303.964 613.142 304.828 613.177 305.9H611.164C611.141 305.355 610.953 304.907 610.602 304.556C610.256 304.204 609.813 304.028 609.274 304.028C608.583 304.028 608.05 304.28 607.675 304.784C607.3 305.282 607.109 306.041 607.104 307.061V307.403C607.104 308.435 607.288 309.205 607.657 309.715C608.032 310.219 608.571 310.471 609.274 310.471ZM617.879 307.922L616.93 308.897V312H614.794V298.5H616.93V306.287L617.598 305.452L620.226 302.49H622.792L619.259 306.454L623.17 312H620.7L617.879 307.922ZM628.206 312.176C626.853 312.176 625.754 311.751 624.91 310.901C624.072 310.046 623.653 308.909 623.653 307.491V307.228C623.653 306.278 623.835 305.432 624.198 304.688C624.567 303.938 625.083 303.354 625.745 302.938C626.407 302.522 627.146 302.314 627.96 302.314C629.255 302.314 630.254 302.728 630.957 303.554C631.666 304.38 632.021 305.549 632.021 307.061V307.922H625.807C625.871 308.707 626.132 309.328 626.589 309.785C627.052 310.242 627.632 310.471 628.329 310.471C629.308 310.471 630.104 310.075 630.72 309.284L631.871 310.383C631.49 310.951 630.98 311.394 630.342 311.71C629.709 312.021 628.997 312.176 628.206 312.176ZM627.951 304.028C627.365 304.028 626.891 304.233 626.527 304.644C626.17 305.054 625.941 305.625 625.842 306.357H629.911V306.199C629.864 305.484 629.674 304.945 629.34 304.582C629.006 304.213 628.543 304.028 627.951 304.028ZM638.665 304.441C638.384 304.395 638.094 304.371 637.795 304.371C636.816 304.371 636.157 304.746 635.817 305.496V312H633.682V302.49H635.721L635.773 303.554C636.289 302.728 637.004 302.314 637.918 302.314C638.223 302.314 638.475 302.355 638.674 302.438L638.665 304.441Z" fill="#1F88FE"/>
<g filter="url(#filter1_d_286_1820)">
<circle cx="555" cy="195" r="25" fill="white"/>
<circle cx="555" cy="195" r="24" stroke="#CCCCCC" stroke-width="2"/>
</g>
<path d="M554.076 196.608C554.076 198.721 553.6 200.35 552.647 201.496C551.702 202.642 550.367 203.215 548.641 203.215C546.9 203.215 545.554 202.638 544.602 201.485C543.649 200.332 543.173 198.707 543.173 196.608V193.751C543.173 191.638 543.646 190.009 544.591 188.863C545.543 187.717 546.886 187.145 548.619 187.145C550.352 187.145 551.695 187.721 552.647 188.874C553.6 190.027 554.076 191.656 554.076 193.762V196.608ZM550.456 193.289C550.456 192.165 550.309 191.327 550.016 190.775C549.722 190.217 549.257 189.938 548.619 189.938C547.996 189.938 547.541 190.195 547.255 190.711C546.976 191.227 546.825 192.007 546.804 193.053V197.049C546.804 198.216 546.951 199.072 547.244 199.616C547.538 200.153 548.003 200.422 548.641 200.422C549.257 200.422 549.711 200.16 550.005 199.638C550.299 199.108 550.449 198.281 550.456 197.156V193.289ZM567.085 203H556.171V200.637L561.198 195.352C562.437 193.941 563.057 192.82 563.057 191.989C563.057 191.316 562.91 190.804 562.616 190.453C562.323 190.102 561.896 189.927 561.338 189.927C560.786 189.927 560.339 190.163 559.995 190.636C559.651 191.101 559.479 191.685 559.479 192.387H555.849C555.849 191.427 556.089 190.543 556.568 189.733C557.048 188.917 557.714 188.28 558.566 187.821C559.419 187.363 560.371 187.134 561.424 187.134C563.114 187.134 564.414 187.524 565.323 188.305C566.24 189.085 566.698 190.206 566.698 191.667C566.698 192.283 566.584 192.884 566.354 193.472C566.125 194.052 565.767 194.664 565.28 195.309C564.8 195.946 564.023 196.802 562.949 197.876L560.93 200.207H567.085V203Z" fill="#363636"/>
<rect x="554" y="220" width="2" height="63" fill="#CCCCCC"/>
<circle cx="555" cy="283" r="2" fill="#CCCCCC"/>
<rect x="130.5" y="194.5" width="399" height="1" stroke="#CCCCCC" stroke-dasharray="6 6"/>
<path d="M50.6016 86.7734V91H48.625V79.625H52.9766C54.2474 79.625 55.2552 79.9557 56 80.6172C56.75 81.2786 57.125 82.1536 57.125 83.2422C57.125 84.3568 56.7578 85.224 56.0234 85.8438C55.2943 86.4635 54.2708 86.7734 52.9531 86.7734H50.6016ZM50.6016 85.1875H52.9766C53.6797 85.1875 54.2161 85.0234 54.5859 84.6953C54.9557 84.362 55.1406 83.8828 55.1406 83.2578C55.1406 82.6432 54.9531 82.1536 54.5781 81.7891C54.2031 81.4193 53.6875 81.2292 53.0312 81.2188H50.6016V85.1875ZM60.9453 91H58.9766V79.625H60.9453V91ZM72.0547 87.2969C71.9401 88.5104 71.4922 89.4583 70.7109 90.1406C69.9297 90.8177 68.8906 91.1562 67.5938 91.1562C66.6875 91.1562 65.888 90.9427 65.1953 90.5156C64.5078 90.0833 63.9766 89.4714 63.6016 88.6797C63.2266 87.888 63.0312 86.9688 63.0156 85.9219V84.8594C63.0156 83.7865 63.2057 82.8411 63.5859 82.0234C63.9661 81.2057 64.5104 80.5755 65.2188 80.1328C65.9323 79.6901 66.7552 79.4688 67.6875 79.4688C68.9427 79.4688 69.9531 79.8099 70.7188 80.4922C71.4844 81.1745 71.9297 82.138 72.0547 83.3828H70.0859C69.9922 82.5651 69.7526 81.9766 69.3672 81.6172C68.987 81.2526 68.4271 81.0703 67.6875 81.0703C66.8281 81.0703 66.1667 81.3854 65.7031 82.0156C65.2448 82.6406 65.0104 83.5599 65 84.7734V85.7812C65 87.0104 65.2188 87.9479 65.6562 88.5938C66.099 89.2396 66.7448 89.5625 67.5938 89.5625C68.3698 89.5625 68.9531 89.388 69.3438 89.0391C69.7344 88.6901 69.9818 88.1094 70.0859 87.2969H72.0547ZM82.8516 91H80.875L75.8047 82.9297V91H73.8281V79.625H75.8047L80.8906 87.7266V79.625H82.8516V91ZM87.2734 91H85.3047V79.625H87.2734V91ZM98.3828 87.2969C98.2682 88.5104 97.8203 89.4583 97.0391 90.1406C96.2578 90.8177 95.2188 91.1562 93.9219 91.1562C93.0156 91.1562 92.2161 90.9427 91.5234 90.5156C90.8359 90.0833 90.3047 89.4714 89.9297 88.6797C89.5547 87.888 89.3594 86.9688 89.3438 85.9219V84.8594C89.3438 83.7865 89.5339 82.8411 89.9141 82.0234C90.2943 81.2057 90.8385 80.5755 91.5469 80.1328C92.2604 79.6901 93.0833 79.4688 94.0156 79.4688C95.2708 79.4688 96.2812 79.8099 97.0469 80.4922C97.8125 81.1745 98.2578 82.138 98.3828 83.3828H96.4141C96.3203 82.5651 96.0807 81.9766 95.6953 81.6172C95.3151 81.2526 94.7552 81.0703 94.0156 81.0703C93.1562 81.0703 92.4948 81.3854 92.0312 82.0156C91.5729 82.6406 91.3385 83.5599 91.3281 84.7734V85.7812C91.3281 87.0104 91.5469 87.9479 91.9844 88.5938C92.4271 89.2396 93.0729 89.5625 93.9219 89.5625C94.6979 89.5625 95.2812 89.388 95.6719 89.0391C96.0625 88.6901 96.3099 88.1094 96.4141 87.2969H98.3828Z" fill="#363636"/>
<path d="M106.117 86.7734V91H104.141V79.625H108.492C109.763 79.625 110.771 79.9557 111.516 80.6172C112.266 81.2786 112.641 82.1536 112.641 83.2422C112.641 84.3568 112.273 85.224 111.539 85.8438C110.81 86.4635 109.786 86.7734 108.469 86.7734H106.117ZM106.117 85.1875H108.492C109.195 85.1875 109.732 85.0234 110.102 84.6953C110.471 84.362 110.656 83.8828 110.656 83.2578C110.656 82.6432 110.469 82.1536 110.094 81.7891C109.719 81.4193 109.203 81.2292 108.547 81.2188H106.117V85.1875ZM118.617 84.2812C118.367 84.2396 118.109 84.2188 117.844 84.2188C116.974 84.2188 116.388 84.5521 116.086 85.2188V91H114.188V82.5469H116L116.047 83.4922C116.505 82.7578 117.141 82.3906 117.953 82.3906C118.224 82.3906 118.448 82.4271 118.625 82.5L118.617 84.2812ZM123.383 91.1562C122.18 91.1562 121.203 90.7786 120.453 90.0234C119.708 89.263 119.336 88.2526 119.336 86.9922V86.7578C119.336 85.9141 119.497 85.1615 119.82 84.5C120.148 83.8333 120.607 83.3151 121.195 82.9453C121.784 82.5755 122.44 82.3906 123.164 82.3906C124.315 82.3906 125.203 82.7578 125.828 83.4922C126.458 84.2266 126.773 85.2656 126.773 86.6094V87.375H121.25C121.307 88.0729 121.539 88.625 121.945 89.0312C122.357 89.4375 122.872 89.6406 123.492 89.6406C124.362 89.6406 125.07 89.2891 125.617 88.5859L126.641 89.5625C126.302 90.0677 125.849 90.4609 125.281 90.7422C124.719 91.0182 124.086 91.1562 123.383 91.1562ZM123.156 83.9141C122.635 83.9141 122.214 84.0964 121.891 84.4609C121.573 84.8255 121.37 85.3333 121.281 85.9844H124.898V85.8438C124.857 85.2083 124.688 84.7292 124.391 84.4062C124.094 84.0781 123.682 83.9141 123.156 83.9141ZM131.938 86.9297H127.836V85.3984H131.938V86.9297ZM139.633 88.0703C139.633 87.5703 139.456 87.1849 139.102 86.9141C138.753 86.6432 138.12 86.3698 137.203 86.0938C136.286 85.8177 135.557 85.5104 135.016 85.1719C133.979 84.5208 133.461 83.6719 133.461 82.625C133.461 81.7083 133.833 80.9531 134.578 80.3594C135.328 79.7656 136.299 79.4688 137.492 79.4688C138.284 79.4688 138.99 79.6146 139.609 79.9062C140.229 80.1979 140.716 80.6146 141.07 81.1562C141.424 81.6927 141.602 82.2891 141.602 82.9453H139.633C139.633 82.3516 139.445 81.888 139.07 81.5547C138.701 81.2161 138.169 81.0469 137.477 81.0469C136.831 81.0469 136.328 81.1849 135.969 81.4609C135.615 81.737 135.438 82.1224 135.438 82.6172C135.438 83.0339 135.63 83.3828 136.016 83.6641C136.401 83.9401 137.036 84.2109 137.922 84.4766C138.807 84.737 139.518 85.0365 140.055 85.375C140.591 85.7083 140.984 86.0938 141.234 86.5312C141.484 86.9635 141.609 87.4714 141.609 88.0547C141.609 89.0026 141.245 89.7578 140.516 90.3203C139.792 90.8776 138.807 91.1562 137.562 91.1562C136.74 91.1562 135.982 91.0052 135.289 90.7031C134.602 90.3958 134.065 89.974 133.68 89.4375C133.299 88.901 133.109 88.276 133.109 87.5625H135.086C135.086 88.2083 135.299 88.7083 135.727 89.0625C136.154 89.4167 136.766 89.5938 137.562 89.5938C138.25 89.5938 138.766 89.4557 139.109 89.1797C139.458 88.8984 139.633 88.5286 139.633 88.0703ZM148.211 91C148.128 90.8385 148.055 90.5755 147.992 90.2109C147.388 90.8411 146.648 91.1562 145.773 91.1562C144.924 91.1562 144.232 90.9141 143.695 90.4297C143.159 89.9453 142.891 89.3464 142.891 88.6328C142.891 87.7318 143.224 87.0417 143.891 86.5625C144.562 86.0781 145.521 85.8359 146.766 85.8359H147.93V85.2812C147.93 84.8438 147.807 84.4948 147.562 84.2344C147.318 83.9688 146.945 83.8359 146.445 83.8359C146.013 83.8359 145.659 83.9453 145.383 84.1641C145.107 84.3776 144.969 84.651 144.969 84.9844H143.07C143.07 84.5208 143.224 84.0885 143.531 83.6875C143.839 83.2812 144.255 82.9635 144.781 82.7344C145.312 82.5052 145.904 82.3906 146.555 82.3906C147.544 82.3906 148.333 82.6406 148.922 83.1406C149.51 83.6354 149.812 84.3333 149.828 85.2344V89.0469C149.828 89.8073 149.935 90.4141 150.148 90.8672V91H148.211ZM146.125 89.6328C146.5 89.6328 146.852 89.5417 147.18 89.3594C147.513 89.1771 147.763 88.9323 147.93 88.625V87.0312H146.906C146.203 87.0312 145.674 87.1536 145.32 87.3984C144.966 87.6432 144.789 87.9896 144.789 88.4375C144.789 88.8021 144.909 89.0938 145.148 89.3125C145.393 89.526 145.719 89.6328 146.125 89.6328ZM153.836 91H151.938V79H153.836V91ZM159.633 91.1562C158.43 91.1562 157.453 90.7786 156.703 90.0234C155.958 89.263 155.586 88.2526 155.586 86.9922V86.7578C155.586 85.9141 155.747 85.1615 156.07 84.5C156.398 83.8333 156.857 83.3151 157.445 82.9453C158.034 82.5755 158.69 82.3906 159.414 82.3906C160.565 82.3906 161.453 82.7578 162.078 83.4922C162.708 84.2266 163.023 85.2656 163.023 86.6094V87.375H157.5C157.557 88.0729 157.789 88.625 158.195 89.0312C158.607 89.4375 159.122 89.6406 159.742 89.6406C160.612 89.6406 161.32 89.2891 161.867 88.5859L162.891 89.5625C162.552 90.0677 162.099 90.4609 161.531 90.7422C160.969 91.0182 160.336 91.1562 159.633 91.1562ZM159.406 83.9141C158.885 83.9141 158.464 84.0964 158.141 84.4609C157.823 84.8255 157.62 85.3333 157.531 85.9844H161.148V85.8438C161.107 85.2083 160.938 84.7292 160.641 84.4062C160.344 84.0781 159.932 83.9141 159.406 83.9141Z" fill="#1F88FE"/>
<g filter="url(#filter2_d_286_1820)">
<circle cx="105" cy="195" r="25" fill="white"/>
<circle cx="105" cy="195" r="24" stroke="#CCCCCC" stroke-width="2"/>
</g>
<path d="M105.403 196.608C105.403 198.721 104.927 200.35 103.975 201.496C103.029 202.642 101.694 203.215 99.9678 203.215C98.2275 203.215 96.8812 202.638 95.9287 201.485C94.9762 200.332 94.5 198.707 94.5 196.608V193.751C94.5 191.638 94.9727 190.009 95.918 188.863C96.8704 187.717 98.2132 187.145 99.9463 187.145C101.679 187.145 103.022 187.721 103.975 188.874C104.927 190.027 105.403 191.656 105.403 193.762V196.608ZM101.783 193.289C101.783 192.165 101.636 191.327 101.343 190.775C101.049 190.217 100.584 189.938 99.9463 189.938C99.3232 189.938 98.8685 190.195 98.582 190.711C98.3027 191.227 98.1523 192.007 98.1309 193.053V197.049C98.1309 198.216 98.2777 199.072 98.5713 199.616C98.8649 200.153 99.3304 200.422 99.9678 200.422C100.584 200.422 101.038 200.16 101.332 199.638C101.626 199.108 101.776 198.281 101.783 197.156V193.289ZM114.953 203H111.322V191.441L107.756 192.483V189.733L114.62 187.359H114.953V203Z" fill="#363636"/>
<rect x="104" y="107" width="2" height="63" fill="#CCCCCC"/>
<circle cx="105" cy="107" r="2" fill="#CCCCCC"/>
<rect x="8.5" y="194.5" width="71" height="1" stroke="#CCCCCC" stroke-dasharray="6 6"/>
<circle cx="4" cy="195" r="4" fill="#CCCCCC"/>
<defs>
<filter id="filter0_d_286_1820" x="950" y="140" width="110" height="110" filterUnits="userSpaceOnUse" color-interpolation-filters="sRGB">
<feFlood flood-opacity="0" result="BackgroundImageFix"/>
<feColorMatrix in="SourceAlpha" type="matrix" values="0 0 0 0 0 0 0 0 0 0 0 0 0 0 0 0 0 0 127 0" result="hardAlpha"/>
<feOffset/>
<feGaussianBlur stdDeviation="15"/>
<feColorMatrix type="matrix" values="0 0 0 0 0 0 0 0 0 0 0 0 0 0 0 0 0 0 0.02 0"/>
<feBlend mode="normal" in2="BackgroundImageFix" result="effect1_dropShadow_286_1820"/>
<feBlend mode="normal" in="SourceGraphic" in2="effect1_dropShadow_286_1820" result="shape"/>
</filter>
<filter id="filter1_d_286_1820" x="500" y="140" width="110" height="110" filterUnits="userSpaceOnUse" color-interpolation-filters="sRGB">
<feFlood flood-opacity="0" result="BackgroundImageFix"/>
<feColorMatrix in="SourceAlpha" type="matrix" values="0 0 0 0 0 0 0 0 0 0 0 0 0 0 0 0 0 0 127 0" result="hardAlpha"/>
<feOffset/>
<feGaussianBlur stdDeviation="15"/>
<feColorMatrix type="matrix" values="0 0 0 0 0 0 0 0 0 0 0 0 0 0 0 0 0 0 0.02 0"/>
<feBlend mode="normal" in2="BackgroundImageFix" result="effect1_dropShadow_286_1820"/>
<feBlend mode="normal" in="SourceGraphic" in2="effect1_dropShadow_286_1820" result="shape"/>
</filter>
<filter id="filter2_d_286_1820" x="50" y="140" width="110" height="110" filterUnits="userSpaceOnUse" color-interpolation-filters="sRGB">
<feFlood flood-opacity="0" result="BackgroundImageFix"/>
<feColorMatrix in="SourceAlpha" type="matrix" values="0 0 0 0 0 0 0 0 0 0 0 0 0 0 0 0 0 0 127 0" result="hardAlpha"/>
<feOffset/>
<feGaussianBlur stdDeviation="15"/>
<feColorMatrix type="matrix" values="0 0 0 0 0 0 0 0 0 0 0 0 0 0 0 0 0 0 0.02 0"/>
<feBlend mode="normal" in2="BackgroundImageFix" result="effect1_dropShadow_286_1820"/>
<feBlend mode="normal" in="SourceGraphic" in2="effect1_dropShadow_286_1820" result="shape"/>
</filter>
</defs>
</svg>
