<svg width="170" height="703" viewBox="0 0 170 703" fill="none" xmlns="http://www.w3.org/2000/svg">
<rect x="86.5" y="434.5" width="59" height="1" transform="rotate(90 86.5 434.5)" stroke="#CCCCCC" stroke-dasharray="6 6"/>
<g filter="url(#filter0_d_400_1561)">
<circle cx="86" cy="519" r="25" fill="white"/>
<circle cx="86" cy="519" r="24" stroke="#CCCCCC" stroke-width="2"/>
</g>
<path d="M85.0762 520.608C85.0762 522.721 84.5999 524.35 83.6475 525.496C82.7021 526.642 81.3665 527.215 79.6406 527.215C77.9004 527.215 76.554 526.638 75.6016 525.485C74.6491 524.332 74.1729 522.707 74.1729 520.608V517.751C74.1729 515.638 74.6455 514.009 75.5908 512.863C76.5433 511.717 77.8861 511.145 79.6191 511.145C81.3522 511.145 82.695 511.721 83.6475 512.874C84.5999 514.027 85.0762 515.656 85.0762 517.762V520.608ZM81.4561 517.289C81.4561 516.165 81.3092 515.327 81.0156 514.775C80.722 514.217 80.2565 513.938 79.6191 513.938C78.9961 513.938 78.5413 514.195 78.2549 514.711C77.9756 515.227 77.8252 516.007 77.8037 517.053V521.049C77.8037 522.216 77.9505 523.072 78.2441 523.616C78.5378 524.153 79.0033 524.422 79.6406 524.422C80.2565 524.422 80.7113 524.16 81.0049 523.638C81.2985 523.108 81.4489 522.281 81.4561 521.156V517.289ZM90.4795 517.665H92.1875C93.541 517.665 94.2178 517.003 94.2178 515.678C94.2178 515.162 94.0566 514.743 93.7344 514.421C93.4121 514.091 92.9574 513.927 92.3701 513.927C91.8903 513.927 91.4714 514.066 91.1133 514.346C90.7624 514.625 90.5869 514.972 90.5869 515.388H86.9668C86.9668 514.564 87.196 513.83 87.6543 513.186C88.1126 512.541 88.7464 512.04 89.5557 511.682C90.3721 511.316 91.2673 511.134 92.2412 511.134C93.9814 511.134 95.3493 511.531 96.3447 512.326C97.3402 513.121 97.8379 514.213 97.8379 515.603C97.8379 516.276 97.6302 516.913 97.2148 517.515C96.8066 518.109 96.2087 518.592 95.4209 518.965C96.2516 519.266 96.9033 519.724 97.376 520.34C97.8486 520.949 98.085 521.704 98.085 522.606C98.085 524.003 97.5479 525.12 96.4736 525.958C95.3994 526.796 93.9886 527.215 92.2412 527.215C91.2171 527.215 90.2646 527.021 89.3838 526.635C88.5101 526.241 87.8477 525.7 87.3965 525.013C86.9453 524.318 86.7197 523.53 86.7197 522.649H90.3613C90.3613 523.129 90.5547 523.545 90.9414 523.896C91.3281 524.246 91.8044 524.422 92.3701 524.422C93.0075 524.422 93.516 524.246 93.8955 523.896C94.2751 523.537 94.4648 523.083 94.4648 522.531C94.4648 521.743 94.2679 521.185 93.874 520.855C93.4801 520.526 92.9359 520.361 92.2412 520.361H90.4795V517.665Z" fill="#363636"/>
<rect x="85.5" y="695.5" width="29" height="1" transform="rotate(-90 85.5 695.5)" stroke="#CCCCCC" stroke-dasharray="6 6"/>
<circle cx="86" cy="699" r="4" transform="rotate(-90 86 699)" fill="#CCCCCC"/>
<path d="M18.6133 644.245V649H16.3896V636.203H21.2852C22.7148 636.203 23.8486 636.575 24.6865 637.319C25.5303 638.063 25.9521 639.048 25.9521 640.272C25.9521 641.526 25.5391 642.502 24.7129 643.199C23.8926 643.896 22.7412 644.245 21.2588 644.245H18.6133ZM18.6133 642.461H21.2852C22.0762 642.461 22.6797 642.276 23.0957 641.907C23.5117 641.532 23.7197 640.993 23.7197 640.29C23.7197 639.599 23.5088 639.048 23.0869 638.638C22.665 638.222 22.085 638.008 21.3467 637.996H18.6133V642.461ZM30.25 649H28.0352V636.203H30.25V649ZM42.748 644.834C42.6191 646.199 42.1152 647.266 41.2363 648.033C40.3574 648.795 39.1885 649.176 37.7295 649.176C36.71 649.176 35.8105 648.936 35.0312 648.455C34.2578 647.969 33.6602 647.28 33.2383 646.39C32.8164 645.499 32.5967 644.465 32.5791 643.287V642.092C32.5791 640.885 32.793 639.821 33.2207 638.901C33.6484 637.981 34.2607 637.272 35.0576 636.774C35.8604 636.276 36.7861 636.027 37.835 636.027C39.2471 636.027 40.3838 636.411 41.2451 637.179C42.1064 637.946 42.6074 639.03 42.748 640.431H40.5332C40.4277 639.511 40.1582 638.849 39.7246 638.444C39.2969 638.034 38.667 637.829 37.835 637.829C36.8682 637.829 36.124 638.184 35.6025 638.893C35.0869 639.596 34.8232 640.63 34.8115 641.995V643.129C34.8115 644.512 35.0576 645.566 35.5498 646.293C36.0479 647.02 36.7744 647.383 37.7295 647.383C38.6025 647.383 39.2588 647.187 39.6982 646.794C40.1377 646.401 40.416 645.748 40.5332 644.834H42.748ZM54.8945 649H52.6709L46.9668 639.921V649H44.7432V636.203H46.9668L52.6885 645.317V636.203H54.8945V649ZM59.8691 649H57.6543V636.203H59.8691V649ZM72.3672 644.834C72.2383 646.199 71.7344 647.266 70.8555 648.033C69.9766 648.795 68.8076 649.176 67.3486 649.176C66.3291 649.176 65.4297 648.936 64.6504 648.455C63.877 647.969 63.2793 647.28 62.8574 646.39C62.4355 645.499 62.2158 644.465 62.1982 643.287V642.092C62.1982 640.885 62.4121 639.821 62.8398 638.901C63.2676 637.981 63.8799 637.272 64.6768 636.774C65.4795 636.276 66.4053 636.027 67.4541 636.027C68.8662 636.027 70.0029 636.411 70.8643 637.179C71.7256 637.946 72.2266 639.03 72.3672 640.431H70.1523C70.0469 639.511 69.7773 638.849 69.3438 638.444C68.916 638.034 68.2861 637.829 67.4541 637.829C66.4873 637.829 65.7432 638.184 65.2217 638.893C64.7061 639.596 64.4424 640.63 64.4307 641.995V643.129C64.4307 644.512 64.6768 645.566 65.1689 646.293C65.667 647.02 66.3936 647.383 67.3486 647.383C68.2217 647.383 68.8779 647.187 69.3174 646.794C69.7568 646.401 70.0352 645.748 70.1523 644.834H72.3672Z" fill="#363636"/>
<path d="M81.0684 647.225H86.8779V649H78.8447V636.203H81.0684V647.225ZM90.8066 644.245V649H88.583V636.203H93.4785C94.9082 636.203 96.042 636.575 96.8799 637.319C97.7236 638.063 98.1455 639.048 98.1455 640.272C98.1455 641.526 97.7324 642.502 96.9062 643.199C96.0859 643.896 94.9346 644.245 93.4521 644.245H90.8066ZM90.8066 642.461H93.4785C94.2695 642.461 94.873 642.276 95.2891 641.907C95.7051 641.532 95.9131 640.993 95.9131 640.29C95.9131 639.599 95.7021 639.048 95.2803 638.638C94.8584 638.222 94.2783 638.008 93.54 637.996H90.8066V642.461ZM106.803 647.225H112.612V649H104.579V636.203H106.803V647.225ZM113.711 644.157C113.711 643.226 113.896 642.388 114.265 641.644C114.634 640.894 115.152 640.319 115.82 639.921C116.488 639.517 117.256 639.314 118.123 639.314C119.406 639.314 120.446 639.728 121.243 640.554C122.046 641.38 122.479 642.476 122.544 643.841L122.553 644.342C122.553 645.279 122.371 646.117 122.008 646.855C121.65 647.594 121.135 648.165 120.461 648.569C119.793 648.974 119.02 649.176 118.141 649.176C116.799 649.176 115.724 648.73 114.915 647.84C114.112 646.943 113.711 645.751 113.711 644.263V644.157ZM115.847 644.342C115.847 645.32 116.049 646.088 116.453 646.645C116.857 647.195 117.42 647.471 118.141 647.471C118.861 647.471 119.421 647.189 119.819 646.627C120.224 646.064 120.426 645.241 120.426 644.157C120.426 643.196 120.218 642.435 119.802 641.872C119.392 641.31 118.832 641.028 118.123 641.028C117.426 641.028 116.872 641.307 116.462 641.863C116.052 642.414 115.847 643.24 115.847 644.342ZM128.266 647.471C128.799 647.471 129.241 647.315 129.593 647.005C129.944 646.694 130.132 646.311 130.155 645.854H132.168C132.145 646.445 131.96 646.999 131.614 647.515C131.269 648.024 130.8 648.429 130.208 648.728C129.616 649.026 128.978 649.176 128.292 649.176C126.962 649.176 125.907 648.745 125.128 647.884C124.349 647.022 123.959 645.833 123.959 644.315V644.096C123.959 642.648 124.346 641.491 125.119 640.624C125.893 639.751 126.947 639.314 128.283 639.314C129.414 639.314 130.334 639.646 131.043 640.308C131.758 640.964 132.133 641.828 132.168 642.9H130.155C130.132 642.355 129.944 641.907 129.593 641.556C129.247 641.204 128.805 641.028 128.266 641.028C127.574 641.028 127.041 641.28 126.666 641.784C126.291 642.282 126.101 643.041 126.095 644.061V644.403C126.095 645.435 126.279 646.205 126.648 646.715C127.023 647.219 127.562 647.471 128.266 647.471ZM136.87 644.922L135.921 645.897V649H133.785V635.5H135.921V643.287L136.589 642.452L139.217 639.49H141.783L138.25 643.454L142.161 649H139.691L136.87 644.922ZM147.197 649.176C145.844 649.176 144.745 648.751 143.901 647.901C143.063 647.046 142.645 645.909 142.645 644.491V644.228C142.645 643.278 142.826 642.432 143.189 641.688C143.559 640.938 144.074 640.354 144.736 639.938C145.398 639.522 146.137 639.314 146.951 639.314C148.246 639.314 149.245 639.728 149.948 640.554C150.657 641.38 151.012 642.549 151.012 644.061V644.922H144.798C144.862 645.707 145.123 646.328 145.58 646.785C146.043 647.242 146.623 647.471 147.32 647.471C148.299 647.471 149.096 647.075 149.711 646.284L150.862 647.383C150.481 647.951 149.972 648.394 149.333 648.71C148.7 649.021 147.988 649.176 147.197 649.176ZM146.942 641.028C146.356 641.028 145.882 641.233 145.519 641.644C145.161 642.054 144.933 642.625 144.833 643.357H148.902V643.199C148.855 642.484 148.665 641.945 148.331 641.582C147.997 641.213 147.534 641.028 146.942 641.028ZM157.656 641.441C157.375 641.395 157.085 641.371 156.786 641.371C155.808 641.371 155.148 641.746 154.809 642.496V649H152.673V639.49H154.712L154.765 640.554C155.28 639.728 155.995 639.314 156.909 639.314C157.214 639.314 157.466 639.355 157.665 639.438L157.656 641.441Z" fill="#1F88FE"/>
<path d="M112 569.895H100V562.947C100 559.092 96.885 556 93 556H79C75.115 556 72 559.092 72 562.947V569.895H60C56.115 569.895 53.035 572.986 53.035 576.842L53 615.053C53 618.908 56.115 622 60 622H112C115.885 622 119 618.908 119 615.053V576.842C119 572.986 115.885 569.895 112 569.895ZM93 569.895H79V562.947H93V569.895Z" fill="#323232"/>
<rect x="86.5" y="204.5" width="59" height="1" transform="rotate(90 86.5 204.5)" stroke="#CCCCCC" stroke-dasharray="6 6"/>
<g filter="url(#filter1_d_400_1561)">
<circle cx="86" cy="289" r="25" fill="white"/>
<circle cx="86" cy="289" r="24" stroke="#CCCCCC" stroke-width="2"/>
</g>
<path d="M3.60449 412.245V417H1.38086V404.203H6.27637C7.70605 404.203 8.83984 404.575 9.67773 405.319C10.5215 406.063 10.9434 407.048 10.9434 408.272C10.9434 409.526 10.5303 410.502 9.7041 411.199C8.88379 411.896 7.73242 412.245 6.25 412.245H3.60449ZM3.60449 410.461H6.27637C7.06738 410.461 7.6709 410.276 8.08691 409.907C8.50293 409.532 8.71094 408.993 8.71094 408.29C8.71094 407.599 8.5 407.048 8.07812 406.638C7.65625 406.222 7.07617 406.008 6.33789 405.996H3.60449V410.461ZM15.2412 417H13.0264V404.203H15.2412V417ZM27.7393 412.834C27.6104 414.199 27.1064 415.266 26.2275 416.033C25.3486 416.795 24.1797 417.176 22.7207 417.176C21.7012 417.176 20.8018 416.936 20.0225 416.455C19.249 415.969 18.6514 415.28 18.2295 414.39C17.8076 413.499 17.5879 412.465 17.5703 411.287V410.092C17.5703 408.885 17.7842 407.821 18.2119 406.901C18.6396 405.981 19.252 405.272 20.0488 404.774C20.8516 404.276 21.7773 404.027 22.8262 404.027C24.2383 404.027 25.375 404.411 26.2363 405.179C27.0977 405.946 27.5986 407.03 27.7393 408.431H25.5244C25.4189 407.511 25.1494 406.849 24.7158 406.444C24.2881 406.034 23.6582 405.829 22.8262 405.829C21.8594 405.829 21.1152 406.184 20.5938 406.893C20.0781 407.596 19.8145 408.63 19.8027 409.995V411.129C19.8027 412.512 20.0488 413.566 20.541 414.293C21.0391 415.02 21.7656 415.383 22.7207 415.383C23.5938 415.383 24.25 415.187 24.6895 414.794C25.1289 414.401 25.4072 413.748 25.5244 412.834H27.7393ZM39.8857 417H37.6621L31.958 407.921V417H29.7344V404.203H31.958L37.6797 413.317V404.203H39.8857V417ZM44.8604 417H42.6455V404.203H44.8604V417ZM57.3584 412.834C57.2295 414.199 56.7256 415.266 55.8467 416.033C54.9678 416.795 53.7988 417.176 52.3398 417.176C51.3203 417.176 50.4209 416.936 49.6416 416.455C48.8682 415.969 48.2705 415.28 47.8486 414.39C47.4268 413.499 47.207 412.465 47.1895 411.287V410.092C47.1895 408.885 47.4033 407.821 47.8311 406.901C48.2588 405.981 48.8711 405.272 49.668 404.774C50.4707 404.276 51.3965 404.027 52.4453 404.027C53.8574 404.027 54.9941 404.411 55.8555 405.179C56.7168 405.946 57.2178 407.03 57.3584 408.431H55.1436C55.0381 407.511 54.7686 406.849 54.335 406.444C53.9072 406.034 53.2773 405.829 52.4453 405.829C51.4785 405.829 50.7344 406.184 50.2129 406.893C49.6973 407.596 49.4336 408.63 49.4219 409.995V411.129C49.4219 412.512 49.668 413.566 50.1602 414.293C50.6582 415.02 51.3848 415.383 52.3398 415.383C53.2129 415.383 53.8691 415.187 54.3086 414.794C54.748 414.401 55.0264 413.748 55.1436 412.834H57.3584Z" fill="#363636"/>
<path d="M73.082 405.996H69.0918V417H66.8857V405.996H62.9307V404.203H73.082V405.996ZM72.335 412.157C72.335 411.226 72.5195 410.388 72.8887 409.644C73.2578 408.894 73.7764 408.319 74.4443 407.921C75.1123 407.517 75.8799 407.314 76.7471 407.314C78.0303 407.314 79.0703 407.728 79.8672 408.554C80.6699 409.38 81.1035 410.476 81.168 411.841L81.1768 412.342C81.1768 413.279 80.9951 414.117 80.6318 414.855C80.2744 415.594 79.7588 416.165 79.085 416.569C78.417 416.974 77.6436 417.176 76.7646 417.176C75.4229 417.176 74.3477 416.73 73.5391 415.84C72.7363 414.943 72.335 413.751 72.335 412.263V412.157ZM74.4707 412.342C74.4707 413.32 74.6729 414.088 75.0771 414.645C75.4814 415.195 76.0439 415.471 76.7646 415.471C77.4854 415.471 78.0449 415.189 78.4434 414.627C78.8477 414.064 79.0498 413.241 79.0498 412.157C79.0498 411.196 78.8418 410.435 78.4258 409.872C78.0156 409.31 77.4561 409.028 76.7471 409.028C76.0498 409.028 75.4961 409.307 75.0859 409.863C74.6758 410.414 74.4707 411.24 74.4707 412.342ZM86.0723 412.922L85.123 413.897V417H82.9873V403.5H85.123V411.287L85.791 410.452L88.4189 407.49H90.9854L87.4521 411.454L91.3633 417H88.8936L86.0723 412.922ZM96.3994 417.176C95.0459 417.176 93.9473 416.751 93.1035 415.901C92.2656 415.046 91.8467 413.909 91.8467 412.491V412.228C91.8467 411.278 92.0283 410.432 92.3916 409.688C92.7607 408.938 93.2764 408.354 93.9385 407.938C94.6006 407.522 95.3389 407.314 96.1533 407.314C97.4482 407.314 98.4473 407.728 99.1504 408.554C99.8594 409.38 100.214 410.549 100.214 412.061V412.922H94C94.0645 413.707 94.3252 414.328 94.7822 414.785C95.2451 415.242 95.8252 415.471 96.5225 415.471C97.501 415.471 98.2979 415.075 98.9131 414.284L100.064 415.383C99.6836 415.951 99.1738 416.394 98.5352 416.71C97.9023 417.021 97.1904 417.176 96.3994 417.176ZM96.1445 409.028C95.5586 409.028 95.084 409.233 94.7207 409.644C94.3633 410.054 94.1348 410.625 94.0352 411.357H98.1045V411.199C98.0576 410.484 97.8672 409.945 97.5332 409.582C97.1992 409.213 96.7363 409.028 96.1445 409.028ZM103.861 407.49L103.923 408.589C104.626 407.739 105.549 407.314 106.691 407.314C108.672 407.314 109.68 408.448 109.715 410.716V417H107.579V410.839C107.579 410.235 107.447 409.79 107.184 409.503C106.926 409.21 106.501 409.063 105.909 409.063C105.048 409.063 104.406 409.453 103.984 410.232V417H101.849V407.49H103.861ZM118.812 415.225H124.621V417H116.588V404.203H118.812V415.225ZM125.72 412.157C125.72 411.226 125.904 410.388 126.273 409.644C126.643 408.894 127.161 408.319 127.829 407.921C128.497 407.517 129.265 407.314 130.132 407.314C131.415 407.314 132.455 407.728 133.252 408.554C134.055 409.38 134.488 410.476 134.553 411.841L134.562 412.342C134.562 413.279 134.38 414.117 134.017 414.855C133.659 415.594 133.144 416.165 132.47 416.569C131.802 416.974 131.028 417.176 130.149 417.176C128.808 417.176 127.732 416.73 126.924 415.84C126.121 414.943 125.72 413.751 125.72 412.263V412.157ZM127.855 412.342C127.855 413.32 128.058 414.088 128.462 414.645C128.866 415.195 129.429 415.471 130.149 415.471C130.87 415.471 131.43 415.189 131.828 414.627C132.232 414.064 132.435 413.241 132.435 412.157C132.435 411.196 132.227 410.435 131.811 409.872C131.4 409.31 130.841 409.028 130.132 409.028C129.435 409.028 128.881 409.307 128.471 409.863C128.061 410.414 127.855 411.24 127.855 412.342ZM140.274 415.471C140.808 415.471 141.25 415.315 141.602 415.005C141.953 414.694 142.141 414.311 142.164 413.854H144.177C144.153 414.445 143.969 414.999 143.623 415.515C143.277 416.024 142.809 416.429 142.217 416.728C141.625 417.026 140.986 417.176 140.301 417.176C138.971 417.176 137.916 416.745 137.137 415.884C136.357 415.022 135.968 413.833 135.968 412.315V412.096C135.968 410.648 136.354 409.491 137.128 408.624C137.901 407.751 138.956 407.314 140.292 407.314C141.423 407.314 142.343 407.646 143.052 408.308C143.767 408.964 144.142 409.828 144.177 410.9H142.164C142.141 410.355 141.953 409.907 141.602 409.556C141.256 409.204 140.813 409.028 140.274 409.028C139.583 409.028 139.05 409.28 138.675 409.784C138.3 410.282 138.109 411.041 138.104 412.061V412.403C138.104 413.435 138.288 414.205 138.657 414.715C139.032 415.219 139.571 415.471 140.274 415.471ZM148.879 412.922L147.93 413.897V417H145.794V403.5H147.93V411.287L148.598 410.452L151.226 407.49H153.792L150.259 411.454L154.17 417H151.7L148.879 412.922ZM159.206 417.176C157.853 417.176 156.754 416.751 155.91 415.901C155.072 415.046 154.653 413.909 154.653 412.491V412.228C154.653 411.278 154.835 410.432 155.198 409.688C155.567 408.938 156.083 408.354 156.745 407.938C157.407 407.522 158.146 407.314 158.96 407.314C160.255 407.314 161.254 407.728 161.957 408.554C162.666 409.38 163.021 410.549 163.021 412.061V412.922H156.807C156.871 413.707 157.132 414.328 157.589 414.785C158.052 415.242 158.632 415.471 159.329 415.471C160.308 415.471 161.104 415.075 161.72 414.284L162.871 415.383C162.49 415.951 161.98 416.394 161.342 416.71C160.709 417.021 159.997 417.176 159.206 417.176ZM158.951 409.028C158.365 409.028 157.891 409.233 157.527 409.644C157.17 410.054 156.941 410.625 156.842 411.357H160.911V411.199C160.864 410.484 160.674 409.945 160.34 409.582C160.006 409.213 159.543 409.028 158.951 409.028ZM169.665 409.441C169.384 409.395 169.094 409.371 168.795 409.371C167.816 409.371 167.157 409.746 166.817 410.496V417H164.682V407.49H166.721L166.773 408.554C167.289 407.728 168.004 407.314 168.918 407.314C169.223 407.314 169.475 407.355 169.674 407.438L169.665 409.441Z" fill="#1F88FE"/>
<path d="M86 322C76.6951 322 69.125 329.402 69.125 338.5V348.4H65.75C63.9598 348.4 62.2429 349.095 60.977 350.333C59.7112 351.571 59 353.25 59 355V381.4C59 383.15 59.7112 384.829 60.977 386.067C62.2429 387.305 63.9598 388 65.75 388H106.25C108.04 388 109.757 387.305 111.023 386.067C112.289 384.829 113 383.15 113 381.4V355C113 353.25 112.289 351.571 111.023 350.333C109.757 349.095 108.04 348.4 106.25 348.4H102.875V338.5C102.875 329.402 95.3049 322 86 322ZM75.875 338.5C75.875 333.042 80.4177 328.6 86 328.6C91.5822 328.6 96.125 333.042 96.125 338.5V348.4H75.875V338.5ZM89.375 373.886V381.4H82.625V373.886C81.4451 373.225 80.4976 372.23 79.9075 371.033C79.3175 369.835 79.1126 368.49 79.3198 367.176C79.527 365.862 80.1367 364.641 81.0683 363.672C82 362.704 83.2099 362.034 84.5386 361.752C85.5255 361.538 86.5488 361.544 87.5331 361.769C88.5173 361.994 89.4374 362.432 90.2254 363.051C91.0135 363.67 91.6494 364.454 92.0864 365.345C92.5233 366.236 92.7501 367.212 92.75 368.2C92.7481 369.354 92.4351 370.487 91.8426 371.486C91.25 372.484 90.3989 373.312 89.375 373.886Z" fill="#363636"/>
<path d="M85.0762 290.608C85.0762 292.721 84.5999 294.35 83.6475 295.496C82.7021 296.642 81.3665 297.215 79.6406 297.215C77.9004 297.215 76.554 296.638 75.6016 295.485C74.6491 294.332 74.1729 292.707 74.1729 290.608V287.751C74.1729 285.638 74.6455 284.009 75.5908 282.863C76.5433 281.717 77.8861 281.145 79.6191 281.145C81.3522 281.145 82.695 281.721 83.6475 282.874C84.5999 284.027 85.0762 285.656 85.0762 287.762V290.608ZM81.4561 287.289C81.4561 286.165 81.3092 285.327 81.0156 284.775C80.722 284.217 80.2565 283.938 79.6191 283.938C78.9961 283.938 78.5413 284.195 78.2549 284.711C77.9756 285.227 77.8252 286.007 77.8037 287.053V291.049C77.8037 292.216 77.9505 293.072 78.2441 293.616C78.5378 294.153 79.0033 294.422 79.6406 294.422C80.2565 294.422 80.7113 294.16 81.0049 293.638C81.2985 293.108 81.4489 292.281 81.4561 291.156V287.289ZM98.085 297H87.1709V294.637L92.1982 289.352C93.4372 287.941 94.0566 286.82 94.0566 285.989C94.0566 285.316 93.9098 284.804 93.6162 284.453C93.3226 284.102 92.8965 283.927 92.3379 283.927C91.7865 283.927 91.3389 284.163 90.9951 284.636C90.6514 285.101 90.4795 285.685 90.4795 286.387H86.8486C86.8486 285.427 87.0885 284.543 87.5684 283.733C88.0482 282.917 88.7142 282.28 89.5664 281.821C90.4186 281.363 91.3711 281.134 92.4238 281.134C94.1139 281.134 95.4137 281.524 96.3232 282.305C97.2399 283.085 97.6982 284.206 97.6982 285.667C97.6982 286.283 97.5837 286.884 97.3545 287.472C97.1253 288.052 96.7673 288.664 96.2803 289.309C95.8005 289.946 95.0234 290.802 93.9492 291.876L91.9297 294.207H98.085V297Z" fill="#363636"/>
<g filter="url(#filter2_d_400_1561)">
<circle cx="86" cy="62" r="25" fill="white"/>
<circle cx="86" cy="62" r="24" stroke="#CCCCCC" stroke-width="2"/>
</g>
<path d="M86.4033 63.6084C86.4033 65.721 85.9271 67.3503 84.9746 68.4961C84.0293 69.6419 82.6937 70.2148 80.9678 70.2148C79.2275 70.2148 77.8812 69.6383 76.9287 68.4854C75.9762 67.3324 75.5 65.7067 75.5 63.6084V60.751C75.5 58.6383 75.9727 57.0091 76.918 55.8633C77.8704 54.7174 79.2132 54.1445 80.9463 54.1445C82.6794 54.1445 84.0221 54.721 84.9746 55.874C85.9271 57.027 86.4033 58.6562 86.4033 60.7617V63.6084ZM82.7832 60.2891C82.7832 59.1647 82.6364 58.3268 82.3428 57.7754C82.0492 57.2168 81.5837 56.9375 80.9463 56.9375C80.3232 56.9375 79.8685 57.1953 79.582 57.7109C79.3027 58.2266 79.1523 59.0072 79.1309 60.0527V64.0488C79.1309 65.2161 79.2777 66.0719 79.5713 66.6162C79.8649 67.1533 80.3304 67.4219 80.9678 67.4219C81.5837 67.4219 82.0384 67.1605 82.332 66.6377C82.6257 66.1077 82.776 65.2806 82.7832 64.1562V60.2891ZM95.9531 70H92.3223V58.4414L88.7559 59.4834V56.7334L95.6201 54.3594H95.9531V70Z" fill="#363636"/>
<rect x="86.5" y="7.5" width="29" height="1" transform="rotate(90 86.5 7.5)" stroke="#CCCCCC" stroke-dasharray="6 6"/>
<circle cx="86" cy="4" r="4" transform="rotate(90 86 4)" fill="#CCCCCC"/>
<path d="M30.6016 183.773V188H28.625V176.625H32.9766C34.2474 176.625 35.2552 176.956 36 177.617C36.75 178.279 37.125 179.154 37.125 180.242C37.125 181.357 36.7578 182.224 36.0234 182.844C35.2943 183.464 34.2708 183.773 32.9531 183.773H30.6016ZM30.6016 182.188H32.9766C33.6797 182.188 34.2161 182.023 34.5859 181.695C34.9557 181.362 35.1406 180.883 35.1406 180.258C35.1406 179.643 34.9531 179.154 34.5781 178.789C34.2031 178.419 33.6875 178.229 33.0312 178.219H30.6016V182.188ZM40.9453 188H38.9766V176.625H40.9453V188ZM52.0547 184.297C51.9401 185.51 51.4922 186.458 50.7109 187.141C49.9297 187.818 48.8906 188.156 47.5938 188.156C46.6875 188.156 45.888 187.943 45.1953 187.516C44.5078 187.083 43.9766 186.471 43.6016 185.68C43.2266 184.888 43.0312 183.969 43.0156 182.922V181.859C43.0156 180.786 43.2057 179.841 43.5859 179.023C43.9661 178.206 44.5104 177.576 45.2188 177.133C45.9323 176.69 46.7552 176.469 47.6875 176.469C48.9427 176.469 49.9531 176.81 50.7188 177.492C51.4844 178.174 51.9297 179.138 52.0547 180.383H50.0859C49.9922 179.565 49.7526 178.977 49.3672 178.617C48.987 178.253 48.4271 178.07 47.6875 178.07C46.8281 178.07 46.1667 178.385 45.7031 179.016C45.2448 179.641 45.0104 180.56 45 181.773V182.781C45 184.01 45.2188 184.948 45.6562 185.594C46.099 186.24 46.7448 186.562 47.5938 186.562C48.3698 186.562 48.9531 186.388 49.3438 186.039C49.7344 185.69 49.9818 185.109 50.0859 184.297H52.0547ZM62.8516 188H60.875L55.8047 179.93V188H53.8281V176.625H55.8047L60.8906 184.727V176.625H62.8516V188ZM67.2734 188H65.3047V176.625H67.2734V188ZM78.3828 184.297C78.2682 185.51 77.8203 186.458 77.0391 187.141C76.2578 187.818 75.2188 188.156 73.9219 188.156C73.0156 188.156 72.2161 187.943 71.5234 187.516C70.8359 187.083 70.3047 186.471 69.9297 185.68C69.5547 184.888 69.3594 183.969 69.3438 182.922V181.859C69.3438 180.786 69.5339 179.841 69.9141 179.023C70.2943 178.206 70.8385 177.576 71.5469 177.133C72.2604 176.69 73.0833 176.469 74.0156 176.469C75.2708 176.469 76.2812 176.81 77.0469 177.492C77.8125 178.174 78.2578 179.138 78.3828 180.383H76.4141C76.3203 179.565 76.0807 178.977 75.6953 178.617C75.3151 178.253 74.7552 178.07 74.0156 178.07C73.1562 178.07 72.4948 178.385 72.0312 179.016C71.5729 179.641 71.3385 180.56 71.3281 181.773V182.781C71.3281 184.01 71.5469 184.948 71.9844 185.594C72.4271 186.24 73.0729 186.562 73.9219 186.562C74.6979 186.562 75.2812 186.388 75.6719 186.039C76.0625 185.69 76.3099 185.109 76.4141 184.297H78.3828Z" fill="#363636"/>
<path d="M86.1172 183.773V188H84.1406V176.625H88.4922C89.763 176.625 90.7708 176.956 91.5156 177.617C92.2656 178.279 92.6406 179.154 92.6406 180.242C92.6406 181.357 92.2734 182.224 91.5391 182.844C90.8099 183.464 89.7865 183.773 88.4688 183.773H86.1172ZM86.1172 182.188H88.4922C89.1953 182.188 89.7318 182.023 90.1016 181.695C90.4714 181.362 90.6562 180.883 90.6562 180.258C90.6562 179.643 90.4688 179.154 90.0938 178.789C89.7188 178.419 89.2031 178.229 88.5469 178.219H86.1172V182.188ZM98.6172 181.281C98.3672 181.24 98.1094 181.219 97.8438 181.219C96.974 181.219 96.388 181.552 96.0859 182.219V188H94.1875V179.547H96L96.0469 180.492C96.5052 179.758 97.1406 179.391 97.9531 179.391C98.224 179.391 98.4479 179.427 98.625 179.5L98.6172 181.281ZM103.383 188.156C102.18 188.156 101.203 187.779 100.453 187.023C99.7083 186.263 99.3359 185.253 99.3359 183.992V183.758C99.3359 182.914 99.4974 182.161 99.8203 181.5C100.148 180.833 100.607 180.315 101.195 179.945C101.784 179.576 102.44 179.391 103.164 179.391C104.315 179.391 105.203 179.758 105.828 180.492C106.458 181.227 106.773 182.266 106.773 183.609V184.375H101.25C101.307 185.073 101.539 185.625 101.945 186.031C102.357 186.438 102.872 186.641 103.492 186.641C104.362 186.641 105.07 186.289 105.617 185.586L106.641 186.562C106.302 187.068 105.849 187.461 105.281 187.742C104.719 188.018 104.086 188.156 103.383 188.156ZM103.156 180.914C102.635 180.914 102.214 181.096 101.891 181.461C101.573 181.826 101.37 182.333 101.281 182.984H104.898V182.844C104.857 182.208 104.688 181.729 104.391 181.406C104.094 181.078 103.682 180.914 103.156 180.914ZM111.938 183.93H107.836V182.398H111.938V183.93ZM119.633 185.07C119.633 184.57 119.456 184.185 119.102 183.914C118.753 183.643 118.12 183.37 117.203 183.094C116.286 182.818 115.557 182.51 115.016 182.172C113.979 181.521 113.461 180.672 113.461 179.625C113.461 178.708 113.833 177.953 114.578 177.359C115.328 176.766 116.299 176.469 117.492 176.469C118.284 176.469 118.99 176.615 119.609 176.906C120.229 177.198 120.716 177.615 121.07 178.156C121.424 178.693 121.602 179.289 121.602 179.945H119.633C119.633 179.352 119.445 178.888 119.07 178.555C118.701 178.216 118.169 178.047 117.477 178.047C116.831 178.047 116.328 178.185 115.969 178.461C115.615 178.737 115.438 179.122 115.438 179.617C115.438 180.034 115.63 180.383 116.016 180.664C116.401 180.94 117.036 181.211 117.922 181.477C118.807 181.737 119.518 182.036 120.055 182.375C120.591 182.708 120.984 183.094 121.234 183.531C121.484 183.964 121.609 184.471 121.609 185.055C121.609 186.003 121.245 186.758 120.516 187.32C119.792 187.878 118.807 188.156 117.562 188.156C116.74 188.156 115.982 188.005 115.289 187.703C114.602 187.396 114.065 186.974 113.68 186.438C113.299 185.901 113.109 185.276 113.109 184.562H115.086C115.086 185.208 115.299 185.708 115.727 186.062C116.154 186.417 116.766 186.594 117.562 186.594C118.25 186.594 118.766 186.456 119.109 186.18C119.458 185.898 119.633 185.529 119.633 185.07ZM128.211 188C128.128 187.839 128.055 187.576 127.992 187.211C127.388 187.841 126.648 188.156 125.773 188.156C124.924 188.156 124.232 187.914 123.695 187.43C123.159 186.945 122.891 186.346 122.891 185.633C122.891 184.732 123.224 184.042 123.891 183.562C124.562 183.078 125.521 182.836 126.766 182.836H127.93V182.281C127.93 181.844 127.807 181.495 127.562 181.234C127.318 180.969 126.945 180.836 126.445 180.836C126.013 180.836 125.659 180.945 125.383 181.164C125.107 181.378 124.969 181.651 124.969 181.984H123.07C123.07 181.521 123.224 181.089 123.531 180.688C123.839 180.281 124.255 179.964 124.781 179.734C125.312 179.505 125.904 179.391 126.555 179.391C127.544 179.391 128.333 179.641 128.922 180.141C129.51 180.635 129.812 181.333 129.828 182.234V186.047C129.828 186.807 129.935 187.414 130.148 187.867V188H128.211ZM126.125 186.633C126.5 186.633 126.852 186.542 127.18 186.359C127.513 186.177 127.763 185.932 127.93 185.625V184.031H126.906C126.203 184.031 125.674 184.154 125.32 184.398C124.966 184.643 124.789 184.99 124.789 185.438C124.789 185.802 124.909 186.094 125.148 186.312C125.393 186.526 125.719 186.633 126.125 186.633ZM133.836 188H131.938V176H133.836V188ZM139.633 188.156C138.43 188.156 137.453 187.779 136.703 187.023C135.958 186.263 135.586 185.253 135.586 183.992V183.758C135.586 182.914 135.747 182.161 136.07 181.5C136.398 180.833 136.857 180.315 137.445 179.945C138.034 179.576 138.69 179.391 139.414 179.391C140.565 179.391 141.453 179.758 142.078 180.492C142.708 181.227 143.023 182.266 143.023 183.609V184.375H137.5C137.557 185.073 137.789 185.625 138.195 186.031C138.607 186.438 139.122 186.641 139.742 186.641C140.612 186.641 141.32 186.289 141.867 185.586L142.891 186.562C142.552 187.068 142.099 187.461 141.531 187.742C140.969 188.018 140.336 188.156 139.633 188.156ZM139.406 180.914C138.885 180.914 138.464 181.096 138.141 181.461C137.823 181.826 137.62 182.333 137.531 182.984H141.148V182.844C141.107 182.208 140.938 181.729 140.641 181.406C140.344 181.078 139.932 180.914 139.406 180.914Z" fill="#1F88FE"/>
<path d="M71.8 147.8C68.17 147.8 65.233 150.77 65.233 154.4C65.233 158.03 68.17 161 71.8 161C75.43 161 78.4 158.03 78.4 154.4C78.4 150.77 75.43 147.8 71.8 147.8ZM52 95V101.6H58.6L70.48 126.647L66.025 134.732C65.497 135.656 65.2 136.745 65.2 137.9C65.2 141.53 68.17 144.5 71.8 144.5H111.4V137.9H73.186C72.724 137.9 72.361 137.537 72.361 137.075L72.46 136.679L75.43 131.3H100.015C102.49 131.3 104.668 129.947 105.79 127.901L117.604 106.484C117.868 106.022 118 105.461 118 104.9C118 103.085 116.515 101.6 114.7 101.6H65.893L62.791 95H52ZM104.8 147.8C101.17 147.8 98.233 150.77 98.233 154.4C98.233 158.03 101.17 161 104.8 161C108.43 161 111.4 158.03 111.4 154.4C111.4 150.77 108.43 147.8 104.8 147.8Z" fill="#363636"/>
<defs>
<filter id="filter0_d_400_1561" x="31" y="464" width="110" height="110" filterUnits="userSpaceOnUse" color-interpolation-filters="sRGB">
<feFlood flood-opacity="0" result="BackgroundImageFix"/>
<feColorMatrix in="SourceAlpha" type="matrix" values="0 0 0 0 0 0 0 0 0 0 0 0 0 0 0 0 0 0 127 0" result="hardAlpha"/>
<feOffset/>
<feGaussianBlur stdDeviation="15"/>
<feColorMatrix type="matrix" values="0 0 0 0 0 0 0 0 0 0 0 0 0 0 0 0 0 0 0.02 0"/>
<feBlend mode="normal" in2="BackgroundImageFix" result="effect1_dropShadow_400_1561"/>
<feBlend mode="normal" in="SourceGraphic" in2="effect1_dropShadow_400_1561" result="shape"/>
</filter>
<filter id="filter1_d_400_1561" x="31" y="234" width="110" height="110" filterUnits="userSpaceOnUse" color-interpolation-filters="sRGB">
<feFlood flood-opacity="0" result="BackgroundImageFix"/>
<feColorMatrix in="SourceAlpha" type="matrix" values="0 0 0 0 0 0 0 0 0 0 0 0 0 0 0 0 0 0 127 0" result="hardAlpha"/>
<feOffset/>
<feGaussianBlur stdDeviation="15"/>
<feColorMatrix type="matrix" values="0 0 0 0 0 0 0 0 0 0 0 0 0 0 0 0 0 0 0.02 0"/>
<feBlend mode="normal" in2="BackgroundImageFix" result="effect1_dropShadow_400_1561"/>
<feBlend mode="normal" in="SourceGraphic" in2="effect1_dropShadow_400_1561" result="shape"/>
</filter>
<filter id="filter2_d_400_1561" x="31" y="7" width="110" height="110" filterUnits="userSpaceOnUse" color-interpolation-filters="sRGB">
<feFlood flood-opacity="0" result="BackgroundImageFix"/>
<feColorMatrix in="SourceAlpha" type="matrix" values="0 0 0 0 0 0 0 0 0 0 0 0 0 0 0 0 0 0 127 0" result="hardAlpha"/>
<feOffset/>
<feGaussianBlur stdDeviation="15"/>
<feColorMatrix type="matrix" values="0 0 0 0 0 0 0 0 0 0 0 0 0 0 0 0 0 0 0.02 0"/>
<feBlend mode="normal" in2="BackgroundImageFix" result="effect1_dropShadow_400_1561"/>
<feBlend mode="normal" in="SourceGraphic" in2="effect1_dropShadow_400_1561" result="shape"/>
</filter>
</defs>
</svg>
